<svg width="28" height="28" viewBox="0 0 28 28" fill="none" xmlns="http://www.w3.org/2000/svg">
<path d="M26.0019 0H10.0041C8.89821 0 8.00617 0.892049 8.00617 1.99789C8.00617 3.10374 8.89821 3.99579 10.0041 3.99579H21.1731L6.58219 18.5866C5.80073 19.3681 5.80073 20.6361 6.58219 21.4176C6.97292 21.8083 7.48161 22 7.99767 22C8.50636 22 9.02242 21.8083 9.41316 21.4176L24.004 6.82675V17.9958C24.004 19.1016 24.8961 19.9937 26.0019 19.9937C27.1078 19.9937 27.9998 19.1016 27.9998 17.9958V1.99789C27.9998 0.892049 27.1078 0 26.0019 0Z" fill="#FF2EE8"/>
</svg>
