<svg xmlns="http://www.w3.org/2000/svg" viewBox="0 0 59.7 12.65"><defs><style>.cls-1{fill:#fff9e5;}</style></defs><title>Fichier 1</title><g id="Calque_2" data-name="Calque 2"><g id="Calque_1-2" data-name="Calque 1"><path class="cls-1" d="M13.33,3.06A2.67,2.67,0,0,1,10.55,6v.09a3.37,3.37,0,0,1,2.29.79,2.84,2.84,0,0,1,.83,2.19,5.21,5.21,0,0,1-.14,1.18,2.15,2.15,0,0,1-.61,1,3.42,3.42,0,0,1-1.36.73,8.09,8.09,0,0,1-2.39.29H0V9.19A2.09,2.09,0,0,0,1.05,9a.81.81,0,0,0,.32-.74V4a.81.81,0,0,0-.32-.74,2.09,2.09,0,0,0-1-.2V0H9.74A5.57,5.57,0,0,1,11.6.26a2.65,2.65,0,0,1,1.09.68,2.11,2.11,0,0,1,.51,1A4.8,4.8,0,0,1,13.33,3.06Zm-7,2.27H7.54A.84.84,0,0,0,8.29,5a1.4,1.4,0,0,0,.23-.8,1.34,1.34,0,0,0-.23-.77.82.82,0,0,0-.75-.34H6.28ZM7.53,9.19a1.32,1.32,0,0,0,1-.28A1.24,1.24,0,0,0,8.76,8a1.31,1.31,0,0,0-.27-.92,1.28,1.28,0,0,0-1-.29H6.28V9.19Z"/><path class="cls-1" d="M20.51,0V8.28c0,.38.09.62.28.73a1.23,1.23,0,0,0,.7.18h.22v3.09h-7V9.19H15a.78.78,0,0,0,.65-.28,1,1,0,0,0,.22-.61V4a.81.81,0,0,0-.31-.71,1.13,1.13,0,0,0-.7-.23h-.19V0Z"/><path class="cls-1" d="M26.67,4.25a3.91,3.91,0,0,0-.73.06,3,3,0,0,0-.52.15,1.52,1.52,0,0,0-.36.19l-.25.18.09.09.34-.17a1.34,1.34,0,0,1,.48-.08,1.2,1.2,0,0,1,.85.32,1.29,1.29,0,0,1,.36,1,1.26,1.26,0,0,1-.55,1.07,2.39,2.39,0,0,1-1.46.4A1.88,1.88,0,0,1,23.53,7,1.89,1.89,0,0,1,23,5.55a2,2,0,0,1,.29-1,2.7,2.7,0,0,1,.88-.91A5.31,5.31,0,0,1,25.68,3a8.08,8.08,0,0,1,2.23-.26A8.93,8.93,0,0,1,30.44,3,4.12,4.12,0,0,1,32,3.76a2.41,2.41,0,0,1,.75,1A3.7,3.7,0,0,1,32.92,6V9.23a7.28,7.28,0,0,0,0,1,.33.33,0,0,0,.38.28.38.38,0,0,0,.36-.25,2.42,2.42,0,0,0,.1-.85v-1h1V9.46a6.59,6.59,0,0,1-.13,1.33,2.17,2.17,0,0,1-.47,1,2.21,2.21,0,0,1-1,.63,4.7,4.7,0,0,1-1.53.21,4.51,4.51,0,0,1-1.39-.18,2.58,2.58,0,0,1-.88-.45,1.69,1.69,0,0,1-.47-.55,1.2,1.2,0,0,1-.13-.51h-.14a1.4,1.4,0,0,1-.29.65,2.1,2.1,0,0,1-.65.54,4.09,4.09,0,0,1-1,.39,6,6,0,0,1-1.34.14,5.24,5.24,0,0,1-1.3-.14,2.61,2.61,0,0,1-1-.43,2,2,0,0,1-.65-.77,2.54,2.54,0,0,1-.23-1.12,1.74,1.74,0,0,1,.45-1.26,3.15,3.15,0,0,1,1.14-.73,8.69,8.69,0,0,1,1.49-.44,13.08,13.08,0,0,0,1.48-.42,3.63,3.63,0,0,0,1.14-.62,1.36,1.36,0,0,0,.45-1.09,1.33,1.33,0,0,0-.39-1A1.84,1.84,0,0,0,26.67,4.25Zm1.68,3.61a1.45,1.45,0,0,1-.46.43l-.53.32a1.73,1.73,0,0,0-.44.36.8.8,0,0,0-.19.57.87.87,0,0,0,.15.5.64.64,0,0,0,.58.22.77.77,0,0,0,.64-.3,1.32,1.32,0,0,0,.25-.86Z"/><path class="cls-1" d="M43,7a1.45,1.45,0,0,0-.08-.52.75.75,0,0,0-.2-.3A.7.7,0,0,0,42.45,6l-.29,0a1,1,0,0,0-.81.32,1.34,1.34,0,0,0-.27.9V8.37a1,1,0,0,0,.16.63.75.75,0,0,0,.59.19h.45v3.09h-7V9.19h.49A.64.64,0,0,0,36.33,9a.78.78,0,0,0,.18-.52V6.85a.57.57,0,0,0-.23-.53,1,1,0,0,0-.52-.14h-.44V3.09h5l-.18,2.29h.14a2.82,2.82,0,0,1,1.13-2,4.25,4.25,0,0,1,2.56-.69A4.67,4.67,0,0,1,45.78,3a3.09,3.09,0,0,1,1.11.82,2.89,2.89,0,0,1,.54,1.08A4.79,4.79,0,0,1,47.57,6V8.37a1,1,0,0,0,.15.63.76.76,0,0,0,.6.19h.45v3.09H43Z"/><path class="cls-1" d="M55.5,5a1.22,1.22,0,0,0-1.1.61,4,4,0,0,0-.38,2,3.69,3.69,0,0,0,.4,2,1.34,1.34,0,0,0,1.21.6,1.58,1.58,0,0,0,.47-.07,1.42,1.42,0,0,0,.44-.23,1.19,1.19,0,0,0,.33-.37A1.26,1.26,0,0,0,57,9H59.7a3.85,3.85,0,0,1-1.49,2.75,6,6,0,0,1-3.51.89,7.31,7.31,0,0,1-2.13-.3,4.87,4.87,0,0,1-1.73-.92,4.24,4.24,0,0,1-1.15-1.54,5.52,5.52,0,0,1-.41-2.21,5.29,5.29,0,0,1,.41-2.15A4.3,4.3,0,0,1,50.86,4,5.45,5.45,0,0,1,52.65,3a7.67,7.67,0,0,1,2.26-.31A6.75,6.75,0,0,1,57.12,3a4.63,4.63,0,0,1,1.45.81,3,3,0,0,1,.8,1.06,2.81,2.81,0,0,1,.23,1,2.52,2.52,0,0,1-.11.77,2,2,0,0,1-1,1.18,2.28,2.28,0,0,1-1,.18,2.18,2.18,0,0,1-.88-.15,1.37,1.37,0,0,1-.53-.38,1.4,1.4,0,0,1-.27-.49,1.72,1.72,0,0,1-.08-.48A1.26,1.26,0,0,1,56,5.78a1.29,1.29,0,0,1,.56-.41,4.33,4.33,0,0,0-.37-.27A1.26,1.26,0,0,0,55.5,5Z"/></g></g></svg>