<svg xmlns="http://www.w3.org/2000/svg" viewBox="0 0 47.55 12.64"><defs><style>.cls-1{fill:#fff9e5;}</style></defs><title>Fichier 2</title><g id="Calque_2" data-name="Calque 2"><g id="Calque_1-2" data-name="Calque 1"><path class="cls-1" d="M13.33,3.06A2.67,2.67,0,0,1,10.55,6v.09a3.37,3.37,0,0,1,2.29.79,2.84,2.84,0,0,1,.83,2.19,5.21,5.21,0,0,1-.14,1.18,2.15,2.15,0,0,1-.61,1,3.42,3.42,0,0,1-1.36.73,8.09,8.09,0,0,1-2.39.29H0V9.19A2.09,2.09,0,0,0,1.05,9a.81.81,0,0,0,.32-.74V4a.81.81,0,0,0-.32-.74,2.09,2.09,0,0,0-1-.2V0H9.74A5.57,5.57,0,0,1,11.6.26a2.65,2.65,0,0,1,1.09.68,2.11,2.11,0,0,1,.51,1A4.8,4.8,0,0,1,13.33,3.06Zm-7,2.27H7.54A.84.84,0,0,0,8.29,5a1.4,1.4,0,0,0,.23-.8,1.34,1.34,0,0,0-.23-.77.82.82,0,0,0-.75-.34H6.28ZM7.53,9.19a1.32,1.32,0,0,0,1-.28A1.24,1.24,0,0,0,8.76,8a1.31,1.31,0,0,0-.27-.92,1.28,1.28,0,0,0-1-.29H6.28V9.19Z"/><path class="cls-1" d="M20.51,0V8.28c0,.38.09.62.28.73a1.23,1.23,0,0,0,.7.18h.22v3.09h-7V9.19H15a.78.78,0,0,0,.65-.28,1,1,0,0,0,.22-.61V4a.84.84,0,0,0-.31-.71,1.15,1.15,0,0,0-.7-.23h-.19V0Z"/><path class="cls-1" d="M27,8.2a2.63,2.63,0,0,0,.47,1.71,1.61,1.61,0,0,0,1.26.48,1.89,1.89,0,0,0,.53-.08,1.54,1.54,0,0,0,.49-.26,1.58,1.58,0,0,0,.39-.48,1.85,1.85,0,0,0,.21-.74h3a4.84,4.84,0,0,1-.61,1.8,3.75,3.75,0,0,1-1.14,1.17,4.83,4.83,0,0,1-1.63.64,10.1,10.1,0,0,1-2.07.2,7.87,7.87,0,0,1-2.21-.3,5.3,5.3,0,0,1-1.82-.92,4.3,4.3,0,0,1-1.22-1.54,5.19,5.19,0,0,1-.44-2.21,5.12,5.12,0,0,1,.42-2.15A4.3,4.3,0,0,1,23.81,4,5.4,5.4,0,0,1,25.59,3a7.74,7.74,0,0,1,2.27-.31,7.44,7.44,0,0,1,2.6.4,4.66,4.66,0,0,1,1.79,1.11,4.35,4.35,0,0,1,1,1.73,6.9,6.9,0,0,1,.31,2.24ZM28.21,5a1,1,0,0,0-.86.41A3.14,3.14,0,0,0,27,6.74h2.44a2.7,2.7,0,0,0-.35-1.29A1,1,0,0,0,28.21,5Z"/><path class="cls-1" d="M46.36,8.52a.56.56,0,0,0,.23.53,1,1,0,0,0,.52.14h.44v3.09H42.6V10h-.13a2.89,2.89,0,0,1-1,1.94,4,4,0,0,1-2.47.66,4.49,4.49,0,0,1-1.86-.33A2.93,2.93,0,0,1,36,11.44a2.89,2.89,0,0,1-.54-1.08,4.71,4.71,0,0,1-.14-1.08V7a1,1,0,0,0-.16-.63.75.75,0,0,0-.59-.19h-.5V3.09h5.82V8.35a1.45,1.45,0,0,0,.08.52.66.66,0,0,0,.2.3.59.59,0,0,0,.27.14l.29,0A1,1,0,0,0,41.52,9a1.34,1.34,0,0,0,.26-.9V7a1,1,0,0,0-.15-.63.76.76,0,0,0-.6-.19h-.49V3.09h5.82Z"/></g></g></svg>