<svg xmlns="http://www.w3.org/2000/svg" viewBox="0 0 53.12 12.59"><defs><style>.cls-1{fill:#fff9e5;}</style></defs><title>Fichier 12</title><g id="Calque_2" data-name="Calque 2"><g id="Calque_1-2" data-name="Calque 1"><path class="cls-1" d="M13.33,3.06A2.67,2.67,0,0,1,10.55,6v.09a3.37,3.37,0,0,1,2.29.79,2.84,2.84,0,0,1,.83,2.19,5.21,5.21,0,0,1-.14,1.18,2.15,2.15,0,0,1-.61,1,3.55,3.55,0,0,1-1.36.73,8.09,8.09,0,0,1-2.39.29H0V9.19A2.09,2.09,0,0,0,1.05,9a.81.81,0,0,0,.32-.74V4a.81.81,0,0,0-.32-.74,2.09,2.09,0,0,0-1-.2V0H9.74A5.57,5.57,0,0,1,11.6.26a2.65,2.65,0,0,1,1.09.68,2.11,2.11,0,0,1,.51,1A4.8,4.8,0,0,1,13.33,3.06Zm-7,2.27H7.54A.84.84,0,0,0,8.29,5a1.4,1.4,0,0,0,.23-.8,1.34,1.34,0,0,0-.23-.77.82.82,0,0,0-.75-.34H6.28ZM7.53,9.19a1.32,1.32,0,0,0,1-.28A1.24,1.24,0,0,0,8.76,8a1.31,1.31,0,0,0-.27-.92,1.28,1.28,0,0,0-1-.29H6.28V9.19Z"/><path class="cls-1" d="M19.65,3.09,19.5,5.38h.15a3.88,3.88,0,0,1,1-2,2.38,2.38,0,0,1,1.76-.67,2.77,2.77,0,0,1,1.1.2,2,2,0,0,1,.75.55,2.09,2.09,0,0,1,.41.78,3.59,3.59,0,0,1,.12.93,2.87,2.87,0,0,1-.11.77,1.94,1.94,0,0,1-.38.69,1.82,1.82,0,0,1-.67.5,2.44,2.44,0,0,1-1,.19,1.94,1.94,0,0,1-1.32-.43,1.31,1.31,0,0,1-.48-1,1.77,1.77,0,0,1,.07-.5A1.81,1.81,0,0,1,21,5.05a1,1,0,0,0,.09-.19s0-.06-.05-.06-.25.13-.38.4a2.86,2.86,0,0,0-.21,1.26V8.37a1,1,0,0,0,.16.63.75.75,0,0,0,.59.19h.5v3.09h-7V9.19h.5A.64.64,0,0,0,15.71,9a.79.79,0,0,0,.18-.53V6.85a.57.57,0,0,0-.23-.53,1,1,0,0,0-.52-.14h-.45V3.09Z"/><path class="cls-1" d="M37.45,8.52a.56.56,0,0,0,.23.53,1,1,0,0,0,.52.14h.44v3.09h-5V10h-.13a2.92,2.92,0,0,1-1,1.94,4,4,0,0,1-2.48.66,4.49,4.49,0,0,1-1.86-.33,2.93,2.93,0,0,1-1.11-.82,2.89,2.89,0,0,1-.54-1.08,4.71,4.71,0,0,1-.14-1.08V7a1,1,0,0,0-.16-.63.75.75,0,0,0-.59-.19h-.5V3.09H31V8.35a1.45,1.45,0,0,0,.08.52.75.75,0,0,0,.2.3.59.59,0,0,0,.27.14l.29,0A1,1,0,0,0,32.61,9a1.34,1.34,0,0,0,.26-.9V7a1,1,0,0,0-.15-.63.76.76,0,0,0-.6-.19h-.49V3.09h5.82Z"/><path class="cls-1" d="M47.35,7a1.45,1.45,0,0,0-.08-.52.75.75,0,0,0-.2-.3A.59.59,0,0,0,46.8,6l-.29,0a1,1,0,0,0-.81.32,1.34,1.34,0,0,0-.27.9V8.37a1,1,0,0,0,.16.63.75.75,0,0,0,.59.19h.45v3.09h-7V9.19h.49A.63.63,0,0,0,40.68,9a.79.79,0,0,0,.18-.53V6.85a.57.57,0,0,0-.23-.53,1,1,0,0,0-.52-.14h-.44V3.09h4.95l-.18,2.29h.14a2.85,2.85,0,0,1,1.13-2,4.25,4.25,0,0,1,2.56-.69A4.67,4.67,0,0,1,50.13,3a3,3,0,0,1,1.11.82,2.89,2.89,0,0,1,.54,1.08A4.79,4.79,0,0,1,51.92,6V8.37a1,1,0,0,0,.15.63.78.78,0,0,0,.6.19h.45v3.09H47.35Z"/></g></g></svg>