<svg xmlns="http://www.w3.org/2000/svg" viewBox="0 0 43.92 13.33"><defs><style>.cls-1{fill:#fff9e5;}</style></defs><title>Fichier 3</title><g id="Calque_2" data-name="Calque 2"><g id="Calque_1-2" data-name="Calque 1"><path class="cls-1" d="M10.43,13l-.28-.84A4.64,4.64,0,0,1,8.71,13a5.87,5.87,0,0,1-2.13.36A8.5,8.5,0,0,1,4,13a5.61,5.61,0,0,1-2.09-1.15,5.42,5.42,0,0,1-1.42-2,7.54,7.54,0,0,1-.52-3A7.13,7.13,0,0,1,.55,3.89,5.74,5.74,0,0,1,2,1.88,5.88,5.88,0,0,1,4.06.72,7.73,7.73,0,0,1,6.4.36,6,6,0,0,1,7.66.47a5.4,5.4,0,0,1,1,.27,4.88,4.88,0,0,1,.72.34l.47.3V.69h2.75V5.23H9.68A2.23,2.23,0,0,0,9.15,3.8a1.78,1.78,0,0,0-1.38-.54,2.13,2.13,0,0,0-.84.16,1.7,1.7,0,0,0-.7.57,3.22,3.22,0,0,0-.47,1.1,7.72,7.72,0,0,0-.17,1.75,10,10,0,0,0,.12,1.69,3.48,3.48,0,0,0,.34,1.1,1.55,1.55,0,0,0,.61.61,2,2,0,0,0,.88.19l.3,0a1.31,1.31,0,0,0,.34-.09.85.85,0,0,0,.28-.16.34.34,0,0,0,.12-.27V9.42a.71.71,0,0,0-.26-.6,1.8,1.8,0,0,0-1-.2V5.87h7V8.62a2.1,2.1,0,0,0-1,.19.8.8,0,0,0-.31.74V13Z"/><path class="cls-1" d="M20.33,3.78l-.14,2.3h.14a4,4,0,0,1,1-2,2.38,2.38,0,0,1,1.76-.67,2.86,2.86,0,0,1,1.11.2,2,2,0,0,1,.74.55,2.06,2.06,0,0,1,.41.79,3.46,3.46,0,0,1,.13.92,2.53,2.53,0,0,1-.12.77,1.92,1.92,0,0,1-.37.69,1.87,1.87,0,0,1-.67.5,2.33,2.33,0,0,1-1,.19A1.86,1.86,0,0,1,22,7.59a1.31,1.31,0,0,1-.48-1,1.8,1.8,0,0,1,.06-.5,2.18,2.18,0,0,1,.14-.33l.1-.19s0-.06-.06-.06-.24.14-.38.4a2.89,2.89,0,0,0-.2,1.26V9.06a1,1,0,0,0,.15.63.76.76,0,0,0,.6.19h.5V13h-7V9.88h.49a.65.65,0,0,0,.52-.22.83.83,0,0,0,.18-.53V7.54A.58.58,0,0,0,16.34,7a1,1,0,0,0-.52-.13h-.44V3.78Z"/><path class="cls-1" d="M32.12,3.78V9a.8.8,0,0,0,.28.73,1.32,1.32,0,0,0,.7.17h.22V13h-7V9.88h.33a.78.78,0,0,0,.65-.28A1,1,0,0,0,27.5,9V7.82a.84.84,0,0,0-.31-.71,1.09,1.09,0,0,0-.7-.23H26.3V3.78Zm-4.76-2A1.6,1.6,0,0,1,27.91.51,2.18,2.18,0,0,1,29.46,0,2.24,2.24,0,0,1,31,.51,1.63,1.63,0,0,1,31,3a2.24,2.24,0,0,1-1.58.51A2.18,2.18,0,0,1,27.91,3,1.61,1.61,0,0,1,27.36,1.73Z"/><path class="cls-1" d="M43.63,6.83H41.34a2,2,0,0,0-.75-1,1.79,1.79,0,0,0-1.06-.35,1.1,1.1,0,0,0-.59.13.46.46,0,0,0-.23.42.56.56,0,0,0,.39.51,5.5,5.5,0,0,0,1,.3l1.26.32a5.37,5.37,0,0,1,1.25.54,2.87,2.87,0,0,1,1,.94,2.82,2.82,0,0,1,.39,1.56,2.53,2.53,0,0,1-.34,1.31,2.67,2.67,0,0,1-.91.92,4.24,4.24,0,0,1-1.36.53,8.2,8.2,0,0,1-3.37,0,5,5,0,0,1-1.5-.58l-.08.58h-2.2V9.68h2.28a2.78,2.78,0,0,0,.82,1,1.84,1.84,0,0,0,1.1.37,1,1,0,0,0,.65-.17.52.52,0,0,0,.2-.38.57.57,0,0,0-.39-.53,4.81,4.81,0,0,0-.94-.34l-1.24-.32a4.71,4.71,0,0,1-1.24-.52,3.05,3.05,0,0,1-.94-.92,2.7,2.7,0,0,1-.39-1.52,2.48,2.48,0,0,1,.31-1.24,2.68,2.68,0,0,1,.87-.94,4.63,4.63,0,0,1,1.33-.59,6.81,6.81,0,0,1,1.69-.2,7,7,0,0,1,1.84.23,4.35,4.35,0,0,1,1.23.5l.08-.59h2.21Z"/></g></g></svg>