<svg xmlns="http://www.w3.org/2000/svg" viewBox="0 0 69.4 17.4"><defs><style>.cls-1{fill:#fff9e5;}</style></defs><title>Fichier 13</title><g id="Calque_2" data-name="Calque 2"><g id="Calque_1-2" data-name="Calque 1"><path class="cls-1" d="M0,13V9.88a2.09,2.09,0,0,0,1.05-.2.81.81,0,0,0,.32-.74V4.73A.81.81,0,0,0,1.05,4a2.09,2.09,0,0,0-1-.2V.69H7.64V3.78a2,2,0,0,0-1,.2.81.81,0,0,0-.32.75V8.94a.81.81,0,0,0,.32.74,2,2,0,0,0,1,.2V13Z"/><path class="cls-1" d="M16.35,7.64a1.29,1.29,0,0,0-.08-.52.75.75,0,0,0-.2-.3.7.7,0,0,0-.27-.14,1.43,1.43,0,0,0-.29,0A1,1,0,0,0,14.7,7a1.34,1.34,0,0,0-.26.9V9.06a1,1,0,0,0,.15.63.76.76,0,0,0,.6.19h.45V13h-7V9.88h.49a.65.65,0,0,0,.52-.22.83.83,0,0,0,.18-.53V7.54A.58.58,0,0,0,9.63,7a1,1,0,0,0-.52-.13H8.67V3.78h4.95l-.18,2.3h.15a2.81,2.81,0,0,1,1.12-2,4.25,4.25,0,0,1,2.56-.69,4.67,4.67,0,0,1,1.86.32,2.93,2.93,0,0,1,1.11.82,3,3,0,0,1,.54,1.08,4.86,4.86,0,0,1,.14,1.09V9.06a1,1,0,0,0,.15.63.8.8,0,0,0,.6.19h.45V13H16.35Z"/><path class="cls-1" d="M34.29.69v8.5a.67.67,0,0,0,.19.52.77.77,0,0,0,.53.17h.47V13h-5.6V11.45h-.13a2.44,2.44,0,0,1-.39.68,3,3,0,0,1-.64.58,3.32,3.32,0,0,1-.89.39,4.15,4.15,0,0,1-1.16.14A3.84,3.84,0,0,1,23.58,12a5.5,5.5,0,0,1-1-3.63,4.91,4.91,0,0,1,1.12-3.55,4.09,4.09,0,0,1,3.1-1.16,4.51,4.51,0,0,1,.94.08,6.35,6.35,0,0,1,.76.21l.65.29.61.32v-.3a1,1,0,0,0-.15-.64.73.73,0,0,0-.6-.19h-.44V.69Zm-7,7.77a7.62,7.62,0,0,0,.05.85,2.31,2.31,0,0,0,.19.7,1.1,1.1,0,0,0,.37.47,1,1,0,0,0,.6.16,1.16,1.16,0,0,0,.62-.15,1.2,1.2,0,0,0,.38-.45,2.12,2.12,0,0,0,.18-.67,5.58,5.58,0,0,0,.05-.84V6.65a1.85,1.85,0,0,0-1.23-.47.93.93,0,0,0-.6.18,1.3,1.3,0,0,0-.37.51,2.51,2.51,0,0,0-.19.73A8.11,8.11,0,0,0,27.27,8.46Z"/><path class="cls-1" d="M42.41,3.78V9a.82.82,0,0,0,.27.73,1.37,1.37,0,0,0,.7.17h.23V13h-7V9.88h.33a.78.78,0,0,0,.65-.28A1,1,0,0,0,37.78,9V7.82a.83.83,0,0,0-.3-.71,1.12,1.12,0,0,0-.71-.23h-.18V3.78Zm-4.76-2A1.63,1.63,0,0,1,38.19.51,2.22,2.22,0,0,1,39.75,0a2.26,2.26,0,0,1,1.58.51,1.6,1.6,0,0,1,.55,1.22A1.61,1.61,0,0,1,41.33,3a2.26,2.26,0,0,1-1.58.51A2.22,2.22,0,0,1,38.19,3,1.64,1.64,0,0,1,37.65,1.73Z"/><path class="cls-1" d="M56.35,14.49a2.35,2.35,0,0,1-1.63,2.16A11.63,11.63,0,0,1,50,17.4c-.75,0-1.47,0-2.18,0A10,10,0,0,1,46,17.15a3.06,3.06,0,0,1-1.31-.6,1.39,1.39,0,0,1-.5-1.16,1.35,1.35,0,0,1,.38-1,3.41,3.41,0,0,1,.83-.61,1.83,1.83,0,0,1-.74-.72,2,2,0,0,1-.2-.88,1.76,1.76,0,0,1,.41-1.09,5.11,5.11,0,0,1,1.18-1,3.46,3.46,0,0,1-1.15-1.2,3.32,3.32,0,0,1-.4-1.68A3.22,3.22,0,0,1,46,4.38a6,6,0,0,1,1.76-.72A9.31,9.31,0,0,1,50,3.41a9.69,9.69,0,0,1,2.45.29,5.23,5.23,0,0,1,1.87.88,1.93,1.93,0,0,1,.41-.39,2.54,2.54,0,0,1,.55-.28,2.37,2.37,0,0,1,.81-.13h.77v3.1h-.55a.74.74,0,0,0-.55.19.8.8,0,0,0-.22.38,3.77,3.77,0,0,1-1.7,2.68,6.9,6.9,0,0,1-3.84.93,10,10,0,0,1-2.48-.29.35.35,0,0,0-.17.29.48.48,0,0,0,.38.46,4.09,4.09,0,0,0,1,.18q.63,0,1.44,0c.54,0,1.09,0,1.66,0a14.87,14.87,0,0,1,1.65.15,5,5,0,0,1,1.45.42,2.64,2.64,0,0,1,1,.82A2.24,2.24,0,0,1,56.35,14.49Zm-6,.12c-.59,0-1.13,0-1.61,0s-.92-.07-1.31-.12a.51.51,0,0,0-.08.29.76.76,0,0,0,.65.78,6.08,6.08,0,0,0,1.7.19,8.6,8.6,0,0,0,2.07-.17q.66-.16.66-.48c0-.1-.06-.18-.19-.24a1.72,1.72,0,0,0-.49-.13,3.48,3.48,0,0,0-.67-.06ZM48.84,7.22a3,3,0,0,0,.24,1.34A1,1,0,0,0,50,9a1,1,0,0,0,.93-.47,3,3,0,0,0,.24-1.34,2.86,2.86,0,0,0-.24-1.31A1,1,0,0,0,50,5.46a1,1,0,0,0-.93.45A2.86,2.86,0,0,0,48.84,7.22Z"/><path class="cls-1" d="M57.38,8.36a5.16,5.16,0,0,1,.42-2.15A4.19,4.19,0,0,1,59,4.66a5.53,5.53,0,0,1,1.9-.93,9.73,9.73,0,0,1,5,0,5.39,5.39,0,0,1,1.89.93A4.21,4.21,0,0,1,69,6.21a5.15,5.15,0,0,1,.43,2.15A5.14,5.14,0,0,1,69,10.5a4.25,4.25,0,0,1-1.22,1.56,5.25,5.25,0,0,1-1.89.95,9.73,9.73,0,0,1-5,0,5.39,5.39,0,0,1-1.9-.95A4.22,4.22,0,0,1,57.8,10.5,5.14,5.14,0,0,1,57.38,8.36Zm4.74,0a10,10,0,0,0,.06,1.19,2.44,2.44,0,0,0,.21.78.9.9,0,0,0,.38.43,1.16,1.16,0,0,0,.62.14,1.13,1.13,0,0,0,.61-.14.9.9,0,0,0,.38-.43,2.44,2.44,0,0,0,.21-.78c0-.33,0-.72,0-1.19a5,5,0,0,0-.26-2,1,1,0,0,0-1-.57,1.39,1.39,0,0,0-.62.13.9.9,0,0,0-.38.43,2.44,2.44,0,0,0-.21.78A10,10,0,0,0,62.12,8.36Z"/></g></g></svg>