<svg xmlns="http://www.w3.org/2000/svg" viewBox="0 0 64.78 12.65"><defs><style>.cls-1{fill:#fff9e5;}</style></defs><title>Fichier 6</title><g id="Calque_2" data-name="Calque 2"><g id="Calque_1-2" data-name="Calque 1"><path class="cls-1" d="M1.15,8.27a2.09,2.09,0,0,0,.13.66,1.48,1.48,0,0,0,.34.58,1.69,1.69,0,0,0,.61.39,2.7,2.7,0,0,0,1,.14A3,3,0,0,0,4.3,9.86,1.68,1.68,0,0,0,5,9.38a1.65,1.65,0,0,0,.36-.68,3,3,0,0,0,.1-.79v-4a.72.72,0,0,0-.29-.64A2.38,2.38,0,0,0,4,3.09V0h7.75V3.09a2.09,2.09,0,0,0-1.05.2.8.8,0,0,0-.31.74V7.89a5.94,5.94,0,0,1-.23,1.55A3.91,3.91,0,0,1,9.32,11a4.69,4.69,0,0,1-1.63,1.17A6.64,6.64,0,0,1,5,12.62a6.24,6.24,0,0,1-2.52-.43,4.14,4.14,0,0,1-1.53-1A3.56,3.56,0,0,1,.21,9.83,4.21,4.21,0,0,1,0,8.63a3.47,3.47,0,0,1,.22-1.3,2.85,2.85,0,0,1,.56-1,2.2,2.2,0,0,1,.79-.56,2.5,2.5,0,0,1,.94-.19,2.43,2.43,0,0,1,1,.18,1.92,1.92,0,0,1,.68.45,1.81,1.81,0,0,1,.38.64,2.28,2.28,0,0,1,.12.73,2,2,0,0,1-.13.75A1.85,1.85,0,0,1,4.18,9a1.53,1.53,0,0,1-.55.39,1.65,1.65,0,0,1-.69.15,2.2,2.2,0,0,1-.73-.11,1.63,1.63,0,0,1-.84-.69A3.61,3.61,0,0,1,1.15,8.27Z"/><path class="cls-1" d="M16.86,4.25a3.91,3.91,0,0,0-.73.06,3,3,0,0,0-.52.15,1.52,1.52,0,0,0-.36.19L15,4.83l.09.09.34-.17a1.34,1.34,0,0,1,.48-.08,1.2,1.2,0,0,1,.85.32,1.29,1.29,0,0,1,.36,1,1.26,1.26,0,0,1-.55,1.07,2.39,2.39,0,0,1-1.46.4A1.88,1.88,0,0,1,13.72,7a1.89,1.89,0,0,1-.53-1.43,2,2,0,0,1,.29-1,2.7,2.7,0,0,1,.88-.91A5.31,5.31,0,0,1,15.87,3a8.08,8.08,0,0,1,2.23-.26A8.93,8.93,0,0,1,20.63,3a4.12,4.12,0,0,1,1.53.75,2.41,2.41,0,0,1,.75,1A3.7,3.7,0,0,1,23.11,6V9.24a7.21,7.21,0,0,0,.05,1,.33.33,0,0,0,.38.28.38.38,0,0,0,.36-.25,2.42,2.42,0,0,0,.1-.85v-1h1V9.46a6.59,6.59,0,0,1-.13,1.33,2.09,2.09,0,0,1-.48,1,2.12,2.12,0,0,1-1,.63,4.7,4.7,0,0,1-1.53.21,4.51,4.51,0,0,1-1.39-.18A2.58,2.58,0,0,1,19.6,12a1.69,1.69,0,0,1-.47-.55,1.2,1.2,0,0,1-.13-.51h-.14a1.35,1.35,0,0,1-.29.65,2.1,2.1,0,0,1-.65.54,4.09,4.09,0,0,1-1,.39,6,6,0,0,1-1.34.14,5.24,5.24,0,0,1-1.3-.14,2.61,2.61,0,0,1-1-.43,2,2,0,0,1-.65-.77,2.54,2.54,0,0,1-.23-1.12,1.74,1.74,0,0,1,.45-1.26A3.15,3.15,0,0,1,14,8.2a8.69,8.69,0,0,1,1.49-.44A13.08,13.08,0,0,0,17,7.34a3.63,3.63,0,0,0,1.14-.62,1.36,1.36,0,0,0,.45-1.09,1.33,1.33,0,0,0-.39-1A1.84,1.84,0,0,0,16.86,4.25Zm1.68,3.61a1.45,1.45,0,0,1-.46.43l-.53.32a1.73,1.73,0,0,0-.44.36.8.8,0,0,0-.19.57.87.87,0,0,0,.15.5.64.64,0,0,0,.58.22.77.77,0,0,0,.64-.3,1.32,1.32,0,0,0,.25-.86Z"/><path class="cls-1" d="M37.25,8.52a.56.56,0,0,0,.23.53,1,1,0,0,0,.52.14h.44v3.09H33.49V10h-.13a2.89,2.89,0,0,1-1,1.94,4,4,0,0,1-2.47.66A4.49,4.49,0,0,1,28,12.26a2.93,2.93,0,0,1-1.11-.82,2.89,2.89,0,0,1-.54-1.08,4.71,4.71,0,0,1-.14-1.08V7A1,1,0,0,0,26,6.37a.75.75,0,0,0-.59-.19h-.5V3.09h5.82V8.35a1.45,1.45,0,0,0,.08.52.75.75,0,0,0,.2.3.59.59,0,0,0,.27.14l.29,0A1,1,0,0,0,32.41,9a1.34,1.34,0,0,0,.26-.9V7a1,1,0,0,0-.15-.63.76.76,0,0,0-.6-.19h-.49V3.09h5.82Z"/><path class="cls-1" d="M47.15,7a1.45,1.45,0,0,0-.08-.52.75.75,0,0,0-.2-.3A.59.59,0,0,0,46.6,6l-.29,0a1,1,0,0,0-.81.32,1.34,1.34,0,0,0-.27.9V8.37a1,1,0,0,0,.16.63.75.75,0,0,0,.59.19h.45v3.09h-7V9.19H40A.63.63,0,0,0,40.48,9a.79.79,0,0,0,.18-.53V6.85a.57.57,0,0,0-.23-.53,1,1,0,0,0-.52-.14h-.44V3.09h5l-.18,2.29h.14a2.85,2.85,0,0,1,1.13-2,4.25,4.25,0,0,1,2.56-.69A4.67,4.67,0,0,1,49.93,3,3,3,0,0,1,51,3.86a2.89,2.89,0,0,1,.54,1.08A4.79,4.79,0,0,1,51.72,6V8.37a1,1,0,0,0,.15.63.78.78,0,0,0,.6.19h.45v3.09H47.15Z"/><path class="cls-1" d="M58.19,8.2a2.63,2.63,0,0,0,.47,1.71,1.61,1.61,0,0,0,1.25.48,2,2,0,0,0,.54-.08,1.66,1.66,0,0,0,.49-.26,1.42,1.42,0,0,0,.38-.48,2,2,0,0,0,.22-.74h3a4.84,4.84,0,0,1-.61,1.8,3.67,3.67,0,0,1-1.15,1.17,4.75,4.75,0,0,1-1.63.64,10.1,10.1,0,0,1-2.07.2,7.92,7.92,0,0,1-2.21-.3,5.25,5.25,0,0,1-1.81-.92,4.2,4.2,0,0,1-1.22-1.54,5,5,0,0,1-.44-2.21,5.29,5.29,0,0,1,.41-2.15A4.22,4.22,0,0,1,55,4,5.3,5.3,0,0,1,56.8,3a7.67,7.67,0,0,1,2.26-.31,7.54,7.54,0,0,1,2.61.4,4.62,4.62,0,0,1,1.78,1.11,4.37,4.37,0,0,1,1,1.73,6.9,6.9,0,0,1,.31,2.24ZM59.42,5a1,1,0,0,0-.86.41,3,3,0,0,0-.37,1.36h2.44a2.7,2.7,0,0,0-.35-1.29A1,1,0,0,0,59.42,5Z"/></g></g></svg>