<svg xmlns="http://www.w3.org/2000/svg" viewBox="0 0 38.84 32.2"><defs><style>.cls-1{fill:#00f9ff;}.cls-2{fill:#f0f;}.cls-3{fill:#fff700;}.cls-4{fill:#00ff48;}.cls-5{fill:red;}.cls-6{fill:#80f;}.cls-7{fill:#ff6d00;}</style></defs><title>Fichier 1</title><g id="Calque_2" data-name="Calque 2"><g id="Calque_1-2" data-name="Calque 1"><path class="cls-1" d="M31.07,5.27C33.48,9.2,29.48,8.2,27.48,9.2c0,0,1,1,.52,1a4.44,4.44,0,0,1,.34.5,1.08,1.08,0,0,1,.14.5,1.63,1.63,0,0,1-1-.52,1.09,1.09,0,0,1-.32-.61c-.68-.87-1.68-2.87.32-3.87a2.15,2.15,0,0,0,2,2c-1-2-3-3-3.25-5a1.93,1.93,0,0,0-.09-.56c-1-3.14-3.76-.44-5.66-.44-.5,0-.25.75-.12,1.5a1.94,1.94,0,0,1,0,.76c.12.74.12.74-.89.76,0-.14,0-.3.05-.47.14-1.24.54-3.47-2.43-2.89L16.34,2a4.76,4.76,0,0,0-2.86,1.2c1,0,1-1,.86-1.77a1.25,1.25,0,0,0-.2-.6C13.7.2,12.81.2,11.48.2a2.8,2.8,0,0,1,1,1.21,3,3,0,0,1,.2.72,7.82,7.82,0,0,1-.82,2.94l-.5.47C7.48,5.2,8.48,9.2,6.58,11.42a3.78,3.78,0,0,1,.13.47c.4,2.19-2.29,1.31-3.23,1.31a3.46,3.46,0,0,0,1.27,1.28,2.15,2.15,0,0,1,.5.4,20.38,20.38,0,0,1,1.68,2c.12.16.23.32.34.49.21.85.21,1.85,1.3,2.14a1.83,1.83,0,0,0-.28.72c-.4,2.18,1.49,3,4.19,3a12.45,12.45,0,0,1-.17,2.67,3.87,3.87,0,0,1,0,.61c-.85,1.72-.85,4.72,2.15,3.72,1-1-4-2-1.47-3.63a4.06,4.06,0,0,1,.47-.37,3.84,3.84,0,0,1,.59-.33c.41-1.67,1.41.33,1.92-.53l.63,0a16.72,16.72,0,0,1,3.35.39,3.72,3.72,0,0,1,.65.18c.86-.69,1.86,1.31,1.62-.57a2.37,2.37,0,0,0-.21-.58,2.66,2.66,0,0,1-.13-1.53,5.08,5.08,0,0,1,.15-.52l.36-.36a2.74,2.74,0,0,1,.4-.34c1.67.21,1.67-2.79,3.87-2.91a3.41,3.41,0,0,0,.6-.26c.4-.22.8-.42,1.2-.62a4.39,4.39,0,0,1-1-.11,2.13,2.13,0,0,1-.73-.32c-.24-.57-.24-1.57-1.06-1.87a5.6,5.6,0,0,0-.1-.72,4.9,4.9,0,0,0-1.28-3,6.55,6.55,0,0,0-.72.05l-.66.07-.64,0c-1.78-.17.22-3.17-.78-3.17s-2.18,0-3.55,0H17c-2.56,1-4.56,0-6.56-2,1,2,3,5-.81,6a3,3,0,0,0,0,.81,9,9,0,0,0,.85,3.15,16.38,16.38,0,0,1-.12-2.75,1.24,1.24,0,0,1,.25-.62c1.87-2.63,2.87,1.37,4.87,1.37,1,1-2,1-.81,1.95-.11.18-.19.4-.29.61A7.05,7.05,0,0,1,13,19.68a3.35,3.35,0,0,0-.29.86c-.37,2,1.39,2.66,3.79,2.66a2.15,2.15,0,0,0-2-2c2-3,4,0,5,0,1,2-3,2-2.87,4.07.09.23.21.33.35.35.9.15,2.77-2.67,3.52-.42H16.82a5.91,5.91,0,0,1-.6,0c1.26-2,4.26-3,1.26-5h-3c0,1,2,2,2,2,0,2-2,0-3,1,0-.62-.78-1.64-.9-2.65a1.27,1.27,0,0,1,.06-.63c-.16-.72.84-1.72,1.84-1.72-1,0-2,1-2.38,2.38a2,2,0,0,0,.23.59c.4.78,1.15,1.53,1.15,2h3c0-1-2-2-1-3s3,1,4,1c1,1-1,2-2,3a2.15,2.15,0,0,0,2-2c-2,0-2-4-4-3s0,3,1,4c-2.8,0-3.64-1-3.57-2.6a5,5,0,0,1,.09-.73,16.73,16.73,0,0,1,.89-2,6.15,6.15,0,0,0,.28-.71c1.31-3-1.69-3-3.22-2.72a2.8,2.8,0,0,0-.56.47,5.14,5.14,0,0,0-.91,1.29,2.47,2.47,0,0,1,0-2,1.81,1.81,0,0,1,.32-.46c.66-.52,3.66.48,2.66-2.52a2.15,2.15,0,0,1-2,2c2,1,4-2,6,0,1,2,0,3-1.86,3.64a3,3,0,0,0-.67.55,3.88,3.88,0,0,0-1.37,2.55,2.57,2.57,0,0,0-.09.69c0,.21,0,.41,0,.57,1-1,1,2,2,1,0-1-1-3,1-3s3,2,4,3c0,1-3,1-2.87,3.07.09.23.21.33.35.35.9.15,2.77-2.67,3.52-.42h-4c0-2,5-2,2-5-1,1-4-3-4,1,0,1,1,1,2,1-2,1-3,0-4-2a1,1,0,0,0,.7-.22.83.83,0,0,0,.25-.53,2.72,2.72,0,0,1,.87-1.75,2.9,2.9,0,0,1,.56-.47c1.62,0,1.62-2,1.62-3-2,0-3-1-5-2,1,1,2-2,3-1-2,0-3,1-4.49,2.6a5.8,5.8,0,0,0-.28.73,5.91,5.91,0,0,0-.23,1.67,6.88,6.88,0,0,0,.77-1l.41-.62c.82-.35,1.82-2.35,2.82-1.35,2,1,1,3,1.1,3.64a3.58,3.58,0,0,0-.25.52,18.73,18.73,0,0,1-.76,1.72,4.68,4.68,0,0,0-.2.61,3.29,3.29,0,0,1-.89,1.51c1,1,2,3,4,2,0-1-2-2-2-2,0-2,2-1,3-1,2,1,0,3,1,4.5a3.81,3.81,0,0,0,.52.47,1.3,1.3,0,0,0,1.48,0,2.26,2.26,0,0,1-2.37-.12,5.62,5.62,0,0,1-.57-.4,10.44,10.44,0,0,0,1.82-4c.06-.24.12-.48.54-.23.58-.21,2.58,1.79,3.58-.21-2,0-3,0-4-2,1,1,1,3,3,2,3-1-1-3,0-4,1,0,3,0,3,2,1-1-2-1-1-2-1,0-3-1-3,2,1,2,2-1,2,0,0,5-3,0-4.84,1a1.88,1.88,0,0,0-.09.71,1.46,1.46,0,0,0,.93,1.26c-2,1-2-2-4-2,0,2,3-1,3,1-1,1-3-3-4,1,0,2,3,1,2,2-3.2,1.6-3.84-.64-3.73-2.89a2,2,0,0,1,.07-.45,18.22,18.22,0,0,1,1.08-2c.13-.23.26-.47.37-.71,1.21-4-2.79-5-4.4-3.54a1.51,1.51,0,0,0-.37.49c-.52,1,.23,2.34,1,3.09-1.14-1.43-1.39-2.53-1.13-3.44a1.62,1.62,0,0,1,.31-.63c3.82.07.82-4.93,4.82-4.93-2,1-3-3-5-2-1,1-1,2-1,4,0-2,0-3,1-4,2-1,3,3,4.9,2l.64.18c2.57.6,5.78.33,7.72,3.56a2.85,2.85,0,0,0,.58-.12,4.45,4.45,0,0,0,1.06-.5c.17-.1.34-.21.56-.32s.45-.16.57-.08a1.6,1.6,0,0,0,.3.67c.67,1.58,2.67.58,3.67.58-2.1,0-2.24,2.45-3.16,3.58a.81.81,0,0,1-.51.33c-1.33-1.91-3.33-1.91-4.33.09,2,0,4-1,5.07,1.87a.86.86,0,0,0,.45.13h.48a4,4,0,0,1-.42.67,2,2,0,0,1-.47.46c-.11,1.87-3.11.87-3.15,2.6a2.5,2.5,0,0,0-.48.56,9.27,9.27,0,0,1-1.48,1.71h2a2.81,2.81,0,0,1-.56.58,7.69,7.69,0,0,0-2.28.88l-.85.08c-1.43.08-2.95-.08-4.21,0a5.6,5.6,0,0,0-.6.05,3,3,0,0,0-.54.1,2.36,2.36,0,0,0-.88.39,3.28,3.28,0,0,0-.41.42c-.67.52-.67,1.52-.67,2.52-3-1,1-2-.14-2.61a1.3,1.3,0,0,0,0-.43,1.84,1.84,0,0,1-.14-.69c.24-3.1-5.17-2.36-4-5.51a1.34,1.34,0,0,1,.3-.47c-1.09-.29-1.09-1.29-1.29-2.15l-.34-.49a19.93,19.93,0,0,0-1.65-2,6.55,6.55,0,0,0-.39-.55,1.85,1.85,0,0,1-.42-1.11c0-1,3,1,2.85-1,0-.17.23-.14,0,0a.89.89,0,0,1-.18.69c-.64.71-2.72-.54-2.72.29a1.85,1.85,0,0,0,.42,1.11,4.84,4.84,0,0,1,.39.55,15.39,15.39,0,0,1,2.49,4.4,6.18,6.18,0,0,1,.28.64c-.58,4.3,5.42,2.3,4.57,5.4a1.1,1.1,0,0,0-.22.73,3.87,3.87,0,0,1,0,.59c.07.58.07,1.58.07,2.58a17.78,17.78,0,0,1,.13-2.75,2.55,2.55,0,0,1,.29-.57,4.37,4.37,0,0,1,3.58-1.68c-6,0-6,1,.13.71l.61.11a21.53,21.53,0,0,1,2.52.7,3.65,3.65,0,0,1,.59.22c1.15-.74,2.15,1.26,1.66-.78-.14-.18-.29-.38-.43-.59a3.17,3.17,0,0,1-.49-1.05,1.76,1.76,0,0,1,0-.69c-.19-.21-.1-.57,0-1a.46.46,0,0,1,.26-.25c3.12.58,3.12-2.42,3.12-4.42-1,0-4-1-3,2,0-2,2-2,3-2v0c1-1,2,0,2,1-1-2-3-2-5-2a3.73,3.73,0,0,1,2.92-1l.58,0h2.5c0-1,0-3-1.61-3.44a4.57,4.57,0,0,1-.42-.51c-2-.52-4,0-5.9,0a3.71,3.71,0,0,1-.74-.07C16.48,10.2,8.48,2.2,8.48,10.2c0-2,0-3,1-4,2-1,2,2,4,2-1-1-2,1-2-1-1,2,2,5-2,5.91a3,3,0,0,0-.31.65,4.82,4.82,0,0,0,.26,3.44c1.75-.87-1.09-2.51.18-3.58a.78.78,0,0,1,.39-.16c1.43-.26,7.43.74,4.49,3.82-.08.2-.18.39-.27.6-.2.41-.42.86-.63,1.37a2.05,2.05,0,0,1-.3.47c-.36.48-.86,1-.86,1.48,1,2,2,2,4,2a2.15,2.15,0,0,0-2-2c2-3,4,0,5,0,1,2-3,2-2.87,4.07.09.23.21.33.35.35.9.15,2.77-2.67,3.52-.42h-4c0-2,2-2,3-2-1.86-4.64-7.16,1.93-6.38-3a4.85,4.85,0,0,1,.13-.64c.25-1.34.25-1.34,1.25-1.34-1,0-2,1-2.38,2.38a2,2,0,0,0,.23.59c.4.78,1.15,1.53,1.15,2h3c0-1-2-2-1-3s3,1,4,1c1,1-1,2-2,3a2.15,2.15,0,0,0,2-2c-1-2-3-2-5-2a2.15,2.15,0,0,0,2,2c-1,3-3-1-4,0a7.59,7.59,0,0,1,.11-1.55,4.17,4.17,0,0,1,.14-.56c.3-.76,1-1.69,1.45-2.66a7,7,0,0,1,.42-.67c-.12-.56-.12-1.56.88-1.56-1-2-3-2-4.52-.81a2.73,2.73,0,0,0-.57.5,5.66,5.66,0,0,0-.91,1.31A3,3,0,0,1,9.5,14a1.42,1.42,0,0,1,.34-.52c1.64-.27,2.64-3.27,4.64-2.27s3,3,2,5c-1,0-1-1-1-2-1,1,1,3-.83,3.07a3.39,3.39,0,0,0-.32.56,12.08,12.08,0,0,0-.58,1.29,3.19,3.19,0,0,0-.05.42c-.16,1.6,0,2.91.78,3.66,2,0-1-3,0-4s3,0,4,1c-1-1-2-1-4-1a3.29,3.29,0,0,0,2-1c.17-.15.39-.28,1.06.06a3.64,3.64,0,0,0-.76.34c-.61.35-.8.63.7.63q.3,0,.6,0a3.4,3.4,0,0,1,.66,0c1.74.06,2.74,5.06,4.74.06-6,3-1-6-4.51-8a4.1,4.1,0,0,1-.34-.51,1.11,1.11,0,0,1-.15-.51,1.9,1.9,0,0,1-.73.09C16.48,9.2,12.48,12.2,12.48,8.2a3.66,3.66,0,0,0,4,4c-3-2-4-1-6.5,1.63a2.61,2.61,0,0,0-.24.54,3.34,3.34,0,0,0,.74,2.83c-3-1-1-3-1-4,0,1-2,3,1,4a2.15,2.15,0,0,1-2-2A8.77,8.77,0,0,1,9.2,14c.14-.19.29-.39.45-.58,2.83-1.23,6.83-2.23,1.83-6.23,4,2,7,10,10.93,5.78.1-.17.2-.32.29-.45.28-.39.53-.58.78-.33a2.61,2.61,0,0,1,.28.52,5.45,5.45,0,0,1,.22,1,3.72,3.72,0,0,1,0,.87c-1.54.63-4.54,1.63-3.54,4.63,1-1,3,1,3-1,0,1,1,3-2,3-1,0-2-2-3.14-2.29a3.37,3.37,0,0,0-.48.05,23,23,0,0,1-3.38.24,3.79,3.79,0,0,0,2.45-.59,5,5,0,0,1,.48-.45,1.5,1.5,0,0,0-.07.75c.27,2.4,2.56,2.91-.36,6a.75.75,0,0,0,.5.19c.67,0,1.33-.89,2-.89a1.56,1.56,0,0,0,.29-.37,1.46,1.46,0,0,0,.23-.42c.48-2.21-1.52-2.21-2.52-2.21l1-1h-4c0,1,1,1,2,2,1,2-1,0-2,1h3c-1,0-2-2-3-2,0-2,2-1,3-1,4,3-2,3-2,5a3.62,3.62,0,0,0,1.29-.2,5.13,5.13,0,0,1,.67.09c1.46.26,2.83.82,3-1.34,0-.16.06-.37.1-.6-.08,1.05-3.08-.95-1.08.87a2.27,2.27,0,0,1,.5.31c.5.37,1,.87,1.5.87-1.75,0-3.5.77-4.58.29a1.44,1.44,0,0,1-.42-.29c0-2,4-2,3-4-1-1-3-3-5-2,1,1-1,3,1,3-1,0-3,0-3-1a3.71,3.71,0,0,0,.93-1.54c.07-.18.12-.37.24-.63a3,3,0,0,1,.51-1.69,1.88,1.88,0,0,1,.43-.51c1.89-.63.89-2.63.89-3.63h-5a2.15,2.15,0,0,0,2-2c0,2-2,2-2.66,2.52a1.81,1.81,0,0,0-.32.46,2.47,2.47,0,0,0,0,2,7.21,7.21,0,0,1,.71-1.55,2,2,0,0,1,.48-.55c.81.1,1.81-1.9,2.81-.9s3,2,1.1,3.82a4.06,4.06,0,0,0-.33.66c-.2.48-.43,1-.65,1.44-.08.22-.13.39-.19.57a3.81,3.81,0,0,1-.93,1.51,3.67,3.67,0,0,0,3,1c-2,0,0-2-1-3,4,0,5,2,3.53,5.42a2.05,2.05,0,0,0,.47.29,4.8,4.8,0,0,0,2,.29,1.94,1.94,0,0,1-1.43-.53,1.17,1.17,0,0,1-.3-.57c.73-2.9-.27-4.9-3.27-3.9-1,1,1,2,1,3-2,1-3-1-4-2,1,1,2,3,4,2,0-1-2-2-1-3s2,1,3,1c1,2-2,2-2,4h2a6.68,6.68,0,0,1-1.15-.08.79.79,0,0,1-.52-.26c.67-.66,1.67-.66,1.67-1.66,0-2-1-4-3-3-1,1,1,2,1,3h-3c-1.25-.62-.94-1.64-.6-2.69.07-.21.14-.43.2-.64.16-.67.58-1.55.89-2.49a4.71,4.71,0,0,1,.25-.67c1.26-3.51-1.74-4.51-4.29-3.09a1.6,1.6,0,0,0-.45.58c-1,1,1,2,1,3-1.14-1.43-1.39-2.53-1.13-3.44a1.62,1.62,0,0,1,.31-.63c3.82.07.82-4.93,4.82-4.93-2,1-3-3-5-2-1,1-1,2-1,4,2-2,3-1,3,1-1,1-2,2-3,2,0-2,3,0,3-1s1-4-2-4c-1,0,1,3-1,2-1-1,0-3,1-4,3,0,5,4,8,3l.77-.06c1.77-.08,3.29.25,3.34,3.42a3.06,3.06,0,0,0,.56.07A7.28,7.28,0,0,0,24,12.45a3.42,3.42,0,0,0,.66-.12c2.84,1.87.84,5.87,4.84,4.87-1.2.6-2,1.92-3.07,3a5.23,5.23,0,0,1-.5.46c.57,1.56-2.43-.44-2.28,1.51-.09.16-.18.3-.27.44-1.68,2.67-3.29,2.78-6,2.69l-.87,0a4.45,4.45,0,0,0-3,.69,3.6,3.6,0,0,0-.3.51,4.08,4.08,0,0,0-.63,2.75c0-1,0-2,0-2.69,0-.23,0-.45.05-.64,1.9-4.67-7.1-.67-4.79-5.29a2,2,0,0,0-.14-.85c-.87-1.94-.94-4.11-2.48-5.26L4.6,14.1a7.24,7.24,0,0,1-1.12-.9,3.8,3.8,0,0,0,3.27-1.33.3.3,0,0,1,.37-.27c-2.64-4.4,1.36-5.4,4.18-6A3.09,3.09,0,0,1,11.38,5a3.69,3.69,0,0,1,.23-.6c.87-.2.87-1.2.87-1.78A2.09,2.09,0,0,0,12.61,2,2,2,0,0,0,11.48.2,4.13,4.13,0,0,1,14,.76a1.69,1.69,0,0,1,.45.54c1.06,4.9,1.06-3.1,1.71.3l.79-.15a2.76,2.76,0,0,1,.55-.07c2,3.82,7-2.18,8.7,1.43a.79.79,0,0,0,.21.34c1.1,2.05,2.1,3.05,3.1,5-1,1-2-4-2-1-1,1,0,2-.71,3.32-.12.27-.19.48-.29.68h3c.33-.33.11-.55-.3-.77-.2-.12-.45-.23-.7-.35,0,.12-1-5.88-1,.1a3.2,3.2,0,0,0,0,.52v.5c-.05-.15-.09-.29-.13-.44a1,1,0,0,1-.05-.47c.18-4.09,3.18-1.09,4.18-2.09,1-2-2-2-2-4,1,1,3-1,4.43.66a2.33,2.33,0,0,0,.57.34,2,2,0,0,1,.19.6c0,.2-.13.41-.43.43-.76,0-1.76-2-2.76-2,3,0,2,2,2.08,4.46a.7.7,0,0,0,0,.5,14,14,0,0,1,1.65,3.49c.07.17,0,.35.24.55-.17-.16-.2-.21-.34-.19a.67.67,0,0,0-.41.25,3.69,3.69,0,0,0-.29.5c-.29.55-.61,1.16-1.27.88a1,1,0,0,0,.31.56c1,2,3,1,5,0,.75,2.25-1.31,2.25-2.4,2.81a2.54,2.54,0,0,0-.47.3c-1.13-.11-2.13-2.11-4.13-1.11.63,1.25-.7,2.11-1.05,3.07-.07.19-.11.39-.18.6.23.33,1.23-.67,1.05-.37a2.72,2.72,0,0,1,.31-.67c.37-.63.87-1.13.87-1.63a10.47,10.47,0,0,1,.45,2.36,1.11,1.11,0,0,1,0,.48,1.32,1.32,0,0,1-.21.58c.52,1.06-.64.52-1.47.64a7,7,0,0,1-.7.11c-2.05,2.83.95-.17.79.65a2.58,2.58,0,0,1,.74,0c1.84.3,2.74,2.46,4,3.63a2.06,2.06,0,0,0,.68-.11,2.6,2.6,0,0,0,.73-.36c-.25-.12-.48-.25-.7-.37s-.42-.26-.61-.39c-1.69-.24-1.69-1.24-2-2.86.08-.11.35-.13.35-.38,0,.17-.26.17-.43.24-.93,0-1.71,0-2.32,0l-.81,0c-.44-.26-.44.74,0,.4a2.27,2.27,0,0,0,.59.23c.73.07,1.72.11,3,.11-1-1-3,1-3-1a2.53,2.53,0,0,0,1.71-.36.91.91,0,0,0,.35-.56c0-.2.06-.39.08-.58a3.6,3.6,0,0,1-.26-.58.81.81,0,0,1,.12-.92c.83-.83,1.67,1.11,2.5,1.79a.86.86,0,0,0,.5.21.48.48,0,0,0,.2-.42c-.09-.6-2-.74-1.2-1.58-1.67,0-1.94,0-2,1.16,0,.24-.07.53-.13.89.06-.27.09-.47.12-.64V19.2A11.71,11.71,0,0,1,36,20.88a5.4,5.4,0,0,1,.53.55c0,.39-.57.83-1,1.3a1,1,0,0,1-.42.33c-5.72.14.28,1.14.77,1.2.18.06.34.13.51.2a5.43,5.43,0,0,0,2,.74c1,1-1,2-1,3a1.78,1.78,0,0,1-1.68-.28c-.2-.12-.42-.25-.63-.4-1.06-1.23-2-1.54-2.81-1.38-.21,0-.42.08-.56-.19-.32.25-.32-.75-.32-.75-1,1-2,3-3,3-5,0-8,0-11,4,1-2-1-4-1.48-5.8l-.52-.2a1.36,1.36,0,0,1,.54.56c.46,3.44-.54,5.44-2.54,4.44-2,0-3-3-6-3a2,2,0,0,1,.08-.51.76.76,0,0,1,.58-.61c-1.66-1.88-5.66-2.88-4.3-6.73a5.44,5.44,0,0,0-.15-.61,4.33,4.33,0,0,0-.21-.54,1,1,0,0,0-.49.15,2.4,2.4,0,0,0-.58.49,5.34,5.34,0,0,0-.48.61c-.45-.25-1.45.75-1.93.26a.85.85,0,0,0,.23-.63c0-.63.25-1.38.25-1.88.63-1.87,2-.62,3.14-.08.22.11.43.19.59-.28-.28,0-.55-.05-.81-.07C1.53,17.61-.22,16.7.48,20.2,1.81,18.87,2.7,18.65,3.36,19a.86.86,0,0,1,.39.41c.08.17.16.35.26.54a1.68,1.68,0,0,1,.22.56c-.75,3.67,5.25,2.67,5.39,6.38.19.15.39.3.58.43,3.28,6.86,15.28-2.14,21.28-2.14-2-1-3,1-4,3,2,1,2-5,4.33-1.25a3.79,3.79,0,0,0,.78-.1,3.94,3.94,0,0,1,2.67.47,1,1,0,0,0,.65.35,2.64,2.64,0,0,0,2.57-.47c.6-1.2-1-1.68-2.09-2.52a3.87,3.87,0,0,1-.52-.47c-.39,0-.39-1-.53-1.21a2.54,2.54,0,0,1,.14-.8,2.32,2.32,0,0,1-.72.44.58.58,0,0,0,.46-.18l1.26-1.26s-1,0-.62-.37a4.36,4.36,0,0,0-.32-.61c-.37-.53-.93-.77-2.06,0,.17.17.31.34,0,1-.06-.27-.11-.54-.18-.78a1.18,1.18,0,0,1,.18-1.26c1,0,3,0,3,2,0-2-1-2-3-2a3.86,3.86,0,0,1,.29.75,2.79,2.79,0,0,1,.12.75,3.7,3.7,0,0,0-.42,1.09,2.48,2.48,0,0,0-.57.2,10,10,0,0,0-1.42,1.21c2,0,3,1,4.42,2.5a1.39,1.39,0,0,0,.58.5.57.57,0,0,0-.17-.37,6.92,6.92,0,0,1-.41-.58c.58-1.05-3.42-1.05-.95-2.72.17-.1.34-.2.53-.33a1.71,1.71,0,0,1-.58.42c-.42.58-.42.58-1.42.58,2,0,1,2,2.57,2l.7.34c.42.19.73.37.73.62a3.59,3.59,0,0,1-.81.31,2.78,2.78,0,0,1-.73.1C35.66,24,33.75,24,32.25,23.72a1.83,1.83,0,0,1-.8-.32c-1-.2-1-.2-1.07-1.48.05-.18-.09-.31-.29-.43a2.84,2.84,0,0,0-.61-.29s1,0,.75-.46c.07-.23.12-.46.19-.69.56-1.86,2.22-3.89,4.53-2l.59,0a7.42,7.42,0,0,1,.8-.38c1.14-.45,2.47-.45,1.14-.45-1.2-.6-2.76-1.2-3.49-2.3a.86.86,0,0,1-.14-.56,5.11,5.11,0,0,1,1.63-.14,3.47,3.47,0,0,0-.26-.45q-.13-.23-.3-.45c1-1.31-.61-3-1.16-4.62A4.49,4.49,0,0,1,33.84,8a6.78,6.78,0,0,1-.36-2.77s1,1,1.19.63a2,2,0,0,0-.19-.63A.91.91,0,0,0,34,5a4.25,4.25,0,0,0-.58-.56c-.89.81-1.89-1.19-2.89-1.19,0,1-2,2-1,3h2c1,1-1,2-1,3a3.67,3.67,0,0,0-3-1v2c0-3,6,1,4.29-4.29A3.11,3.11,0,0,0,31.07,5.27Z"/><path class="cls-2" d="M18.84,29.05c4.64.15,7.64-7.85,12.89-4.94a1.28,1.28,0,0,0,.43.33A13.43,13.43,0,0,1,35.6,27a2.56,2.56,0,0,0,.85-.24,7,7,0,0,0,2-1.51,4.56,4.56,0,0,1-1.88-.37,3.75,3.75,0,0,1-.49-.25c-1.63-.38-1.63-1.38-2.63-2.38,1,0,1,0,1.61,0,.18-.1.39-.19.61-.3a4.73,4.73,0,0,0,.67-.4.72.72,0,0,0,.11-.34.57.57,0,0,1-.11.33,9.24,9.24,0,0,0-.77.53,4.52,4.52,0,0,0-.59.44c-.53-.3-1.53-.3-1.53.7A3.36,3.36,0,0,1,36,25.06a2,2,0,0,0,.48.38c1.42.56,3,.76,2,.76a4.08,4.08,0,0,1-2.73.26,1.84,1.84,0,0,0-.26-.58c-.84-1.95-1.85-1.87-2.88-1.33a6.74,6.74,0,0,0-.63.36c-.5-1.71-2.5-.71-3.5-.71,0,4,3,1,3.61,2.46a3.61,3.61,0,0,1,.62-.24,2.51,2.51,0,0,1,2.67,1,5.57,5.57,0,0,0,.7.18c.65.14,1.15.07,1.4-.43,3-4-4-3-.84-5.71a.51.51,0,0,0-.17-.32,7,7,0,0,0-3-2,3.22,3.22,0,0,0,.08.71,4.83,4.83,0,0,0,.22.64c0,.2-.07.4-.1.59a5.43,5.43,0,0,0-.06.55c-1.14.51-1.14,1.51-.14,2.51,0-2,0-2-2-2,1,1,3,1,4.63,2.25a1.81,1.81,0,0,1,.56.26c.47.34.56,1-.19,2.49a3,3,0,0,0-.38-.57l-.23-.35c-.27-2.85-2.31-2.73-3.86-3.08a5,5,0,0,1-.62-.2c.09.2-.91-.8-.91-.8h.59a1.94,1.94,0,0,0,1.06-.34,1.15,1.15,0,0,0,.53-.44c.05-.15.1-.31.17-.47s-.09-.49-.13-.73a11.94,11.94,0,0,1-.22-2c-.5.5,0,1.5.13,2.38a.86.86,0,0,1-.12.59,4.05,4.05,0,0,1-.52.44c-.06.7-.13,1.31-.2,1.84,0,.17-.05.34-.13.37-2.16.38-3.16.38-1-1.56,0-.22,0-.44,0-.68s.14-.48.23-.84a3.93,3.93,0,0,0,.27-.71c.62-2,1.43-3.29,4.66-1.68l.56-.11c.69-.15,1.13-.37,1.13-1A7.58,7.58,0,0,1,34,15.36a2.17,2.17,0,0,1-.36-.55,2.5,2.5,0,0,0,1-1.05,1.31,1.31,0,0,0,.09-.51c1-1.11-.67-2.5-1.59-3.88a2.91,2.91,0,0,1,.24-.84,5.06,5.06,0,0,0-1.9-4.33c1,0,2,0,2.41,1.39.16.22.31.47.41.43-.06-.09-.21-.46-.42-.77-1.4-2-3.4-1-4.4-1-1,1,3,2,2,4-2,3-3-2-4-1a17.27,17.27,0,0,1-.26,3.43c.07.18.16.37.26.57v-.48c0-.15,0-.3,0-.44-1-5.08,4,.92,4-2.08,0-1,1-3-1-3h3c-2,1-3,5-5.76,4.42a1.25,1.25,0,0,0,.06.68,4.59,4.59,0,0,0,.7.9A2.93,2.93,0,0,1,27,10.91a.57.57,0,0,1-.31-.39c-1.25-1.32.75-2.32.75-3.32,1-1,1,2,2,1,0-1-4-2-2.9-5.07,0-.15-.11-.28-.16-.44-2.94-3.49-4.94.51-6.94.51,1,0,2,0,1-1a5,5,0,0,1-3-.68,3.74,3.74,0,0,0-.66.05c-1.31-3.37-1.31,3.63-2.27-.3a1.56,1.56,0,0,0-.31-.52C13.7.2,12.81.2,11.48.2A3.57,3.57,0,0,1,12.43,2a2.66,2.66,0,0,1,.05.7,3.36,3.36,0,0,1-.84,2.44,3.22,3.22,0,0,1-.52.43C9.48,6.2,5.48,6.2,7,11.65c-.1,0-.09.23-.12.44-.4,2.11-2.4.11-3.4,1.11a5.68,5.68,0,0,1,1.74.94,1.46,1.46,0,0,1,.4.46,6.31,6.31,0,0,1,1.51,2.47l.23.6a3.21,3.21,0,0,0,.49,1.21c.1.22.19.44.3.65-.67,2.67,2.33,2.67,3.33,4.67-1-2-4-2-3.34-4.68-.11-.22-.21-.44-.31-.66a4.76,4.76,0,0,1-.53-1.25c-.09-.2-.17-.41-.26-.62a7.32,7.32,0,0,0-1.76-2.68,6.85,6.85,0,0,1-.44-.53,4,4,0,0,1-.36-.58c1,0,2,0,1.81-1.28a2.81,2.81,0,0,0,0-.77,1.19,1.19,0,0,1,0-.46C8.48,9.2,6.48,5.2,11,5.83a1.2,1.2,0,0,0,.67-.46c.84-.17.84-1.17.48-2.14,0-.3,0-.57,0-.84A5.18,5.18,0,0,1,12.48.2c.5-.5.5,0,.67.67a3.39,3.39,0,0,0,.25.69,9,9,0,0,1,.08,1.64,4.7,4.7,0,0,1,3-1.18,7.17,7.17,0,0,1,.81-.08c3.16,1.26,6.16-.74,9.16-.74-3-1-5,1-7,2,1,0,2,0,1-1a10.92,10.92,0,0,1-3.2-.34L16.46,2a4.87,4.87,0,0,0-3,1.21,5.94,5.94,0,0,1,.11-1.59,4.3,4.3,0,0,1-.1-.67c0-.24,0-.49,0-.74-.17.5-.3,1-.44,1.42-.06.23-.13.44-.21.68.65.9-1.35,1.9-1.31,2.73a3.33,3.33,0,0,1-.46.46C7.48,6.2,7.48,8.2,7.34,12a1.23,1.23,0,0,0-.34.39c-.85,1.51-2.6-.09-3.52.82a3.36,3.36,0,0,0,1.27,1.27,2.24,2.24,0,0,1,.51.41,6.22,6.22,0,0,1,1.93,2.17c.1.19.19.4.28.61,1,.54-1,1.54.61,1.68a2.29,2.29,0,0,1,.11.73c.29,6.13,6.29,2.13,8,5.05a3.42,3.42,0,0,0,.73.21c3.05.61,5.37-.16,7.91-3.27l.24-.31c.1-.16.2-.31.66-.93a2.8,2.8,0,0,0,.54-.24c4.9-2.52,1.12-4.54-.65-8.89a4,4,0,0,0-.46-.22,3.28,3.28,0,0,0-.64.23,9.66,9.66,0,0,1-1.79.6,4.25,4.25,0,0,1-.61.08A28.39,28.39,0,0,1,18.44,10l-.63-.37c-1.33-1.4-3.33.6-2.92-1a.88.88,0,0,0,.23-.45A.43.43,0,0,0,15,7.76a1.85,1.85,0,0,0-.56-.17,3.31,3.31,0,0,0-.55-.07C10.48,6.2,8.48,5.2,7.48,9.2c2,0,1-3,3-3,2,1,3,2,3,4a1,1,0,0,1-1-1c-1,2,0,4-2.83,4.4a4.23,4.23,0,0,0-.24.68,4.94,4.94,0,0,0,.07,2.92,4,4,0,0,1,.58-2.5,4.46,4.46,0,0,1,.42-.5c2,0,4,0,5,3,0,0-1,0-.79.08-.11.18-.21.39-.33.59a7.66,7.66,0,0,1-1.44,1.79,2.82,2.82,0,0,0-.21.52c-.61,2.56,1.22,3.87,3.77,3,0,0-2-2-1-3s2,1,3,1c-1-1-3-2-4-1,0,1,2,2,2,2,0,2-2,0-3,1,0-.62-.78-1.64-.9-2.65a1.27,1.27,0,0,1,.06-.63c-.16-.72.84-1.72,1.84-1.72A2.83,2.83,0,0,0,12.19,20a.9.9,0,0,0-.1.59c.22.94,1.39,2,1.39,2.58h3c0-1-2-2-1-3s2,1,3,1a7.08,7.08,0,0,1-.59,3.29l.52.29c1,.5,1.82,1,3.07.42-1.75-1.75-3.5,1.1-4.58.5a1.21,1.21,0,0,1-.42-.5c0-2,5-2,3-4-1-1-4-2-5-1,0,1,2,2,2,2,0,2-2,0-3,1a4.21,4.21,0,0,1-.29-3.06c0-.2.07-.39.1-.6a7,7,0,0,0,.83-1.7c.1-.28.17-.56.25-.81.11-1.83.11-2.83-.89-3.83-1,1-3-1-3,1a4.25,4.25,0,0,1-.46.5c-.5.5-1,1-.5,1.5a2.47,2.47,0,0,1,0-2,1.81,1.81,0,0,1,.32-.46c.66-.52,3.66.48,2.66-2.52,0,1-2,2-2.47,2.53a4.8,4.8,0,0,0-.53.47c.2-.1.41-.2.63-.29,1.37-1.71,4.37-.71,5.37-.71,2,1,1,3-.86,4.17l-.55.69a8.64,8.64,0,0,0-1.24,1.76,1.17,1.17,0,0,0-.09.41,2.76,2.76,0,0,0,.74,2c3,1,0-4,3-3a4.86,4.86,0,0,1,2.76,4.92,1.27,1.27,0,0,0,.67-.22,2,2,0,0,0,.32-.29c-2.75-.41-2.75-4.41-4.75-4.41-1,0-1,1-1,2,2,4,1-3,3-1s0,3-1,5h4a.94.94,0,0,1-.26-1,4.21,4.21,0,0,0,.22-.76c0-.28-1-.28-.74.2a1.56,1.56,0,0,0,0,.47c.07,1.56-1.69,1.22-2.74,1.09a4.53,4.53,0,0,0-.46,0c0-2,5-3,0-5,3,2,0,3-.22,5a5.68,5.68,0,0,0,.72,0,10.47,10.47,0,0,0,4.5-1h-5c4.75-.95-1.33-6.41,1.48-5.24l.52.24a.64.64,0,0,1,.55.5,2.24,2.24,0,0,1,.1.56,5.47,5.47,0,0,1-1.65,3.94c1,0,2-2,3-2-1,0-2,2-3,2a5.2,5.2,0,0,0,2-4c1,1-1,2,0,3s2-2,3.11-1a3.84,3.84,0,0,1-.25.54c-.44.84-1.69,1.67-.86,2.5H16.26c1.22-2,2.22-3,1.22-5h-2a3.67,3.67,0,0,1,3,1,4.83,4.83,0,0,1-1.11,3.45.63.63,0,0,0,.34.4,1.65,1.65,0,0,0,.77.15.61.61,0,0,1-.21-.5c2.21-2.5.21-3.5-1.79-5.5-3-3-1,5-4,2A2,2,0,0,0,13,20a1.7,1.7,0,0,1,.14-.42,4.66,4.66,0,0,1,1.05-2,3.06,3.06,0,0,1,.6-.59c.71-.73,3.71-1.73.71-3.73h-5a2.15,2.15,0,0,0,2-2c0,2-2,2-2.66,2.52a1.81,1.81,0,0,0-.32.46,2.47,2.47,0,0,0,0,2c.25-.5.5-1,.77-1.45a2.33,2.33,0,0,1,.46-.61,3.14,3.14,0,0,1,2.77-.94c2,1,1,3,1.06,3.67a4.11,4.11,0,0,0-.25.56c-.23.61-.54,1.23-.85,1.86,0,.17-.07.32-.1.47a3.1,3.1,0,0,1-.86,1.44c1,1,2,3,4,2,0-1-2-2-2-2,0-2,2-1,3-1,1,1,1,3,.54,4.29l.66.29a8.28,8.28,0,0,0,1.88.69c.18,0,.35,0,.92-.27a1.81,1.81,0,0,0,.32-.67c.1-.71-1.41-.17-2.63,0a3.43,3.43,0,0,1-.82.05c1.13-2.4,1.13-4.4-.87-4.4-1,0-2,2-4,2,2,0,3-2,5-1a7.08,7.08,0,0,1-.59,3.29l.52.29c1,.5,1.82,1,3.07.42-1.75-.87-3.5.55-4.58.25a.92.92,0,0,1-.42-.25c0-2,5-2,3-4-1-1-4-2-5-1a2.15,2.15,0,0,0,2,2c-2,3-3-1-4-1a.81.81,0,0,1-.27-.5.76.76,0,0,1,.11-.51c.48-.83,1.29-1.83,1.84-2.87a4.45,4.45,0,0,1,.38-.55c1.94-1.57.94-2.57-1.06-3.57-1,0-2,0-2.55.92a1.4,1.4,0,0,0-.29.67,12.31,12.31,0,0,0-.16,2.41s-2,0-2-1a4.06,4.06,0,0,1,.64-2.09c.13-.22.28-.43.43-.65,2.93-1.26,3.93-2.26,1.93-5.26,2,0,4,0,1,2,0-2,0-4-2-4s-4,2-1,4c1-3-3,0-2-2,1-3,4-2,6.18-.63l.47.06a4.37,4.37,0,0,1,.62.11,2.62,2.62,0,0,0,.43.62,2.43,2.43,0,0,0,.5.39c.8.45.8.45,1.34.32a6.71,6.71,0,0,0,.77,0c2.26-.09,4.83-.84,5.09,2.85a4.26,4.26,0,0,0,.47.15l.57.11a6.76,6.76,0,0,1,2.79,5.16,6.15,6.15,0,0,1,0,.75,19.17,19.17,0,0,1-.62,2.51c-.12.17-.23.32-.31.45-.16.28-.33.56-.5.83a2.24,2.24,0,0,1-.4.32,5.81,5.81,0,0,1-.2.55,4.49,4.49,0,0,1-.22.49c0,1.94-1,1.94-3.42,2.31l-.66,0c-1-.08-2.06-.29-3.17-.29-.23,0-.45,0-.68,0-1-.06-2-.06-2.06.54a5,5,0,0,0-.72.39c-.14.09-.28.18-.42.29.17-.28-5.83.72.11.29a1.5,1.5,0,0,0,.06-.57,2.48,2.48,0,0,1,0,.48c0,.52-1,2.52,1,3.52-1,1-2-1-3-1,0-1,0-2,.61-2.51a2.14,2.14,0,0,0,0-.44,2.27,2.27,0,0,1,0-.46c1.41-4.59-6.59-.59-5.19-5.41a3.73,3.73,0,0,0-.08-.64c-.33-1.59-.12-3.53-1.24-4.92a1.32,1.32,0,0,0-.45-.43,3.19,3.19,0,0,0-2.63-.19c1-2,4,0,4.59-2.08.08-.2.44-.11.7-.11A25.76,25.76,0,0,1,7.48,7.2c1-1,2-1,3.42-1.49a3.48,3.48,0,0,0,.77-.31c1.81-.2-.19-2.2.9-3.13a5,5,0,0,0-.27-.65A12.11,12.11,0,0,0,11.48.2,4,4,0,0,1,14,.76a1.5,1.5,0,0,1,.43.53c1.1,4.91,1.1-3.09,2.36.26l.62-.1c3.12.75,4.12,1.75,7.12-.25,0,1.67,2.08.56,2,1.28a2,2,0,0,1-.39.69,7.37,7.37,0,0,0,2.43,4c-1,0-1,0-1-1,1,2-2,2-1.05,4.2a1.36,1.36,0,0,0,.05.8h3c.33-.33.11-.55-.3-.77-.2-.12-.45-.23-.7-.35,0,.12-1-.88-1-.88,1-2,4,1,5-2-1,2-4,2-6,3a3.67,3.67,0,0,0,1-3c1,0,2,2,3,2,3-2-1-3-1-5,1,1,3-1,4.43.66a2.33,2.33,0,0,0,.57.34,2,2,0,0,1,.19.63c-.19-1.63-1.19.37-2.19-.63,2,1,0,3,1.11,3.58a2.17,2.17,0,0,0,.16.38c.73,1,1.73,2,.73,3h4c-1-1-1,2-1.9.89a2.91,2.91,0,0,0-.64.54c-.65.62-1.69.72-2.16,1a1,1,0,0,0,.32.4c1,.84,3.21,1,4.38,2.15-.67,0-1.33.89-2.07,1.32a.92.92,0,0,1-.64.15c-2.29.53-3.29-2.47-4.29-1.47a13.19,13.19,0,0,1-.75,3,5.83,5.83,0,0,1-.17.62c-.13.18-.25.35-.35.52s-.2.32-.28.47c-1.45.39-2.45,1.39-2.45,2.39,2-1,4-1,4.3,2.25.07.16.14.31.2.47a5,5,0,0,1,.5,1.28,1.57,1.57,0,0,0,0-1.94,3.83,3.83,0,0,0-.46-.55c.47-1.51-2.53-1.51-3.53-3.51a11.31,11.31,0,0,0,1.95-.11,4,4,0,0,1,.36-.35A7.3,7.3,0,0,1,31.87,21a2.46,2.46,0,0,0,.11-.65,2.87,2.87,0,0,1,.5-2.13,7.11,7.11,0,0,0,.41,2,4.44,4.44,0,0,1,.18.76,2.49,2.49,0,0,0-.24.4,1.39,1.39,0,0,1-.44.37c-.45.23-.93.34-1.3.52a1.12,1.12,0,0,1-.67.17c-1.94,2.76,1.06-.24.9.58a3,3,0,0,1,.74,0c1.84.29,2.72,2.37,3.93,3.15a2.52,2.52,0,0,0,.49.25.88.88,0,0,0,1-.23,2.12,2.12,0,0,1-1-.29,3.21,3.21,0,0,1-.5-.37c.5-1.34-3.5-1.34-1.47-3a1.28,1.28,0,0,0,.79-.33,15.08,15.08,0,0,0,1.18-1,2.59,2.59,0,0,0-1.86.49,5.57,5.57,0,0,1-.39.43c.25.08-.75.08-1-.25a1.59,1.59,0,0,0,.42-.53,1.93,1.93,0,0,1,.46-.56.72.72,0,0,0-.23-.31,2.55,2.55,0,0,0-.42-.27c1.67-.83,2-.27,2.57.51a4.71,4.71,0,0,0,.43.49c-2,3,1,4,1,5,0,1.79-.76,1.79-1.86,1.31a1.23,1.23,0,0,1-.43-.75c-.85-1.42-1.82-1.52-2.88-1.05-.21.1-.42.05-.61-.27-3.22-.24-2.22,2.76-4.22,3.76,0-1,2-2,1-3-3,3-9,4-12.45.65a3.8,3.8,0,0,0-.55-.65,4.09,4.09,0,0,1-.05.77c.05,1.23.05,3.23.05,4.23-3,1-4-2-5.61-3.83-.15-.12-.34-.25-.49-.38.1-2.79-4.9-2.79-5-6.39a2.4,2.4,0,0,0-.14-.85c-.07-.29-.13-.61-.18-.95a7.31,7.31,0,0,0-.54-.6c-1-1-2,1-3,0a3.92,3.92,0,0,1,2.94.4A3.36,3.36,0,0,1,4,19l.44.65c.14.22.28.44.4.65.68,3.91,4.68,3.91,5.71,6.44a1.61,1.61,0,0,1,.56.54c-.59,1.93,2.41,2.93,2.41,3.93,5,2-1-4,1.51-4.47a1.28,1.28,0,0,1,.54-.39,2.72,2.72,0,0,1,1-.14,1.19,1.19,0,0,1,.47.09c1.53-.09,1.53,1.91,1.46,2.94C18.56,29.19,18.69,29.1,18.84,29.05Z"/><path class="cls-3" d="M10.41,18.55c-1.93-.35.07.65-.45,2.1a2.15,2.15,0,0,1,.28.51,1.29,1.29,0,0,1,.07.55,3.3,3.3,0,0,0,.58.6,12.52,12.52,0,0,0,7.63,2.49,9.47,9.47,0,0,1-7.67-2.46c-.17-.16-.34-.33-.49-.5l-.24-.65c-.09-.21-.19-.42-.29-.62a10.93,10.93,0,0,0-2.42-4.42l-.32-.75a15.57,15.57,0,0,1-.54-1.59,1.6,1.6,0,0,1,.18-.73A2.55,2.55,0,0,1,7,12.67c.1-.13.22-.28.36-.43,1.15,0,4.15,1,4.15-1,0-1-2,1-3,0-2-2-1-3,0-5,1-1,3,1,3.1-.69.12-.25.24-.51.35-.77C12.48,3.45,13,2.2,14.48,2.2c0,0,0,1,.26.66a1.76,1.76,0,0,0,.78-.19l.59-.21a8.76,8.76,0,0,1,5.11.92,2.13,2.13,0,0,1,.49.38c-.23,4.44,5.77,2.44,5,7a1.32,1.32,0,0,0-.07.58,4.47,4.47,0,0,0,.29,1.19,1.75,1.75,0,0,0,.14.44c1.17,2.86,1.49,5.83-.12,8.81a2.19,2.19,0,0,1-.26.39c-3.22,5.08-11.22,7.08-15,4.57-.25-.11-.5-.22-.74-.35A12.06,12.06,0,0,1,8.82,25a3,3,0,0,1-.6-.62c-1.74-.16-.74-3.16-2.74-3.16,1,0,2,2,3.17,2.42a3.22,3.22,0,0,0,.68.55,16.49,16.49,0,0,0,5.39,2.34c.27.06.53.12.78.16,4,1.53,8-1.47,10-3.86.11-.13.2-.27.3-.4a9.55,9.55,0,0,0,1.15-8.76,5.27,5.27,0,0,1-.24-.83,4.69,4.69,0,0,0-.15-1,4.16,4.16,0,0,0-.28-.8c-.79-5.84-6.79-1.84-9.08-4.6L16.44,6C15,5.11,13.56,4.43,12.2,5.76l-.38.29C9.48,6.2,8.48,6.2,7.48,8.2a2.15,2.15,0,0,0,2,2c0-1,0-2,1-2,0,1,2,3,1,4a8.23,8.23,0,0,0-2.82.31,3.74,3.74,0,0,0-.68.13,4.67,4.67,0,0,0-.23,2.12,8.58,8.58,0,0,1,.09.9c-.36,1.54.64,2.54,2.2,2.83Z"/><path class="cls-4" d="M20.94,16.74c.54-1.54,2.54-.54,3.54-.54,0,1,4,1,1,3v-2c1,3-1,4-3,4.77a.86.86,0,0,0-.1.38c-.1.24-.17.46-.26.66a3.09,3.09,0,0,1-2.63,1.64,3.14,3.14,0,0,0-.71.08A8.29,8.29,0,0,1,17.4,25c-.23,0-.46,0-.69,0-3.11-2.74-8.8-1-8.48-5.16a1.39,1.39,0,0,1,.09-.46c-.84-.22-.84-.22-1-1.7a5.28,5.28,0,0,1-.27-.53,8.09,8.09,0,0,1-.83-2.92,7.06,7.06,0,0,1,.13-.74,2.08,2.08,0,0,1,.63-1,3.31,3.31,0,0,1,.39-.3c3.08-2-1.92-5,1.08-6a7.67,7.67,0,0,0,3.21-.5L12,5.06c.51-1.07,1.07-2,2.57-1.69a1.34,1.34,0,0,1,.46.2,20,20,0,0,1,4.45-.37c-2-1-3,2-5.05.47a1,1,0,0,0-.6.07,2.25,2.25,0,0,0-.95.92c-.14.22-.27.45-.43.71a4,4,0,0,1,0,.85c-1.94,0-4.94,0-4.94,3,1,1,2,3,4,2v-3c1,2,1,4-1.85,5.5a4.81,4.81,0,0,0-.44.57,1.36,1.36,0,0,0,.29,1.93,10.93,10.93,0,0,1,.6-1.75c.06-.14.12-.28.19-.41,1.21-2.84,3.21-3.84,5.67-5.35l.77-.27c3.24-1,6.71-.36,8.64,2.51.1.12.25.27.4.43.73,2.84-1.27,6.84,3.73,5.84-1.75.88-2,2.52-3,3.11a.65.65,0,0,1-.45.1,5.54,5.54,0,0,0-.36.78l-.15.61c-1.83,3.67-5.92,4.72-9.95,4.06-.27,0-.54-.09-.79-.15-1.3-3.51-8.3-.51-8.08-5.9,0-.23-.07-.48-.09-.72-.15-1.47-.18-3.06-1.23-4.22a1.33,1.33,0,0,0-.53-.35,7.35,7.35,0,0,0-2.37-.32c1-2,4,0,4-2.77,0-.25.12-.31.28-.26.74-1-1.26-2-.51-3.33A1.27,1.27,0,0,0,6,8.27c-.3.78.13,1.8.39,2.77a1.9,1.9,0,0,1,.08.73C5.48,14.2,3.48,13.2,2.48,13.2a7.63,7.63,0,0,0,1.75,1.22l.61.33c1.82.73,2,2.59,2.13,4.41,0,.26,0,.51.07.77-2.56,6.27,6.44,2.27,5.48,5.87.23.09.46.17.7.24,4,1.2,9-.54,11.76-4.28.16-.22.34-.46.53-.74,0-.82,0-1.82,1.37-2,.19-.1.39-.2.6-.29,1-.49,2-1,2-2.49a3.3,3.3,0,0,1-2.5,1,2.37,2.37,0,0,1-.52,0c0-1,0-1-.82-1.45a3.08,3.08,0,0,1,0-.74c.12-1.23.95-2.43,1.09-3.53a1.71,1.71,0,0,0-.4-.45A8.62,8.62,0,0,0,18,8.8q-.41.09-.81.21c-3.67-.81-4.67,4.19-7.18,4a1.42,1.42,0,0,0-.49.15c.25,0,.5.08.68.09a22,22,0,0,0,2.32-2.09c-1,1-1,2-2.64,1.87a.86.86,0,0,0-.43.31,4.41,4.41,0,0,0-.93,2.82c0,1,2,1,3,1v-2a1.4,1.4,0,0,1,.42-.28,1.36,1.36,0,0,1,.49-.12c1.09-.6,2.09,1.4,3.09,1.4a2.61,2.61,0,0,0-1.83.44,2.81,2.81,0,0,0-.35.56c-.64,1.27-1,3.16-2.68,3.4a1.4,1.4,0,0,0,.1.69c.93,2.24,6.24,1.35,8,3a2.7,2.7,0,0,0,.76.06,3.13,3.13,0,0,0,2.4-1.25c.14-.18.26-.39.41-.62l.41-.49c.76-.75,4.76-1.75,1.76-4.75a3.67,3.67,0,0,0-3,1c1-1,2-2,4-1-1-2-3-1-4.25-.58A.48.48,0,0,1,20.94,16.74Z"/><path class="cls-5" d="M16.11,2.58c.22,1.57,1.75,1.84,3,2.45a.94.94,0,0,1,.48.48c-.12,3.69,5.88,1.69,6.25,5.21a1.79,1.79,0,0,0,.27.58c.36,1.9-.64,3.9.36,4.9s2-1,3-1c1.6,2.4-1.28,2.88-2.68,4.14-.18.16-.31.28-.67,1.12a3.61,3.61,0,0,0-.34.61c-.14.34-.26.67-.38,1a1.62,1.62,0,0,1-.48.36c0,.18-.09.35-.14.52-1.31,4.27-5.31,6.27-8.53,3.65l-.4-.1-1.38-.28.89.15c.3,0,.59.1.85.16,4.26,1.69,10.26.69,11.26-4.31,0,1,0,2-1,2,2,1,5-3,5.51.68a1.48,1.48,0,0,0,.42,0c1.34-.18,2.6-.19,3,1.58a1,1,0,0,0,.56.66,5.2,5.2,0,0,0,2.53.09,11.68,11.68,0,0,1-2.22-.2.94.94,0,0,1-.61-.37,3.39,3.39,0,0,0-3.47-2.56,1,1,0,0,1-.39-.1c-.31-1.77-2.31.23-3.31-.77a4.86,4.86,0,0,1,3.46,1.11l.67-.09c1.57-.17,3,0,3.19,2.76a6.83,6.83,0,0,0,.81.17,8.14,8.14,0,0,0,.87.05,1.76,1.76,0,0,0-.84-1.39c-.16-.13-.33-.25-.5-.37a9.86,9.86,0,0,0-2.46-2.89,1.27,1.27,0,0,1,.69.08,2.72,2.72,0,0,1,.11-.43c-.1.3-.52.29-.63.38.63-.38,1.63,1.62,2.18,2,.27.12.55.23.83.33,1.37.5,2.62.75,1.62,1.25a3.73,3.73,0,0,1-1.93.66,3.43,3.43,0,0,1-.64,0c.57-.63-2.43-1.63-1.43-2.63a13.29,13.29,0,0,0-2.25.27.51.51,0,0,1-.43-.14c-1.32-2.13-3.32-1.13-4.32-.13h3c0,1-2,1-2,2,2-2,3-2,3.48.56.2-.14.39-.28.59-.4a2.06,2.06,0,0,1,2.77.28c0,.21.06.46.16.56-.15-.1-.17-.41-.25-.66-1.75-.34.25-2.34-.75-2.34a6.94,6.94,0,0,0-1.94,1.05l-.54.43c-1.52-.48-2.52-.48-3.52,1.52,0-2-1-3-1-5-3,2,1,5,0,6-4,4-13-6-14,3,0-2-4-1-3.48-4-.19-.13-.36-.26-.54-.4-1-2.56-5-2.56-5.18-6.2A1.35,1.35,0,0,0,4.09,20c-.09-.18-.16-.35-.23-.52a1.25,1.25,0,0,0-.27-.62c-.55-.68-1.44-1-3.11-.68a4.92,4.92,0,0,1,3-.12c.21,0,.41.05.62.06,4.37.06.37-1.94.89-3.23a.55.55,0,0,0-.41-.09c-.55.08-1,.79-1.09,1.9a1.18,1.18,0,0,1-.1.48,1.74,1.74,0,0,0,.08-.59V15.2a8.36,8.36,0,0,1,1,0,1.34,1.34,0,0,1,.45.16c.55-1.2.55,1.8,1.55.8,1,3-2,2-2.55,1.78a2.67,2.67,0,0,0-.54-.07,1.11,1.11,0,0,0-.91.29,5.92,5.92,0,0,1,.81.26c.26.1.5.22.74.34a4.78,4.78,0,0,0,1,1.19,3.17,3.17,0,0,1,.45.45c1,2.76,4,2.76,6.21,5.25a2.4,2.4,0,0,0,.33.56,4.93,4.93,0,0,0-.48.71c-1.08,1.24.92,2.24.92,3.24,2-1,3-4,5.94-3.85.29-.09.53-.19.78-.28,1.23-.47,2.47-.89,3.59-1.42.23-.11.45-.22.66-.34,1,.89,1-2.11,1.71-1.24a6.82,6.82,0,0,0,.53-.56,6.67,6.67,0,0,0,.43-.61,5.63,5.63,0,0,0,.33-.76c.1-.25.19-.52.28-.8,1.75-1.14,3.75-3.14,2.75-5.14-1,0-2,2-3,1-2-1-1-3-1-4.87a1,1,0,0,1-.25-.44c-2.78.31-3.78-2.69-6.78-3.69a2.19,2.19,0,0,1,.57-1.48,4.69,4.69,0,0,0-.7-.39c-1.21-.59-2.56-1-3.25-2a2.66,2.66,0,0,0-.62-.17,3.42,3.42,0,0,0,.49,0c.23,0,.43-.12.39-.3A2.55,2.55,0,0,1,16.11,2.58Z"/><path class="cls-1" d="M37.39,27.27c.94-.93-.16-1.64-1.21-2.39a3,3,0,0,1-.4-.44,1.45,1.45,0,0,1-1.26-1.76,2,2,0,0,0,.75-.39,4.93,4.93,0,0,1,1.1-.75.72.72,0,0,0,.11-.34.72.72,0,0,1-.11.34,4,4,0,0,1-.67.4c-.22.11-.43.2-.61.31a13.49,13.49,0,0,0-1.61-.05c1,1,1,2,2.63,2.38a3.75,3.75,0,0,0,.49.25,4.56,4.56,0,0,0,1.88.37c-.64,1.29-1.33,1.89-2,2.06a1.88,1.88,0,0,1-.71,0,7.44,7.44,0,0,0-2.25-3.1,1.56,1.56,0,0,0-1,.56c-.17.17-.33.36-.5.55-.5-.11-1.5-2.11-2.5-2.11,1,0,2,1,2.5,1.13a4.7,4.7,0,0,1,.57-.25,2.29,2.29,0,0,1,1.93.12c-1,1,2,2,1,2.61a.77.77,0,0,0,.56.45,2.51,2.51,0,0,0,1.43-.06c1.5-1,0-1.75-1.26-2.58a2.2,2.2,0,0,1-.41-.36c-.33-.06-1.33-1.06-1.13-1.53a2.48,2.48,0,0,0,.61-.44,4.52,4.52,0,0,1,1.08-.75.72.72,0,0,0,.11-.34.72.72,0,0,1-.11.34,4.73,4.73,0,0,1-.67.4c-.22.11-.43.2-.61.3-.61,0-.61,0-1.61,0,1,1,1,2,2.63,2.38a3.75,3.75,0,0,0,.49.25,4.56,4.56,0,0,0,1.88.37c-1,1.6-1.84,2.28-2.59,2.38a1.38,1.38,0,0,1-.54,0c.06-2.67-1.4-3-2.89-3.23a1.37,1.37,0,0,1-.82-.35c-.16-1.76-2.16.24-3.16-.76s0-1,1-1.45a1.68,1.68,0,0,0-.61-.21,3,3,0,0,0-.73,0,4,4,0,0,0-.84.21,4.22,4.22,0,0,1-1.82.46.92.92,0,0,0,.13.42c.87,4.58-2.13,4.58-6.13,5.58,5,1,5-4,7-6a3.77,3.77,0,0,0,.35-.76l.06-.46.06-.49c0-.24.08-.47.13-.7a1.33,1.33,0,0,1,.24-.55c1-2.82,1.12-5.58-1.19-7.71-.2-.2-.42-.39-.63-.57-.05-2.8-4.05-3.8-4.05-6.8-1,0-1,1-1,2a22.23,22.23,0,0,1,2.81-2.54,1.82,1.82,0,0,1,.53-.33,1.69,1.69,0,0,1,.66-.13c-3,0-6,0-9-.06a1.84,1.84,0,0,1-.74,0c-2.31.06-.31-.94-1.31-1.94-.6,1.2-.84,2.76-1.58,4.07a1.34,1.34,0,0,1-.54.57C9.48,6.2,8.48,6.2,7.48,7.2s0,3,1,4,2-1,3-1c0,3-3,2-3.78,2a.66.66,0,0,0-.68.2,1.55,1.55,0,0,0-.42,1.2c0,.19,0,.39,0,.59a4.41,4.41,0,0,1,.81,1.21,3.15,3.15,0,0,1,.18.69,6,6,0,0,0,0,2.35,4.54,4.54,0,0,0-.09.57,9.69,9.69,0,0,0-.09,1.2c0-.4,0-.8,0-1.2s0-.8,0-1.19-.09-.8-.16-1.23A11.49,11.49,0,0,0,7,15.36a8,8,0,0,0-.5-1.24c0-.22-.06-.42-.08-.61a1.87,1.87,0,0,1,.37-1.35c.12-.14.27-.29.81-.14.93-.82,2.93,1.18,2.93-.82-1,1-2-1-3-1-2-4,3-3,4.09-4.53a3.17,3.17,0,0,0,.28-.62c.38-1.1.63-2.35,1.63-2.85,0,.75,0,.94.62,1l.84,0c2.45,1.92,6.26-2.66,9.14.49a1.66,1.66,0,0,1,.26.39c-.86.11-.86,1.11-.86,1.11,2,0,4,0,5,2,0-2-2-1-3-2-1,3,2,3,1.72,4.86,0,.16.06.31.09.47,2.23,2.88,4.45,6.12,3.42,9.43a3.5,3.5,0,0,1-.33.76c-.3-.17-.5,0-.67.38-.08.16-.16.36-.26.54-1,.56-3,.56-2,2.56,1-2,3-2,4.12,0,.22.23.39.42.52.42,1.9.09,3.94.13,3.52,2.71a2.85,2.85,0,0,0,.65.11,3.19,3.19,0,0,0,.73-.08A1.33,1.33,0,0,0,37.39,27.27Z"/><path class="cls-2" d="M16.22,28c-1.74,1.17-1.74-1.83-3.74-.83,5,1,9-1,12.94-4.37a5.81,5.81,0,0,0,.55-.7,11.11,11.11,0,0,0,1.55-3.33,12.63,12.63,0,0,0-.4-5.55,5.87,5.87,0,0,1-.2-.73,4.58,4.58,0,0,1-.27-1.22,1.23,1.23,0,0,1,.07-.59c.76-4.51-7.24-1.51-7.27-5.43a3.35,3.35,0,0,0-.57-.5A5.33,5.33,0,0,0,15,3.5a1.24,1.24,0,0,0-.47-.18C13.05,3,12.5,4,12,5.11c-.11.22-.21.45-.33.67C9.48,6.2,8.48,6.2,7.48,7.2c-2,3,4,3,3,5-1,0-2,0-3.5-.1a4.16,4.16,0,0,0-.32.45,2.27,2.27,0,0,0-.21.45,2.17,2.17,0,0,0-.17.84,6.15,6.15,0,0,0,.6,2.29c.11.23.23.46.35.67.25,2.4,2.25,1.4,2.65,3.5.09.17.19.34.3.52a5.36,5.36,0,0,1,.28.53,2.79,2.79,0,0,0,.48.49,11.67,11.67,0,0,0,3.58,2,7.7,7.7,0,0,0,2.24.39c.24,0,.48,0,.73,0,2.49.64,4.21-.28,4.9-2.05a1.64,1.64,0,0,1,.68-.39c1.41-1.53,2.41-2.53,1.41-4.53-1,0-3,1-3-1,0-1,2-1,2.63-1s.65-.15.62-.38c-.17-1.34-1.18-1.45-2.31-2a2.46,2.46,0,0,1-.62-.38c-.32-6.28.68-.28.51-.51a3,3,0,0,0,.75.24c1.71.37,2.86.39,2.21,3.06a.67.67,0,0,1-.39.4c-2.4,1.53,3.6,4.53-1.4,5.53,2,1,0-2,2-2-1-1-1-3-3-2,2,2,3,3,.42,4.53-.41.14-.53.24-.54.35a3.71,3.71,0,0,1-.88,2.12,16.72,16.72,0,0,0-3.3.24l-.78.11a9.72,9.72,0,0,1-6.88-1.75l-.47-.42a1.94,1.94,0,0,1-.36-.49A13,13,0,0,0,9,20.6L8.67,20c.81-.78-2.19-.78-1.13-1.81l-.37-.64A12.78,12.78,0,0,1,5.7,14.08a1.57,1.57,0,0,1,0-.61,2.92,2.92,0,0,1,.87-1.41c.06-.12.11-.25.17-.37a1.29,1.29,0,0,1,.58.07c1.15-.56,3.15,1.44,3.15-.56-1,1-2-1-3-1-1-3,1-5,3.81-4.45a1.87,1.87,0,0,0,.53-.56c.82-1.23,1.06-2.79,1.66-4-1,1,2,1,1.43,1.82a1.22,1.22,0,0,0,.46-.09c2.59.23,5.11-1.12,7.07.48a1.87,1.87,0,0,1,.49.56c-.45,6.23,6.55,1.23,7.55,5.23,0,1-3-1-3,1.09a5.54,5.54,0,0,0,0,.59c0,.2,0,.4,0,.62s.13.51.2.75a30.88,30.88,0,0,1,.85,4.55,10.26,10.26,0,0,1-1,4.39,3.28,3.28,0,0,1-.44.73c-2.58,3.28-5.58,6.28-10.26,6Z"/><path class="cls-6" d="M12.53,30.08c1,.12,4,1.12,3-1.88,0-1-3,0-2,0,4-2,9-1,12.21-5.25a4.11,4.11,0,0,0,.39-.48l.33-.5a5.18,5.18,0,0,1,.65-.46,5,5,0,0,1,2.28-.77,3.42,3.42,0,0,0,.52-.66,5.27,5.27,0,0,0,.61-1.4c.07-.24.12-.49.17-.74,1.84-1.74-.16-3.74.08-5.61,0-.25.05-.52.09-.79s.05-.4.09-.6.09-.39.14-.59c2.44-.15.44-3.15,2.44-2.15a8.94,8.94,0,0,0-1.74,2.13l.06.61a12.57,12.57,0,0,1,0,1.93q0,.41-.09.81c-.19,1.52.81,3.52-.7,4.1l-.15.79c-.08.52-.16,1-.21,1.51a2.4,2.4,0,0,1-.2.82,5.16,5.16,0,0,0-.09.52.88.88,0,0,1-.27.51c-.15-.18-.25-.13-.58,0-2,.31-2,1.31-3,2.31,2,1,3-3,5.12-.07a.71.71,0,0,0,.81.16c1.43-.41,2.8-.73,3.52,1.64l.55.27-.37-.75c-1.63-.25.37-1.25-1-2.36,0-.15,0-.3,0-.51a2.7,2.7,0,0,1,.42-1.88,2.74,2.74,0,0,1,0-.5,2.89,2.89,0,0,0,.08.59,1.06,1.06,0,0,1-.09,1.29,2.61,2.61,0,0,1-.52.53c-1.47-.41-1.47-.41-1.47.59,1-1,2,2,2.61,1.19a7.32,7.32,0,0,1,.8.23c1.28.47,2.22,1.33,1.59,2.58a2.64,2.64,0,0,1-2.59.15.74.74,0,0,1-.52-.56c-.53-2.75-1.47-2.41-2.78-1.7-.21.12-.44.25-.7,0-.41-1.91-2.41.09-3.41-.91,1,1,3,1,3.3,2.82a2.35,2.35,0,0,0,.73-.34c1.28-.78,2.59-1.58,3.2.32l.72.09c.72.07,1.41.11,2,.11,0-4-5-3-2.28-6.2-.17-.2-.36-.4-.54-.6-.38-.4-.78-.8-1.18-1.2a3.68,3.68,0,0,0-.57.71,1.8,1.8,0,0,0-.26.64,5.16,5.16,0,0,0-.26.75,1.12,1.12,0,0,1-.4.6c-.51.3-.51.3-1.51.3,1,2,4,1,4.41,3.25a2.15,2.15,0,0,0,.29.46l.3.29a.57.57,0,0,0-.17-.37,6.92,6.92,0,0,1-.41-.58c-.42-1.05-1.42-1.05-2.42-2.05-1-2,1,0,2-1-1,1-3-1-3,1,1,0,3,0,3.49,1.76a1.37,1.37,0,0,0,.51.43.81.81,0,0,0,1-.19c0,1,0,2-1,2a2.74,2.74,0,0,0-.62-.78c-.06-.22-.13-.37-.2-.57-.13-2.55-2.12-2.34-3.65-2.67a3,3,0,0,1-.62-.18,3.15,3.15,0,0,1-.64-.41c-.18-.14-.17-.19-.27-.39,1,1,2-1,2.59-1.22a4.44,4.44,0,0,0-.18-.76,7.11,7.11,0,0,1-.41-2c-.37.38-.33,1.17-.28,2a2.37,2.37,0,0,1,0,.76,1.29,1.29,0,0,0-.36.26c-.13.12-.27.26-.41.41-.31-.46-.51-.22-.68.18-.08.21-.16.45-.49.5,2.26-2.08-3.74,2.92-.73-.58.08-.26.18-.52.36-.54a2.38,2.38,0,0,0,.24-.71,6.28,6.28,0,0,1,1.39-3.25,4.7,4.7,0,0,1,3.07.77,1.6,1.6,0,0,0,.72-.14l.73-.06c.73-.07,1.48-.07,1.48-.57-1.33-.66-3.55-.89-4.31-2.28a1.23,1.23,0,0,1-.13-.6,2.74,2.74,0,0,0,.25-.73,2,2,0,0,1,.26-.74c1.1-1.74.94-2.83.16-3.56a.6.6,0,0,1-.21-.63c0-2.46-1-3.46-3-3.46,2,0,1,2,1,3,0,3-3-2-4,1v-3c1,1,1,3,3,2-2-1-4-2-3.45-5.28a1.48,1.48,0,0,0-.54-.11c-2,.39,2-1.61-1-1.61-5,0-5,5-8.17.41l-.44.06c-.12,0-.27,0-.45,0a6,6,0,0,1-2.94.5c1,0,1,0,1-.84a1.23,1.23,0,0,0-.29-.57C13.7.2,12.81.2,11.48.2a4.93,4.93,0,0,1,1,1.42,2.53,2.53,0,0,1,.2.65c.77.93-1.23,1.93-1.22,2.75a4.89,4.89,0,0,1-.55.45C7.48,6.2,7.48,8.2,7,11.67c-.15,0-.16.21-.21.41-.35,2.12-2.35.12-3.35,1.12A13.81,13.81,0,0,1,4.92,14a5.36,5.36,0,0,1,.49.34c1.38,1.22,1,3.41,1.67,5.36a3.2,3.2,0,0,1,.19.72c-.79,4.75,7.21.75,6.12,5.44a2.46,2.46,0,0,1-.17.63c.26.68-1.74,1.68-1.74,2.68,2,0,0-1,1.24-2.43.1-.1.22-.2.34-.3a3.07,3.07,0,0,1,.42-.27,5.75,5.75,0,0,1,.77-.42c.23-.58,1.23-.58,2.23-.47.25,0,.5,0,.75,0a19.71,19.71,0,0,1,2.25.41l.73.17c1.27.27,1.27.27,1.39-.63a3.5,3.5,0,0,1,0-.56,8,8,0,0,1,.79-2,4.47,4.47,0,0,1,.31-.53c.14-.07.28-.15.45-.22,1.31-1.75,3.31-3.75,2.59-5.71a2.16,2.16,0,0,0,0-.72,15.13,15.13,0,0,0-1-3.5,1.17,1.17,0,0,0-.52,0,5.57,5.57,0,0,0-1.47.8,1.83,1.83,0,0,1-.52.27c-.74-.93-1.74,1.07-1.26-.93l.4-.5c.37-.5.62-1,.12-1.5a7.72,7.72,0,0,0-2.73-.57L18,9.55c-.55-1.35-2.55.65-2.65-1a3.37,3.37,0,0,1-.53-.59.62.62,0,0,0-.42-.36,4.11,4.11,0,0,0-.56-.19c-.18,0-.38-.1-.6-.14-2.79-1-4.79-2-5.79,1.95,1-1,1-3,2-3s3,0,3,2c0-1,0-1-1-1,3,0,3,3,6.45,2.91a3.29,3.29,0,0,1,.48.15c1.53.27,3,.62,3.8,2a3,3,0,0,0,.59,0,8.81,8.81,0,0,0,1.76-.57,3.24,3.24,0,0,1,.64-.22c.77,1,.72,2.54.77,4,0,.24,0,.48,0,.71A2.75,2.75,0,0,1,26.46,18a1.28,1.28,0,0,0,.75.17c.71-.05,1.27-.24,1.27-1A6.73,6.73,0,0,1,27,19.1a3.2,3.2,0,0,1-.55.44,14.58,14.58,0,0,0-2.53,2.27c-.15.12-.31.22-.44.32a7.87,7.87,0,0,1-1.32,2.67,3.21,3.21,0,0,1-.49.43c-.21,0-1.21,0-1,.35a3.62,3.62,0,0,1-.57,0c-.86-.07-1.87-.39-3.11-.5L16.29,25c-.81.21-.81.21-2.13.63a2.5,2.5,0,0,0-.52.5c-.14.18-.28.38-.44.57-1.72,1.51-.72,2.51,1.28,3.51-1,1-2-1-3-1,0-1,2-2,1.46-2.64a3.65,3.65,0,0,0,.09-.64c1.45-4.72-6.55-.72-6-5.5,0-.21-.06-.43-.12-.66-.41-1.61-.2-3.55-1.32-4.94a1.39,1.39,0,0,0-.44-.43,3.22,3.22,0,0,0-2.64-.19c0-2,4,1,4.42-2.14,0-.2,0-.41.13-.41C5.48,9.2,7.48,7.2,8.48,6.2a20.13,20.13,0,0,0,2.79-.12,1.57,1.57,0,0,0,.55-.58c1.66-.3-.34-2.3.61-3q0-.37,0-.75c0-.5,0-1,0-1.5a2.11,2.11,0,0,1,1.69,1,.93.93,0,0,1,.11.49,2.19,2.19,0,0,0,2.42,0l.41-.07a2.29,2.29,0,0,1,.58,0C19.35,5.88,23.78.14,26,2.29a2.36,2.36,0,0,1,.47.64c1,2.27,2,4.27,5,5.27-2,1-3-1-5-1,1,1,1,2,.58,3.5a3.18,3.18,0,0,0,.42.5q-.07-.3-.12-.57a1.47,1.47,0,0,1,.08-.64c2-2.79,5-1.79,4-5.79,2,0,2,1,3,2,0-1-1-1-2-1,2,0,0,2,1,3.47a1.22,1.22,0,0,0,0,.63c.72,1.33,2,2.65.78,3.55a.93.93,0,0,0-.07.59,6.19,6.19,0,0,1,.06,1.23,2.51,2.51,0,0,0,.51.43c1.2.85,2.7,1.6,2.7,3.1a5.38,5.38,0,0,0-1.59.15,1.32,1.32,0,0,1-.44,0c-2-1.14-5-1.14-5,1.86a2.76,2.76,0,0,1,.27.37q.09.45.21.87a.59.59,0,0,1-.21.46l-.49.08c-.78-.78-1.78,1.22-2.78,1.22H31a2.68,2.68,0,0,0,.87.37,5.29,5.29,0,0,1,3.82,2.11,1.52,1.52,0,0,0,.36.42,10.45,10.45,0,0,0,1.41.09,4.58,4.58,0,0,0-.88-.61c-.18-.11-.37-.24-.56-.38a15.26,15.26,0,0,0-2.56-3s1,0,.55.28a1.73,1.73,0,0,0,.75-.43,5,5,0,0,1,.7-.85,4.16,4.16,0,0,0-.66.42,2.63,2.63,0,0,0-.46.49c-.88,1.09-1.88-.91-1.88,1.09,1-1,2,1,3,1-1,0-2-2-3-1,0-1,0-1,1.44-1.37a3.53,3.53,0,0,0,0-.65,2,2,0,0,0-.15-.63,4.83,4.83,0,0,1-.22-.64,3.22,3.22,0,0,1-.08-.71,5.6,5.6,0,0,1,1.86,1.13,5.71,5.71,0,0,1,.55.55c-2.41,3.32,4.59,5.32,1.59,6.32a3.1,3.1,0,0,1-1.82.15.8.8,0,0,1-.48-.5,5,5,0,0,0-2.5-.47,3.62,3.62,0,0,1-.73,0c-2.47-4.22-2.47,1.78-3.47.78,0-2-2-3-1-5-1,6-8,8-13,5-1,1,1,2,1,3-1,0-1,0-2.44.06A5.17,5.17,0,0,1,12.53,30.08Z"/><path class="cls-7" d="M31.72,9.35c-.24.85-1.24.85-1.93.77a2.86,2.86,0,0,0-.28.69c-.9,3.3,2.13,7.26.44,10.63a.86.86,0,0,1-.38.38c-.72.24-.09-.62-.05-.37,0-.25.06-.5.1-.75.24-1.5.61-3-.14-4.5,2,2,0,4-.95,5.21a1.4,1.4,0,0,1-.62-.12,1,1,0,0,1-.5-.89,1.84,1.84,0,0,1,.06-.62c.76-3.43,1.51-6.54.15-9.16a1.92,1.92,0,0,1-.18-.79c0-2.63-6-1.63-4.61-6.1-.09-.13-.2-.27-.31-.4-.35-.4-.69-.78-1-1.13,1.25-.62,2.11-.08,3.07.67.19.15.21.39.37,0a4.8,4.8,0,0,0-.67-.35,2.5,2.5,0,0,0-3.14,1l-.48.62c-.15,0-1.15,1-1,.56a2.08,2.08,0,0,1-.34-.65,11.55,11.55,0,0,1-.39-1.28l-.62,0a14,14,0,0,0-2.48.37,2.73,2.73,0,0,1-.8.13C12.72,2.76,12.1,4,11.65,5.2a1.87,1.87,0,0,1-.37.66c-1.8.34-2.8.34-3.8,1.34-2,3,2,3,3,5A14,14,0,0,1,7,11.86a.74.74,0,0,0-.28.3A3.76,3.76,0,0,0,7,15.65c.1.19.2.38.29.58a4.67,4.67,0,0,1,.13,1.61,4.75,4.75,0,0,0,0,.85c.46,3.27,4.4,3.79,5.75,5.59a.76.76,0,0,1,.08.7,2.35,2.35,0,0,0-1.07,1.61c2.24.61-2.76,1.61.24,2.61-1-1,1-2,1.12-2.62a5.39,5.39,0,0,1,.58-.59c2.36-2,6.36-1.71,7.79-4a3.9,3.9,0,0,1,.93-.28c2.58-.47,1.58-3.47,1.58-4.47-1,2,2,2,1,3,1-2-3-3-2-5a6.23,6.23,0,0,1,1.87.32c.06-.16.12-.31.16-.45.62-2-.69-2.42-2.14-2.91a3.46,3.46,0,0,1-.68-.28c-.21-.68-2.21-1.68-1.21-2.68a22.28,22.28,0,0,0-2.78.17L18,9.48c-3.5-.28-5.5,2.72-7.94,4.13a2.86,2.86,0,0,0-.56.59,2.06,2.06,0,0,1,.59-.62c3.41-3.38,5.41,1.62,8.41.62-1,1,1,3-1.24,3.21a2.12,2.12,0,0,1-.54.15l-.23.31.23-.31a2.12,2.12,0,0,0,.54-.15c2.24-.21.24-2.21,1.24-3.21-1,4-2-4-3,0,1,0,2,2,3,1v-1c0,2,0,3-2,4,0,0,1,0,.93.17l.4.33c.21.16.33.21.38.19.29-.69.29-.69-.36-.64a.87.87,0,0,0-.22.45,27.83,27.83,0,0,0-.13,3.5c1-2-3-2-1.67-4a1.36,1.36,0,0,1,.24-.63c2.43-.34,3.43-1.34,2.43-2.34-2-1-4-5-5-3s-4,0-3.3,1.82a3.18,3.18,0,0,0-.37.62,3.59,3.59,0,0,0-.33,1.56,6.55,6.55,0,0,1,.26-1.94,1.9,1.9,0,0,1,.36-.71c2.38-2.35,5.38-2.35,7.79-4,.2-.11.4-.22.59-.35,2-1,4,0,4.31,2.61a3,3,0,0,0,.68.3c1.4.48,2.58.75,1.94,3.23a3.66,3.66,0,0,1,.11.57c-1,2.29,1,5.29-2.1,6-.22.18-.4.35-.6.5-2.53,2-7.76,1.57-9.23,3.81-.11.17-.21.36-.33.56.22.4-.78,6.4-1-.05.14-.18.25-.35.37-.53a2.86,2.86,0,0,0,.73-1.67,4.9,4.9,0,0,0-.6-.51c-2.28-1.66-4.46-2.73-5.21-5.21-.07-.25-.13-.51-.18-.79.07.16.07-.84-.08-.87a2.74,2.74,0,0,0-.26-.76c-.65-1.32-1.37-2.74-.53-4A2.86,2.86,0,0,1,7,11.83c1.48.37,4.48,1.37,3.48-1.63,0,2-1,0-2,1-1-1-2-3-1-4,1-2,3-1,3.94-1.4a.53.53,0,0,0,.32-.22c.74-1.14.74-2.58.74-4.38,1-2,1,2,2.56,1.29.26-.09.52-.18.78-.25a11.56,11.56,0,0,1,3.35-.44l.56,0a2.68,2.68,0,0,0-.09,2.71,1.94,1.94,0,0,1,.18.56,4.83,4.83,0,0,0-.34,2.11c1-1,1-2,1.13-3.37a5.56,5.56,0,0,1-.24-.62c-.16-.59,0-1,1.11-1,1.4,0,2.8-.49,4,.17a1.18,1.18,0,0,1,.45.37c0,.3-.08.58-.11.83A5.71,5.71,0,0,0,31.48,8.2c-1,0-2,2-3,0,0,2,2,0,2.76,1.14C31.71,9.13,31.86,9.12,31.72,9.35Z"/></g></g></svg>