<svg xmlns="http://www.w3.org/2000/svg" viewBox="0 0 46.41 13.33"><defs><style>.cls-1{fill:#fff9e5;}</style></defs><title>Fichier 11</title><g id="Calque_2" data-name="Calque 2"><g id="Calque_1-2" data-name="Calque 1"><path class="cls-1" d="M14.92.69V3.78A1.3,1.3,0,0,0,14,4a.94.94,0,0,0-.23.7V13h-5L4.37,6.16V9c0,.36.1.59.31.69a2.71,2.71,0,0,0,1.05.15V13H0V9.88a2.09,2.09,0,0,0,1.05-.2.81.81,0,0,0,.32-.74V4.73A.81.81,0,0,0,1.05,4a2.09,2.09,0,0,0-1-.2V.69H6.55l4.17,6.53V4.73A1,1,0,0,0,10.49,4a1.58,1.58,0,0,0-1-.2V.69Z"/><path class="cls-1" d="M15.43,8.36a5.16,5.16,0,0,1,.42-2.15,4.21,4.21,0,0,1,1.22-1.55A5.39,5.39,0,0,1,19,3.73a8.72,8.72,0,0,1,2.48-.32,8.64,8.64,0,0,1,2.47.32,5.53,5.53,0,0,1,1.9.93A4.29,4.29,0,0,1,27,6.21a5.15,5.15,0,0,1,.43,2.15A5.14,5.14,0,0,1,27,10.5a4.33,4.33,0,0,1-1.21,1.56,5.39,5.39,0,0,1-1.9.95,9,9,0,0,1-2.47.32A9.09,9.09,0,0,1,19,13a5.25,5.25,0,0,1-1.89-.95,4.25,4.25,0,0,1-1.22-1.56A5.14,5.14,0,0,1,15.43,8.36Zm4.74,0a10,10,0,0,0,.06,1.19,2.73,2.73,0,0,0,.21.78.9.9,0,0,0,.38.43,1.16,1.16,0,0,0,.62.14,1.13,1.13,0,0,0,.61-.14.9.9,0,0,0,.38-.43,2.44,2.44,0,0,0,.21-.78,10,10,0,0,0,.06-1.19,5,5,0,0,0-.27-2,1,1,0,0,0-1-.57,1.39,1.39,0,0,0-.62.13.9.9,0,0,0-.38.43,2.73,2.73,0,0,0-.21.78A10,10,0,0,0,20.17,8.36Z"/><path class="cls-1" d="M34.29,3.78V9a.8.8,0,0,0,.28.73,1.32,1.32,0,0,0,.7.17h.22V13h-7V9.88h.33a.78.78,0,0,0,.65-.28A1,1,0,0,0,29.67,9V7.82a.84.84,0,0,0-.31-.71,1.09,1.09,0,0,0-.7-.23h-.19V3.78Zm-4.76-2A1.6,1.6,0,0,1,30.08.51,2.18,2.18,0,0,1,31.63,0a2.24,2.24,0,0,1,1.58.51,1.63,1.63,0,0,1,0,2.46,2.24,2.24,0,0,1-1.58.51A2.18,2.18,0,0,1,30.08,3,1.61,1.61,0,0,1,29.53,1.73Z"/><path class="cls-1" d="M41.29,3.78l-.14,2.3h.14a4,4,0,0,1,1-2A2.41,2.41,0,0,1,44,3.41a2.84,2.84,0,0,1,1.1.2A2,2,0,0,1,46.28,5a3.1,3.1,0,0,1,.13.92,2.53,2.53,0,0,1-.12.77,1.92,1.92,0,0,1-.37.69,1.79,1.79,0,0,1-.67.5,2.33,2.33,0,0,1-1,.19,1.88,1.88,0,0,1-1.31-.43,1.31,1.31,0,0,1-.48-1,1.47,1.47,0,0,1,.07-.5,2.27,2.27,0,0,1,.13-.33l.1-.19s0-.06-.06-.06-.24.14-.38.4a3,3,0,0,0-.2,1.26V9.06a1,1,0,0,0,.15.63.78.78,0,0,0,.6.19h.5V13h-7V9.88h.49a.65.65,0,0,0,.52-.22.83.83,0,0,0,.18-.53V7.54A.56.56,0,0,0,37.3,7a1,1,0,0,0-.52-.13h-.44V3.78Z"/></g></g></svg>