<svg xmlns="http://www.w3.org/2000/svg" viewBox="0 0 77.58 17.04"><defs><style>.cls-1{fill:#fff9e5;}</style></defs><title>Fichier 4</title><g id="Calque_2" data-name="Calque 2"><g id="Calque_1-2" data-name="Calque 1"><path class="cls-1" d="M0,6.48A7.06,7.06,0,0,1,.53,3.66a5.44,5.44,0,0,1,1.5-2A6.45,6.45,0,0,1,4.32.41,10.09,10.09,0,0,1,7.26,0a10,10,0,0,1,2.93.41,6.41,6.41,0,0,1,2.3,1.22,5.52,5.52,0,0,1,1.49,2,7.06,7.06,0,0,1,.53,2.82A7.06,7.06,0,0,1,14,9.3a5.52,5.52,0,0,1-1.49,2,6.28,6.28,0,0,1-2.3,1.23A10,10,0,0,1,7.26,13a10.09,10.09,0,0,1-2.94-.41A6.32,6.32,0,0,1,2,11.33a5.44,5.44,0,0,1-1.5-2A7.06,7.06,0,0,1,0,6.48Zm5.6,0a15.54,15.54,0,0,0,.08,1.69,3.63,3.63,0,0,0,.26,1.1,1.24,1.24,0,0,0,.5.61,1.56,1.56,0,0,0,.82.19,1.53,1.53,0,0,0,.8-.19,1.21,1.21,0,0,0,.51-.61,3.63,3.63,0,0,0,.26-1.1,15.54,15.54,0,0,0,.08-1.69A15.75,15.75,0,0,0,8.83,4.8a3.63,3.63,0,0,0-.26-1.11,1.18,1.18,0,0,0-.51-.6,1.53,1.53,0,0,0-.8-.19,1.56,1.56,0,0,0-.82.19,1.21,1.21,0,0,0-.5.6A3.63,3.63,0,0,0,5.68,4.8,15.75,15.75,0,0,0,5.6,6.48Z"/><path class="cls-1" d="M20.57,3.42l-.14,2.3h.14a4,4,0,0,1,1-2,2.39,2.39,0,0,1,1.76-.68,2.86,2.86,0,0,1,1.11.2,1.92,1.92,0,0,1,.74.55,2.06,2.06,0,0,1,.41.79,3.15,3.15,0,0,1,.13.92,2.53,2.53,0,0,1-.12.77,2,2,0,0,1-.37.7,2,2,0,0,1-.67.49,2.33,2.33,0,0,1-1,.19,1.88,1.88,0,0,1-1.31-.43,1.31,1.31,0,0,1-.48-1,1.47,1.47,0,0,1,.07-.5,2.85,2.85,0,0,1,.13-.33l.1-.19s0-.06-.06-.06-.24.14-.38.4a3,3,0,0,0-.2,1.26V8.7a1,1,0,0,0,.15.63.73.73,0,0,0,.6.19h.5v3.09h-7V9.52h.49a.65.65,0,0,0,.52-.22.83.83,0,0,0,.18-.53V7.18a.55.55,0,0,0-.23-.52.9.9,0,0,0-.52-.14h-.44V3.42Z"/><path class="cls-1" d="M30.36,4.58a3,3,0,0,0-.72.07,4,4,0,0,0-.53.14,1.62,1.62,0,0,0-.35.19l-.25.19.08.08.35-.17a1.33,1.33,0,0,1,1.32.24,1.32,1.32,0,0,1,.36,1,1.27,1.27,0,0,1-.54,1.07,2.42,2.42,0,0,1-1.47.41,1.89,1.89,0,0,1-1.39-.51,1.87,1.87,0,0,1-.52-1.43,2,2,0,0,1,.28-1,2.68,2.68,0,0,1,.88-.9,5.11,5.11,0,0,1,1.52-.66,8.35,8.35,0,0,1,2.22-.26,9.26,9.26,0,0,1,2.53.29,4.36,4.36,0,0,1,1.53.75,2.45,2.45,0,0,1,.75,1,3.5,3.5,0,0,1,.21,1.18V9.57a6.06,6.06,0,0,0,.05,1c0,.18.15.27.37.27a.36.36,0,0,0,.36-.25,2.3,2.3,0,0,0,.11-.84v-1h1V9.79a5.88,5.88,0,0,1-.13,1.33,2.17,2.17,0,0,1-.47,1,2.15,2.15,0,0,1-1,.63,4.73,4.73,0,0,1-1.54.21A4.55,4.55,0,0,1,34,12.77a2.77,2.77,0,0,1-.88-.44,1.65,1.65,0,0,1-.46-.56,1.09,1.09,0,0,1-.14-.51h-.14a1.3,1.3,0,0,1-.28.65,2.15,2.15,0,0,1-.66.55,4.54,4.54,0,0,1-1,.38,5.43,5.43,0,0,1-1.34.15,5.76,5.76,0,0,1-1.3-.14,2.69,2.69,0,0,1-1-.44,1.89,1.89,0,0,1-.64-.76,2.46,2.46,0,0,1-.23-1.12,1.74,1.74,0,0,1,.45-1.27,3.25,3.25,0,0,1,1.13-.73A9,9,0,0,1,29,8.09a13.93,13.93,0,0,0,1.49-.41,3.7,3.7,0,0,0,1.13-.63A1.34,1.34,0,0,0,32,6a1.36,1.36,0,0,0-.39-1A1.82,1.82,0,0,0,30.36,4.58ZM32,8.19a1.45,1.45,0,0,1-.46.43l-.53.32a1.73,1.73,0,0,0-.44.37.85.85,0,0,0-.19.57.84.84,0,0,0,.15.49.66.66,0,0,0,.59.22.77.77,0,0,0,.63-.3A1.3,1.3,0,0,0,32,9.43Z"/><path class="cls-1" d="M46.69,7.28a1.29,1.29,0,0,0-.08-.52.75.75,0,0,0-.2-.3.57.57,0,0,0-.27-.13,1,1,0,0,0-.29,0,1,1,0,0,0-.81.32,1.34,1.34,0,0,0-.26.9V8.7a1,1,0,0,0,.15.63.73.73,0,0,0,.6.19H46v3.09H39V9.52h.49A.65.65,0,0,0,40,9.3a.83.83,0,0,0,.18-.53V7.18A.55.55,0,0,0,40,6.66a.92.92,0,0,0-.52-.14H39V3.42h5l-.18,2.3h.15a2.81,2.81,0,0,1,1.12-2,4.25,4.25,0,0,1,2.56-.69,4.49,4.49,0,0,1,1.86.33,2.83,2.83,0,0,1,1.11.82,2.93,2.93,0,0,1,.54,1.07,4.86,4.86,0,0,1,.14,1.09V8.7a1,1,0,0,0,.15.63.76.76,0,0,0,.6.19h.45v3.09H46.69Z"/><path class="cls-1" d="M65.2,14.13a2.35,2.35,0,0,1-1.63,2.16,11.6,11.6,0,0,1-4.71.75c-.74,0-1.47,0-2.17,0a9.25,9.25,0,0,1-1.88-.22,3,3,0,0,1-1.31-.6A1.4,1.4,0,0,1,53,15a1.34,1.34,0,0,1,.39-1,3.36,3.36,0,0,1,.82-.61,1.77,1.77,0,0,1-.74-.72,2,2,0,0,1-.19-.88,1.68,1.68,0,0,1,.41-1.08,4.65,4.65,0,0,1,1.17-1,3.38,3.38,0,0,1-1.15-1.2,3.32,3.32,0,0,1-.4-1.68,3.35,3.35,0,0,1,.39-1.65A3.27,3.27,0,0,1,54.83,4a5.69,5.69,0,0,1,1.75-.73,9.42,9.42,0,0,1,2.28-.25,9.77,9.77,0,0,1,2.46.29,5.19,5.19,0,0,1,1.86.89,2,2,0,0,1,.41-.4,2.8,2.8,0,0,1,.55-.28A2.37,2.37,0,0,1,65,3.42h.77v3.1h-.55a.74.74,0,0,0-.55.19.89.89,0,0,0-.22.38,3.81,3.81,0,0,1-1.7,2.69,7,7,0,0,1-3.84.92,9.85,9.85,0,0,1-2.47-.29.34.34,0,0,0-.18.29.48.48,0,0,0,.38.46,4.09,4.09,0,0,0,1,.18q.63,0,1.44,0c.54,0,1.09,0,1.66,0a15.28,15.28,0,0,1,1.66.15,5.06,5.06,0,0,1,1.44.42,2.56,2.56,0,0,1,1,.82A2.17,2.17,0,0,1,65.2,14.13Zm-6,.12c-.6,0-1.14,0-1.62,0s-.92-.08-1.31-.13a.6.6,0,0,0-.08.29.78.78,0,0,0,.65.79,6.57,6.57,0,0,0,1.71.18,8.71,8.71,0,0,0,2.07-.17c.43-.11.65-.27.65-.48s-.06-.18-.19-.24a2,2,0,0,0-.49-.13,6.17,6.17,0,0,0-.67-.06ZM57.69,6.86a2.88,2.88,0,0,0,.25,1.34,1.15,1.15,0,0,0,1.85,0A2.88,2.88,0,0,0,60,6.86a2.72,2.72,0,0,0-.25-1.31,1.18,1.18,0,0,0-1.85,0A2.72,2.72,0,0,0,57.69,6.86Z"/><path class="cls-1" d="M71,8.53a2.68,2.68,0,0,0,.47,1.72,1.64,1.64,0,0,0,1.25.47,1.91,1.91,0,0,0,.54-.08,1.37,1.37,0,0,0,.49-.26,1.66,1.66,0,0,0,.39-.47,2,2,0,0,0,.21-.75h3a4.71,4.71,0,0,1-.61,1.8,3.67,3.67,0,0,1-1.15,1.17,4.78,4.78,0,0,1-1.62.64,10.13,10.13,0,0,1-2.08.2,7.8,7.8,0,0,1-2.2-.3,5.46,5.46,0,0,1-1.82-.91,4.34,4.34,0,0,1-1.22-1.55A5.15,5.15,0,0,1,66.23,8a5.16,5.16,0,0,1,.42-2.15A4.09,4.09,0,0,1,67.82,4.3a5.11,5.11,0,0,1,1.78-.93,7.71,7.71,0,0,1,2.26-.32,7.5,7.5,0,0,1,2.61.4,4.76,4.76,0,0,1,1.79,1.12,4.24,4.24,0,0,1,1,1.72,6.9,6.9,0,0,1,.31,2.24ZM72.22,5.3a1,1,0,0,0-.86.41A3,3,0,0,0,71,7.08h2.44a2.71,2.71,0,0,0-.35-1.3A1,1,0,0,0,72.22,5.3Z"/></g></g></svg>