<svg xmlns="http://www.w3.org/2000/svg" viewBox="0 0 49.95 12.64"><defs><style>.cls-1{fill:#fff9e5;}</style></defs><title>Fichier 10</title><g id="Calque_2" data-name="Calque 2"><g id="Calque_1-2" data-name="Calque 1"><path class="cls-1" d="M0,12.28V9.19A2.09,2.09,0,0,0,1.05,9a.81.81,0,0,0,.32-.74V4a.81.81,0,0,0-.32-.74,2.09,2.09,0,0,0-1-.2V0H8.83a7.62,7.62,0,0,1,2.06.24,3.32,3.32,0,0,1,1.34.69A2.45,2.45,0,0,1,13,2a4.36,4.36,0,0,1,.21,1.39,3.48,3.48,0,0,1-.67,2.24,2.76,2.76,0,0,1-2.16.9v.1a3.67,3.67,0,0,1,1.18.27,1.9,1.9,0,0,1,.75.56,2,2,0,0,1,.38.84,5.18,5.18,0,0,1,.11,1.1v.44a.61.61,0,0,0,.11.36.36.36,0,0,0,.33.16.37.37,0,0,0,.35-.16.69.69,0,0,0,.1-.36V7.73h.95V9.85A3.31,3.31,0,0,1,14.42,11a2.24,2.24,0,0,1-.59.88,2.77,2.77,0,0,1-1.08.58,5.87,5.87,0,0,1-1.64.2,5.13,5.13,0,0,1-1.6-.21,2.5,2.5,0,0,1-1-.59A2.07,2.07,0,0,1,8.06,11a3.6,3.6,0,0,1-.14-1V9.26a6.28,6.28,0,0,0-.08-1.08,1.59,1.59,0,0,0-.24-.64.94.94,0,0,0-.45-.31,2.55,2.55,0,0,0-.67-.07H6.29V8.35A.77.77,0,0,0,6.53,9a1.46,1.46,0,0,0,.88.2v3.09Zm6.29-6.6H7a1.16,1.16,0,0,0,1-.33,1.48,1.48,0,0,0,.26-.94A1.53,1.53,0,0,0,8,3.4a1.22,1.22,0,0,0-1-.31H6.29Z"/><path class="cls-1" d="M15,7.67a5.12,5.12,0,0,1,.42-2.15A4.21,4.21,0,0,1,16.66,4,5.58,5.58,0,0,1,18.55,3,9.1,9.1,0,0,1,21,2.72,9,9,0,0,1,23.5,3,5.73,5.73,0,0,1,25.4,4a4.29,4.29,0,0,1,1.21,1.55A5,5,0,0,1,27,7.67a5,5,0,0,1-.43,2.14,4.33,4.33,0,0,1-1.21,1.56,5.39,5.39,0,0,1-1.9,1,9,9,0,0,1-2.47.32,9.09,9.09,0,0,1-2.48-.32,5.25,5.25,0,0,1-1.89-1,4.25,4.25,0,0,1-1.22-1.56A5.17,5.17,0,0,1,15,7.67Zm4.74,0a8.19,8.19,0,0,0,.07,1.19,2.45,2.45,0,0,0,.2.78.9.9,0,0,0,.38.43,1.26,1.26,0,0,0,.62.14,1.22,1.22,0,0,0,.61-.14A1,1,0,0,0,22,9.64a2.75,2.75,0,0,0,.2-.78,10.12,10.12,0,0,0,.06-1.19,5.17,5.17,0,0,0-.26-2,1,1,0,0,0-1-.57,1.39,1.39,0,0,0-.62.13A.9.9,0,0,0,20,5.7a2.38,2.38,0,0,0-.2.78A8.1,8.1,0,0,0,19.76,7.67Z"/><path class="cls-1" d="M37.52,6.13H35.23a2.08,2.08,0,0,0-.75-1,1.86,1.86,0,0,0-1.06-.35,1.09,1.09,0,0,0-.59.14.45.45,0,0,0-.22.41A.55.55,0,0,0,33,5.9a6.11,6.11,0,0,0,1,.3l1.26.32a5.19,5.19,0,0,1,1.25.54,2.87,2.87,0,0,1,1,.94,2.82,2.82,0,0,1,.39,1.56,2.44,2.44,0,0,1-.34,1.31,2.67,2.67,0,0,1-.91.92,4.65,4.65,0,0,1-1.36.53,7.55,7.55,0,0,1-1.69.18,7.45,7.45,0,0,1-1.67-.17,5.24,5.24,0,0,1-1.51-.58l-.08.58h-2.2V9h2.28a2.86,2.86,0,0,0,.82,1,1.84,1.84,0,0,0,1.1.37,1,1,0,0,0,.65-.18.5.5,0,0,0,.2-.38.57.57,0,0,0-.39-.52A4.81,4.81,0,0,0,31.77,9l-1.24-.32a5.07,5.07,0,0,1-1.24-.52,3.05,3.05,0,0,1-.94-.92A2.71,2.71,0,0,1,28,5.68a2.55,2.55,0,0,1,.31-1.23,2.6,2.6,0,0,1,.87-.94,4.37,4.37,0,0,1,1.33-.59,6.81,6.81,0,0,1,1.69-.2A6.53,6.53,0,0,1,34,3a4.35,4.35,0,0,1,1.23.5l.09-.59h2.2Z"/><path class="cls-1" d="M43.36,8.2a2.63,2.63,0,0,0,.47,1.71,1.61,1.61,0,0,0,1.25.48,1.91,1.91,0,0,0,.54-.08,1.54,1.54,0,0,0,.49-.26,1.58,1.58,0,0,0,.39-.48,1.85,1.85,0,0,0,.21-.74h3a4.84,4.84,0,0,1-.61,1.8A3.67,3.67,0,0,1,48,11.8a4.78,4.78,0,0,1-1.62.64,10.2,10.2,0,0,1-2.08.2,7.8,7.8,0,0,1-2.2-.3,5.3,5.3,0,0,1-1.82-.92A4.3,4.3,0,0,1,39,9.88a5.19,5.19,0,0,1-.44-2.21A5.12,5.12,0,0,1,39,5.52,4.09,4.09,0,0,1,40.19,4,5.3,5.3,0,0,1,42,3a7.72,7.72,0,0,1,2.26-.31,7.5,7.5,0,0,1,2.61.4,4.66,4.66,0,0,1,1.79,1.11,4.35,4.35,0,0,1,1,1.73A6.9,6.9,0,0,1,50,8.2ZM44.59,5a1,1,0,0,0-.86.41,3,3,0,0,0-.37,1.36H45.8a2.7,2.7,0,0,0-.35-1.29A1,1,0,0,0,44.59,5Z"/></g></g></svg>