<svg xmlns="http://www.w3.org/2000/svg" viewBox="0 0 66.21 16.71"><defs><style>.cls-1{fill:#fff9e5;}</style></defs><title>Fichier 9</title><g id="Calque_2" data-name="Calque 2"><g id="Calque_1-2" data-name="Calque 1"><path class="cls-1" d="M0,12.28V9.19A2.09,2.09,0,0,0,1.05,9a.81.81,0,0,0,.32-.74V4a.81.81,0,0,0-.32-.74,2.09,2.09,0,0,0-1-.2V0H8.83a7.62,7.62,0,0,1,2.06.24,3.32,3.32,0,0,1,1.34.69A2.45,2.45,0,0,1,13,2a4.36,4.36,0,0,1,.21,1.39,3.48,3.48,0,0,1-.67,2.24,2.76,2.76,0,0,1-2.16.9v.1a3.67,3.67,0,0,1,1.18.27,1.9,1.9,0,0,1,.75.56,2,2,0,0,1,.38.84,5.18,5.18,0,0,1,.11,1.1v.44a.61.61,0,0,0,.11.36.36.36,0,0,0,.33.16.37.37,0,0,0,.35-.16.69.69,0,0,0,.1-.36V7.73h.95V9.85A3.31,3.31,0,0,1,14.42,11a2.24,2.24,0,0,1-.59.88,2.77,2.77,0,0,1-1.08.58,5.87,5.87,0,0,1-1.64.2,5.13,5.13,0,0,1-1.6-.21,2.5,2.5,0,0,1-1-.59A2.07,2.07,0,0,1,8.06,11a3.6,3.6,0,0,1-.14-1V9.26a6.28,6.28,0,0,0-.08-1.08,1.59,1.59,0,0,0-.24-.64.94.94,0,0,0-.45-.31,2.55,2.55,0,0,0-.67-.07H6.29V8.35A.77.77,0,0,0,6.53,9a1.46,1.46,0,0,0,.88.2v3.09Zm6.29-6.6H7a1.16,1.16,0,0,0,1-.33,1.48,1.48,0,0,0,.26-.94A1.53,1.53,0,0,0,8,3.4a1.22,1.22,0,0,0-1-.31H6.29Z"/><path class="cls-1" d="M15,7.67a5.12,5.12,0,0,1,.42-2.15A4.21,4.21,0,0,1,16.66,4,5.58,5.58,0,0,1,18.55,3,9.1,9.1,0,0,1,21,2.72,9,9,0,0,1,23.5,3,5.73,5.73,0,0,1,25.4,4a4.29,4.29,0,0,1,1.21,1.55A5,5,0,0,1,27,7.67a5,5,0,0,1-.43,2.14,4.33,4.33,0,0,1-1.21,1.56,5.39,5.39,0,0,1-1.9,1,9,9,0,0,1-2.47.32,9.09,9.09,0,0,1-2.48-.32,5.25,5.25,0,0,1-1.89-1,4.25,4.25,0,0,1-1.22-1.56A5.17,5.17,0,0,1,15,7.67Zm4.74,0a8.19,8.19,0,0,0,.07,1.19,2.45,2.45,0,0,0,.2.78.9.9,0,0,0,.38.43,1.26,1.26,0,0,0,.62.14,1.22,1.22,0,0,0,.61-.14A1,1,0,0,0,22,9.64a2.75,2.75,0,0,0,.2-.78,10.12,10.12,0,0,0,.06-1.19,5.17,5.17,0,0,0-.26-2,1,1,0,0,0-1-.57,1.39,1.39,0,0,0-.62.13A.9.9,0,0,0,20,5.7a2.38,2.38,0,0,0-.2.78A8.1,8.1,0,0,0,19.76,7.67Z"/><path class="cls-1" d="M39.81,8.52a.54.54,0,0,0,.23.53,1,1,0,0,0,.52.14H41v3.09h-5V10h-.13a2.89,2.89,0,0,1-1.05,1.94,4,4,0,0,1-2.47.66,4.49,4.49,0,0,1-1.86-.33,2.93,2.93,0,0,1-1.11-.82,2.89,2.89,0,0,1-.54-1.08,4.71,4.71,0,0,1-.14-1.08V7a1,1,0,0,0-.16-.63A.75.75,0,0,0,28,6.18h-.5V3.09h5.82V8.35a1.45,1.45,0,0,0,.08.52.74.74,0,0,0,.19.3.62.62,0,0,0,.28.14l.29,0A1,1,0,0,0,35,9a1.4,1.4,0,0,0,.26-.9V7a1,1,0,0,0-.15-.63.78.78,0,0,0-.6-.19H34V3.09h5.82Z"/><path class="cls-1" d="M53.84,13.79A2.37,2.37,0,0,1,52.21,16a11.69,11.69,0,0,1-4.72.75c-.74,0-1.47,0-2.17,0a10.12,10.12,0,0,1-1.88-.22,3.25,3.25,0,0,1-1.31-.6,1.42,1.42,0,0,1-.5-1.16,1.3,1.3,0,0,1,.39-1,3.12,3.12,0,0,1,.82-.61,1.9,1.9,0,0,1-.74-.72,2,2,0,0,1-.19-.88,1.71,1.71,0,0,1,.41-1.09,4.84,4.84,0,0,1,1.17-1,3.55,3.55,0,0,1-1.15-1.2,3.42,3.42,0,0,1-.4-1.68,3.35,3.35,0,0,1,.39-1.65,3.29,3.29,0,0,1,1.13-1.19A5.68,5.68,0,0,1,45.21,3,10.55,10.55,0,0,1,50,3a5.18,5.18,0,0,1,1.86.88,2.21,2.21,0,0,1,.41-.39,2.8,2.8,0,0,1,.55-.28,2.39,2.39,0,0,1,.82-.13h.76V6.18H53.8a.7.7,0,0,0-.54.2.72.72,0,0,0-.22.38,3.81,3.81,0,0,1-1.71,2.68,6.86,6.86,0,0,1-3.84.93A9.91,9.91,0,0,1,45,10.08a.34.34,0,0,0-.18.29.49.49,0,0,0,.39.46,3.91,3.91,0,0,0,1,.18q.65,0,1.44,0c.54,0,1.09,0,1.66,0s1.12.08,1.66.16a5.06,5.06,0,0,1,1.44.42,2.56,2.56,0,0,1,1,.82A2.14,2.14,0,0,1,53.84,13.79Zm-6,.13c-.6,0-1.14,0-1.62-.05s-.92-.07-1.31-.13a.67.67,0,0,0-.08.3.77.77,0,0,0,.65.78,6.11,6.11,0,0,0,1.71.19,9.28,9.28,0,0,0,2.07-.17c.43-.11.65-.27.65-.48a.26.26,0,0,0-.18-.24,1.8,1.8,0,0,0-.5-.13,3.4,3.4,0,0,0-.67-.06ZM46.33,6.53a3,3,0,0,0,.24,1.33.93.93,0,0,0,.92.47,1,1,0,0,0,.94-.47,3,3,0,0,0,.24-1.33,2.83,2.83,0,0,0-.24-1.31,1,1,0,0,0-.94-.45,1,1,0,0,0-.92.45A2.83,2.83,0,0,0,46.33,6.53Z"/><path class="cls-1" d="M59.62,8.2a2.63,2.63,0,0,0,.47,1.71,1.61,1.61,0,0,0,1.25.48,1.91,1.91,0,0,0,.54-.08,1.54,1.54,0,0,0,.49-.26,1.58,1.58,0,0,0,.39-.48A1.85,1.85,0,0,0,63,8.83h3a4.84,4.84,0,0,1-.61,1.8,3.75,3.75,0,0,1-1.14,1.17,4.83,4.83,0,0,1-1.63.64,10.13,10.13,0,0,1-2.08.2,7.85,7.85,0,0,1-2.2-.3,5.3,5.3,0,0,1-1.82-.92A4.3,4.3,0,0,1,55.3,9.88a5.19,5.19,0,0,1-.44-2.21,5.12,5.12,0,0,1,.42-2.15A4.19,4.19,0,0,1,56.45,4,5.4,5.4,0,0,1,58.23,3a7.74,7.74,0,0,1,2.27-.31,7.44,7.44,0,0,1,2.6.4,4.66,4.66,0,0,1,1.79,1.11A4.35,4.35,0,0,1,65.9,6a6.9,6.9,0,0,1,.31,2.24ZM60.85,5a1,1,0,0,0-.86.41,3,3,0,0,0-.37,1.36h2.44a2.7,2.7,0,0,0-.35-1.29A1,1,0,0,0,60.85,5Z"/></g></g></svg>