<?xml version="1.0" standalone="no"?>
<!DOCTYPE svg PUBLIC "-//W3C//DTD SVG 20010904//EN"
 "http://www.w3.org/TR/2001/REC-SVG-20010904/DTD/svg10.dtd">
<svg version="1.0" xmlns="http://www.w3.org/2000/svg"
 width="624.000000pt" height="624.000000pt" viewBox="0 0 624.000000 624.000000"
 preserveAspectRatio="xMidYMid meet">
<metadata>
Created by potrace 1.11, written by Peter Selinger 2001-2013
</metadata>
<g transform="translate(0.000000,624.000000) scale(0.100000,-0.100000)"
fill="#000000" stroke="none">
<path d="M2026 5685 c-14 -10 -45 -15 -98 -15 -43 0 -78 -2 -78 -5 0 -2 15
-28 34 -57 70 -111 70 -109 67 -268 -3 -186 11 -248 53 -241 5 1 6 -5 2 -14
-3 -9 -6 -19 -6 -21 0 -2 -4 -4 -10 -4 -5 0 -10 7 -10 15 0 23 -6 19 -52 -31
-50 -54 -88 -112 -88 -136 0 -22 -76 -83 -115 -93 -16 -4 -80 -17 -142 -30
-147 -31 -279 -96 -326 -162 -18 -24 -49 -65 -70 -89 -45 -54 -67 -97 -109
-207 -28 -73 -32 -94 -32 -192 -1 -80 4 -124 17 -162 17 -51 17 -53 -2 -72
-20 -20 -20 -20 -34 27 l-15 47 1 -102 c1 -96 7 -121 21 -90 3 6 3 1 0 -12
-10 -40 -105 -171 -124 -171 -9 0 -57 7 -106 16 -49 9 -113 13 -142 10 -63 -6
-106 -30 -97 -53 7 -21 -11 -33 -50 -33 -47 0 -92 -33 -104 -76 -6 -21 -9 -39
-8 -41 2 -1 37 4 78 13 107 23 174 15 235 -29 27 -19 67 -44 89 -55 65 -34
161 -140 186 -206 19 -49 20 -59 8 -67 -38 -24 -76 13 -115 112 -30 77 -48 99
-66 81 -20 -20 -29 -14 -26 16 3 25 0 27 -37 30 -26 2 -51 -4 -72 -18 -43 -26
-42 -40 3 -40 68 0 110 -19 123 -55 6 -19 41 -75 77 -126 113 -160 126 -200
78 -238 -33 -26 -49 -31 -148 -46 l-81 -12 58 -7 c31 -5 86 -6 122 -4 53 3 70
9 103 35 l39 31 16 -119 c10 -65 25 -150 34 -189 14 -59 15 -79 5 -128 -18
-85 -15 -110 18 -180 38 -80 114 -156 200 -200 57 -28 77 -33 160 -36 52 -2
145 -10 205 -17 94 -10 121 -18 190 -52 44 -22 82 -43 85 -47 3 -4 23 -13 45
-19 57 -15 83 -36 95 -79 18 -65 13 -82 -40 -134 l-50 -49 0 53 c0 35 -7 63
-19 81 l-18 28 -7 -68 c-4 -37 -10 -78 -13 -91 -4 -18 -1 -25 16 -29 25 -6 25
-5 8 -46 -41 -98 -21 -118 37 -37 20 28 41 50 47 50 5 0 8 3 5 8 -2 4 3 16 11
27 15 19 15 19 9 -5 -4 -14 -8 -44 -10 -68 -4 -56 -37 -93 -77 -85 -27 5 -29
3 -29 -26 l0 -32 -30 16 -29 15 -21 -41 c-12 -22 -27 -72 -35 -111 -7 -38 -16
-72 -20 -76 -17 -18 -50 83 -41 130 10 54 42 98 71 98 14 0 25 5 25 10 0 6 -4
10 -10 10 -16 0 -12 19 14 56 l24 36 -39 62 c-67 108 -245 245 -514 396 -294
166 -405 266 -480 433 -16 35 -50 78 -105 131 -45 44 -95 100 -112 125 -17 25
-56 72 -87 104 l-56 58 80 -6 80 -6 -30 18 c-26 16 -55 18 -225 18 -195 0
-299 -12 -337 -40 -15 -11 -14 -14 12 -31 17 -11 47 -19 70 -19 49 0 152 44
133 57 -25 15 16 8 90 -17 123 -41 180 -90 207 -179 7 -22 25 -68 40 -101 16
-35 31 -90 36 -135 20 -168 89 -303 213 -417 37 -34 147 -115 244 -179 242
-162 352 -275 352 -363 0 -23 11 -39 50 -72 47 -39 50 -45 50 -89 0 -112 62
-200 182 -259 47 -23 75 -46 103 -82 57 -75 152 -156 220 -189 61 -29 137 -54
87 -28 -20 10 -22 16 -16 62 4 28 9 53 11 56 2 2 19 3 38 2 18 -2 46 3 62 11
15 8 52 17 82 20 85 10 88 27 4 27 -67 0 -72 2 -113 38 l-43 38 15 45 c9 24
19 53 24 64 6 15 -1 12 -29 -12 -21 -18 -42 -33 -47 -33 -12 0 -38 75 -45 133
-6 45 -5 48 13 43 11 -4 42 4 72 18 l54 25 18 -41 c10 -22 15 -45 11 -51 -3
-5 -1 -7 4 -4 22 14 86 -94 137 -230 15 -40 31 -73 36 -73 4 0 10 17 13 38 3
20 13 59 22 85 15 42 16 58 6 117 -6 37 -13 74 -16 82 -4 10 11 21 47 36 l53
22 115 -29 c63 -16 138 -32 165 -36 103 -13 98 -9 92 -71 -6 -58 -3 -62 27
-39 13 10 45 15 90 16 39 0 89 6 111 13 l40 12 -83 17 c-130 26 -133 36 -12
37 58 0 136 5 175 10 38 5 72 7 74 4 4 -3 -73 -39 -123 -58 -44 -15 7 -21 202
-22 171 0 229 -4 332 -23 213 -40 385 -17 516 67 85 55 114 93 114 148 0 25
-6 60 -14 79 -14 32 -13 34 11 50 13 9 42 33 64 52 48 43 58 37 66 -41 3 -31
10 -56 14 -56 20 0 6 -32 -36 -87 -74 -94 -115 -157 -124 -191 -12 -40 -5 -40
47 -2 53 38 114 121 147 201 15 35 43 96 62 134 20 39 36 77 37 85 6 58 29 90
79 114 59 28 144 45 133 27 -4 -6 -15 -11 -24 -11 -44 0 -187 -109 -168 -127
12 -12 110 -9 219 7 70 10 103 11 115 4 9 -6 27 -35 39 -65 17 -41 27 -53 41
-52 21 2 46 -45 73 -135 l12 -43 19 29 c25 39 38 118 28 170 -7 42 -7 44 26
60 29 13 45 14 120 4 96 -13 151 -39 215 -103 37 -37 57 -50 44 -29 -3 5 7 3
22 -5 15 -8 37 -15 48 -15 11 0 49 -9 85 -20 l65 -20 -70 5 c-56 3 -66 2 -50
-7 39 -23 239 -6 334 28 29 10 63 28 76 40 29 27 49 116 36 161 -6 20 -6 35 0
38 23 15 6 44 -43 76 -42 28 -52 40 -53 65 -4 55 -58 118 -153 180 -175 114
-195 129 -213 159 l-19 30 0 -32 c0 -44 -13 -41 -35 7 -12 27 -16 52 -12 80 4
35 3 39 -9 29 -11 -9 -14 -8 -14 8 0 20 18 43 33 43 4 0 5 -4 2 -10 -3 -5 -2
-10 2 -10 5 0 16 13 26 29 9 16 35 44 57 61 l40 32 -31 -57 c-17 -31 -29 -59
-26 -61 7 -7 97 98 97 114 0 22 -152 187 -265 287 l-67 59 -18 -22 -18 -22
-56 26 c-75 34 -90 28 -81 -34 4 -26 9 -62 10 -81 1 -18 7 -36 13 -40 19 -12
17 -43 -7 -121 -29 -93 -57 -131 -116 -159 -37 -17 -57 -20 -91 -15 -52 7 -49
16 25 63 26 17 57 48 70 71 12 22 26 40 32 40 16 0 9 53 -20 150 -16 52 -36
139 -46 192 -9 54 -21 95 -25 93 -5 -3 -14 -22 -20 -41 -8 -23 -15 -32 -20
-24 -18 28 -43 -85 -46 -207 -2 -68 -7 -131 -13 -141 -5 -10 -39 -35 -76 -56
-36 -22 -69 -44 -72 -49 -3 -6 -12 11 -18 38 -12 46 -11 53 41 202 61 176 101
258 155 313 45 46 83 67 135 75 35 6 46 1 109 -46 39 -28 95 -63 125 -78 50
-24 65 -26 177 -25 119 1 124 1 173 32 38 24 63 32 96 32 l46 0 -4 37 c-3 35
0 39 61 80 35 24 77 47 93 50 l29 6 -27 28 c-39 41 -179 110 -316 158 -141 48
-157 56 -263 131 -122 88 -123 106 -2 146 101 34 165 71 240 140 32 30 62 54
66 54 4 0 16 -9 26 -20 38 -42 69 -19 127 93 l36 67 -228 0 -227 0 -11 26 c-7
14 -16 22 -22 19 -5 -3 -12 7 -16 22 -3 15 -8 35 -10 43 -4 17 22 -15 29 -34
10 -28 22 12 22 72 -1 80 -16 113 -115 252 -85 120 -100 152 -100 210 0 26 -5
72 -11 101 -6 30 -10 93 -10 140 1 49 -5 111 -14 144 -19 76 -20 71 18 85 30
10 33 9 52 -16 11 -16 37 -46 57 -69 39 -42 47 -35 27 23 -10 29 -66 82 -87
82 -5 0 -12 8 -16 18 -3 9 -9 24 -12 32 -3 8 5 2 18 -13 19 -23 28 -27 56 -21
30 6 55 24 34 24 -5 0 -35 23 -66 50 -71 62 -103 79 -163 86 -38 4 -45 3 -33
-6 12 -10 10 -11 -10 -6 -14 3 -36 6 -50 7 -23 0 -23 1 -5 9 18 7 17 9 -10 16
-51 15 -206 10 -307 -10 -54 -10 -95 -22 -93 -27 3 -4 26 -12 52 -18 38 -9 66
-8 132 3 47 8 88 13 92 10 4 -2 10 -23 14 -47 3 -23 8 -54 11 -69 6 -28 5 -28
-53 -28 l-58 -1 45 -24 c66 -34 76 -57 56 -136 -9 -35 -20 -67 -25 -72 -4 -4
-27 15 -51 43 -23 28 -52 56 -64 62 -11 6 7 -19 42 -55 54 -56 61 -69 53 -86
-13 -23 -88 -90 -129 -113 l-30 -18 -91 60 c-149 98 -248 207 -374 413 l-49
82 6 -54 c10 -80 44 -172 91 -246 l19 -30 -27 25 c-39 34 -125 171 -163 258
-46 106 -54 107 -34 2 15 -78 54 -158 85 -172 17 -7 22 -14 14 -19 -8 -5 5
-25 40 -61 33 -36 51 -63 51 -79 -1 -22 -6 -18 -51 30 -139 149 -250 392 -228
501 15 81 12 97 -25 125 -54 41 -141 67 -251 74 -98 7 -99 7 -60 19 22 7 64
15 93 18 45 6 56 4 75 -14 31 -29 70 -42 126 -42 39 0 52 -5 75 -29 27 -28 27
-30 10 -56 -17 -25 -16 -26 4 -32 25 -6 27 -14 11 -30 -8 -8 -6 -27 6 -70 l18
-58 12 53 c7 29 15 55 18 59 3 3 24 -32 45 -78 l38 -84 8 93 c4 51 4 97 1 102
-3 5 -28 12 -55 16 -54 7 -82 27 -54 38 10 4 15 16 13 34 -2 16 6 43 19 63 33
55 29 87 -13 105 -19 7 -50 14 -70 14 -44 0 -47 20 -2 21 64 2 -63 29 -163 36
-166 10 -335 -37 -533 -147 -111 -62 -136 -67 -242 -55 -73 8 -100 20 -98 43
3 21 -1 22 -75 22 -55 0 -108 9 -184 30 -79 22 -113 27 -130 21 -20 -9 -18
-10 17 -12 38 -1 38 -2 -15 -10 -77 -13 -86 -20 -18 -15 52 4 68 -2 68 -28 0
-1 -23 -2 -50 -2 -28 1 -54 -3 -58 -9 -7 -10 -222 -68 -229 -62 -8 9 78 232
98 253 18 19 19 24 6 24 -26 0 -52 -43 -87 -142 -17 -51 -33 -94 -35 -96 -1
-1 -25 2 -53 8 -53 12 -62 23 -62 83 0 90 -87 172 -210 198 -31 7 -54 18 -60
30 -13 23 -28 24 -54 4z m118 -89 c-9 -29 -11 -31 -29 -16 -8 7 -15 23 -15 36
0 22 2 23 25 12 19 -9 24 -16 19 -32z m57 -19 c39 -34 76 -88 84 -125 4 -18
17 -40 31 -48 30 -20 30 -29 0 -49 -42 -28 -70 -11 -110 64 -34 66 -60 181
-40 181 5 -1 21 -11 35 -23z m-241 -61 c0 -12 -14 5 -31 39 -8 16 -6 15 10 -4
12 -13 21 -28 21 -35z m916 -101 c18 -15 18 -15 -5 -13 -14 2 -26 9 -29 16 -5
17 10 15 34 -3z m601 -61 c-3 -3 -12 -4 -19 -1 -8 3 -5 6 6 6 11 1 17 -2 13
-5z m-1027 -23 c-16 -30 -30 -35 -50 -16 -26 23 -17 35 26 35 31 0 34 -2 24
-19z m-90 5 c0 -2 3 -12 6 -21 6 -16 5 -16 -25 -1 -38 20 -39 26 -6 26 14 0
25 -2 25 -4z m940 -13 c0 -5 -7 -16 -14 -25 -11 -15 -29 -18 -95 -18 -80 0
-88 3 -73 27 10 16 182 31 182 16z m682 -61 c29 -17 33 -28 19 -51 -6 -10 -23
-1 -72 38 -35 28 -67 51 -71 51 -4 0 -8 4 -8 10 0 10 86 -21 132 -48z m-361
-95 c66 -78 62 -91 -7 -28 -31 29 -75 61 -97 73 l-41 20 23 20 c24 18 24 18
49 -4 13 -13 47 -49 73 -81z m-1241 -14 c31 -9 70 -30 90 -48 72 -66 155 -113
374 -211 65 -30 138 -65 162 -79 l44 -26 -25 -33 c-31 -41 -65 -133 -65 -177
0 -24 5 -32 23 -37 49 -12 207 -101 287 -161 110 -84 192 -153 186 -158 -2 -3
-41 7 -86 21 -88 28 -205 35 -270 16 -19 -6 -128 -12 -241 -14 -123 -3 -215
-9 -227 -15 -12 -6 -36 -10 -54 -10 l-33 2 30 4 c17 3 34 8 39 13 13 13 -39
23 -87 17 -35 -5 -38 -4 -19 5 30 15 28 21 -15 54 -54 40 -98 84 -118 119 -17
29 -17 30 1 9 11 -11 27 -31 36 -45 l17 -24 0 26 c2 51 -13 58 -244 116 -33 9
-108 38 -167 65 -59 27 -112 47 -118 43 -5 -3 -20 5 -32 18 -29 30 -102 59
-131 52 -12 -3 -42 -1 -67 4 l-45 9 45 1 c119 3 146 11 192 57 24 24 62 53 84
64 53 26 69 62 61 137 -6 54 -4 59 29 100 88 107 188 132 344 86z m305 -40
c97 -21 234 -88 333 -163 45 -34 82 -64 82 -66 0 -2 -26 8 -57 22 -32 14 -80
35 -108 46 -85 33 -200 97 -231 127 -24 23 -41 29 -97 34 -37 4 -75 11 -85 17
-22 14 62 5 163 -17z m2634 -457 c16 -43 17 -61 9 -111 -5 -33 -7 -77 -3 -99
5 -37 5 -38 -20 -32 -56 14 -78 -23 -90 -149 l-7 -69 70 74 c38 41 73 72 77
68 4 -4 0 -28 -9 -54 -27 -80 -24 -89 84 -228 55 -71 100 -136 100 -145 0 -44
-46 -158 -101 -252 -21 -36 -47 -101 -59 -144 -11 -43 -25 -86 -30 -96 -30
-56 5 -144 89 -221 76 -70 133 -98 446 -213 83 -30 91 -36 106 -71 10 -22 18
-42 18 -46 1 -8 -113 -26 -224 -34 -49 -3 -98 -11 -108 -16 -13 -7 -42 -2
-100 17 -147 47 -201 64 -247 75 -25 7 -65 25 -89 41 -28 18 -58 29 -79 29
l-35 0 7 51 c4 28 0 115 -10 202 -12 112 -14 177 -8 247 5 52 9 206 9 341 l0
246 -50 -15 c-27 -8 -55 -16 -62 -18 -25 -6 -68 -295 -60 -404 4 -44 25 -140
51 -230 74 -257 80 -338 30 -450 -14 -30 -40 -71 -59 -90 -25 -26 -38 -54 -52
-105 l-17 -70 -8 65 c-13 113 -38 239 -84 435 -85 354 -106 509 -90 658 6 55
11 67 25 67 28 0 43 43 24 70 -14 20 -14 25 2 60 l17 38 77 0 c42 -1 95 4 118
11 49 13 96 57 112 102 12 34 17 33 -59 12 -24 -6 -24 -5 7 24 23 21 33 42 38
76 6 36 14 51 34 63 28 17 86 87 97 119 4 11 -10 1 -30 -22 -20 -23 -50 -52
-67 -64 l-30 -21 6 44 c25 174 37 205 124 301 l34 38 29 -27 c15 -15 36 -50
47 -78z m-3893 -1 c-32 -41 -29 -42 27 -12 37 19 57 22 167 22 117 0 129 -2
182 -28 32 -16 81 -46 110 -68 43 -32 54 -47 65 -86 6 -27 12 -60 13 -75 0
-28 0 -28 -70 -28 l-70 0 27 -42 c14 -24 43 -73 63 -110 l37 -68 14 27 c13 27
14 25 17 -44 2 -40 5 -73 8 -73 3 0 14 5 25 11 16 8 30 7 60 -5 22 -9 44 -16
49 -16 6 0 10 23 10 51 0 48 4 56 45 100 81 87 69 131 -44 152 -60 11 -64 14
-122 84 -32 40 -55 73 -49 73 22 0 116 -43 165 -75 79 -53 213 -172 230 -206
9 -16 24 -29 34 -29 10 0 29 -8 42 -19 13 -10 40 -26 59 -36 32 -16 33 -19 15
-26 -163 -65 -270 -126 -414 -238 -76 -58 -85 -63 -96 -47 -12 15 -18 11 -60
-44 -32 -41 -75 -80 -135 -120 -49 -33 -93 -60 -98 -60 -5 0 -51 -20 -103 -44
l-94 -44 -53 -85 c-64 -103 -99 -198 -108 -296 -10 -99 13 -134 110 -171 28
-10 28 -10 21 17 -4 16 -11 53 -16 84 -5 31 -19 78 -30 105 -34 76 -23 149 35
233 24 36 48 73 51 82 4 10 23 19 48 23 23 4 61 18 85 32 38 23 55 22 33 -1
-9 -11 -31 -94 -31 -119 0 -9 7 -16 15 -16 19 0 19 -9 1 -29 -16 -17 -120
-201 -151 -266 -10 -22 -21 -65 -23 -96 -5 -66 -5 -66 99 -75 l69 -7 0 94 c0
121 24 299 46 340 12 25 13 34 5 37 -14 5 36 62 53 62 5 0 0 -10 -12 -23 -12
-13 -22 -26 -22 -29 0 -3 46 -9 103 -12 194 -14 312 -52 405 -131 l42 -37 0
39 c0 51 -40 160 -79 218 -17 25 -31 50 -31 56 0 5 44 9 101 9 95 0 105 -2
156 -31 l55 -32 -6 -42 c-7 -40 -6 -43 21 -48 16 -3 51 -21 78 -39 48 -32 50
-35 49 -78 0 -25 -11 -67 -24 -95 -13 -27 -26 -54 -28 -60 -3 -5 10 4 28 20
34 32 70 94 70 120 0 21 8 19 47 -11 70 -54 131 -66 185 -38 28 14 29 17 14
26 -13 8 -23 5 -40 -11 -12 -12 -29 -21 -38 -21 -23 0 -69 51 -106 119 -29 53
-31 61 -16 61 14 0 10 8 -17 38 -20 20 -48 59 -63 85 -18 31 -39 54 -59 62
-18 8 -52 35 -77 60 -132 137 -249 193 -306 147 -22 -17 -78 -101 -72 -107 2
-1 33 -15 69 -31 62 -27 132 -70 98 -61 -8 3 -66 11 -128 18 l-112 13 26 24
c31 28 28 33 -22 41 -38 6 -38 6 -38 56 l0 49 78 33 c43 18 160 62 260 99 100
36 220 84 266 105 79 37 87 39 155 33 142 -11 233 -40 326 -103 47 -32 127
-83 178 -115 50 -32 92 -61 92 -66 0 -4 -6 -13 -14 -19 -26 -21 -48 -152 -28
-165 4 -2 28 4 52 15 56 25 102 27 136 5 17 -12 36 -16 55 -12 27 5 117 -29
224 -86 82 -43 128 -105 144 -194 13 -71 -5 -84 -116 -84 -118 0 -262 -23
-319 -50 -66 -32 -87 -70 -80 -144 10 -103 57 -155 148 -164 52 -5 53 -4 36
15 -10 11 -18 22 -18 25 0 13 95 42 140 42 38 1 54 -4 74 -23 14 -14 24 -26
23 -28 -2 -2 -44 -10 -93 -19 -49 -9 -91 -18 -93 -20 -2 -2 33 -42 78 -89 88
-94 131 -151 154 -207 21 -51 32 -129 19 -137 -6 -3 -37 -41 -70 -83 -33 -43
-63 -74 -67 -70 -5 4 -6 0 -2 -9 3 -10 -3 -26 -14 -38 -22 -23 -35 -28 -22 -8
4 6 -5 4 -20 -6 -15 -10 -61 -27 -102 -37 -99 -25 -148 -55 -263 -162 -107
-100 -143 -122 -178 -114 -17 5 -24 2 -24 -7 0 -11 -39 -37 -55 -37 -3 0 -5
16 -5 36 0 32 2 35 23 28 30 -10 107 -5 126 7 12 7 1 9 -36 6 -46 -4 -55 -1
-78 23 -33 34 -32 41 10 67 67 44 83 126 36 192 -17 24 -19 34 -11 56 5 14 10
39 10 55 0 30 -28 100 -41 100 -3 0 -7 -25 -8 -56 -1 -72 -11 -92 -33 -67 -11
12 -17 45 -20 103 -6 125 -24 156 -113 193 -38 16 -85 34 -102 39 -24 8 -33
17 -33 33 0 12 -13 33 -28 48 -24 23 -37 27 -85 27 -31 0 -57 3 -57 8 0 4 29
25 65 47 36 22 83 58 106 81 l40 41 -68 -23 c-37 -13 -99 -28 -138 -35 -83
-14 -90 -19 -106 -67 -6 -20 -18 -54 -28 -74 -15 -34 -19 -37 -47 -32 -25 5
-38 0 -65 -24 -41 -36 -61 -87 -94 -247 -33 -157 -50 -208 -82 -239 -40 -40
-84 -36 -122 13 -30 38 -31 42 -26 113 6 69 5 72 -9 47 -17 -29 -42 -43 -58
-33 -5 4 -8 -3 -6 -16 5 -35 -19 -35 -36 -1 -23 43 -20 88 9 138 14 23 27 43
29 43 1 0 1 -28 -1 -62 l-3 -63 14 40 14 40 1 -49 c1 -68 17 -49 37 44 8 40
19 81 24 91 14 26 12 33 -5 19 -22 -18 -18 1 6 30 17 20 20 21 14 5 -5 -17 -3
-17 21 5 l27 25 -20 -35 c-11 -19 -24 -53 -27 -75 -4 -22 -9 -53 -12 -70 l-5
-30 15 25 c8 14 22 54 31 90 19 73 55 149 96 201 16 20 29 39 29 42 0 15 76
130 94 142 11 8 40 15 64 15 44 0 44 0 38 30 -5 26 0 35 35 67 68 61 68 80 1
35 l-59 -41 -13 25 -14 24 -31 -30 c-17 -16 -35 -30 -39 -30 -5 0 -6 18 -3 41
5 37 3 40 -16 37 -20 -3 -23 -11 -27 -73 -4 -60 -11 -81 -49 -145 -55 -94
-223 -341 -228 -336 -10 9 13 62 44 103 25 33 28 41 13 30 -62 -43 -150 -201
-150 -267 0 -16 22 -73 49 -127 27 -54 57 -118 67 -142 24 -58 51 -91 75 -91
24 0 24 -2 -6 66 -14 31 -25 59 -25 62 0 4 35 -31 78 -76 l77 -82 188 -30
c104 -17 193 -28 198 -24 11 7 11 45 0 63 -6 9 -10 10 -16 2 -5 -9 -10 -9 -21
0 -11 9 -20 5 -45 -15 -19 -17 -38 -24 -52 -21 -99 20 -184 35 -206 35 -26 0
-51 20 -91 74 -14 18 -12 18 28 11 54 -9 94 1 126 30 l26 25 40 -40 c44 -44
60 -49 81 -24 12 15 17 12 45 -22 27 -32 35 -36 47 -25 12 9 17 9 23 0 9 -16
22 14 23 53 1 21 -8 31 -45 53 -44 26 -46 28 -39 63 3 21 13 42 22 49 25 19
133 52 189 57 69 7 84 -5 91 -79 3 -33 9 -62 12 -65 4 -3 17 -20 30 -38 12
-18 27 -29 33 -26 6 4 9 3 7 -2 -10 -22 -71 -131 -86 -154 -9 -14 4 -5 30 20
l47 44 -1 -34 c0 -34 -17 -88 -18 -62 -1 9 -11 6 -30 -10 -17 -13 -30 -26 -30
-29 -1 -7 40 -20 49 -16 3 1 19 -10 35 -25 21 -20 36 -26 52 -22 18 5 22 3 17
-10 -5 -14 4 -16 75 -16 53 0 81 4 81 11 0 15 81 88 98 89 9 0 10 -8 5 -27
-15 -60 -11 -68 37 -73 l45 -5 -53 -23 c-31 -14 -92 -27 -145 -33 -134 -15
-157 -19 -157 -28 0 -5 10 -11 22 -14 12 -4 19 -9 16 -12 -3 -4 -20 0 -36 9
-27 14 -37 14 -98 1 -79 -17 -220 -20 -229 -5 -9 15 -34 12 -52 -5 -17 -18
-38 -15 -38 5 0 16 65 40 125 46 132 13 240 28 240 34 0 10 -150 29 -277 34
-141 7 -294 38 -403 83 -201 82 -423 215 -534 320 -43 40 -140 200 -152 250
-23 94 -85 165 -200 229 -158 87 -194 137 -199 274 -2 88 -4 93 -68 228 -71
148 -87 206 -87 311 0 50 4 72 16 82 21 17 45 65 59 118 l11 45 114 -3 c63 -1
142 -7 175 -12 36 -7 105 -8 172 -4 127 8 117 -1 129 117 7 73 -2 162 -17 153
-5 -4 -9 -16 -9 -29 0 -12 -6 -30 -13 -40 -13 -17 -16 -16 -63 17 -27 19 -96
61 -154 92 -123 68 -206 123 -239 158 -20 22 -23 33 -18 65 7 37 36 107 43
100 2 -2 -3 -22 -10 -43 -7 -22 -17 -53 -20 -70 l-7 -29 21 19 c12 11 32 40
45 65 l23 45 11 -40 c7 -26 7 -41 1 -43 -6 -2 -10 -11 -10 -19 0 -10 6 -13 16
-9 11 4 37 -16 84 -66 37 -40 82 -81 99 -91 l31 -18 0 24 c0 13 3 58 6 99 l7
74 -32 13 c-20 9 -49 11 -86 6 -30 -3 -55 -3 -55 0 0 4 9 20 20 35 11 16 36
72 55 124 19 53 44 114 55 136 23 46 18 49 -50 25 -23 -8 -46 -13 -50 -10 -10
6 -130 -121 -130 -137 0 -6 -3 -9 -6 -5 -3 3 8 32 26 65 41 77 126 163 169
171 2 1 -9 -15 -23 -34z m3094 -31 c30 -31 49 -53 41 -49 -10 6 -12 4 -7 -4 4
-6 11 -9 16 -6 5 3 44 -19 88 -48 44 -30 94 -60 111 -67 17 -7 31 -16 31 -21
0 -16 -30 -9 -70 16 -22 14 -42 25 -45 25 -3 0 -28 18 -56 40 -28 22 -58 40
-68 40 -18 0 -41 18 -41 32 0 4 8 5 18 1 9 -3 -5 17 -33 46 -27 28 -47 51 -44
51 2 0 29 -25 59 -56z m-1186 -69 c68 -30 178 -58 316 -80 168 -27 333 -62
395 -84 115 -41 191 -101 228 -181 22 -47 22 -50 15 -300 -2 -89 1 -106 49
-270 86 -290 104 -413 100 -674 -1 -116 -6 -171 -13 -173 -8 -3 -10 15 -7 62
5 51 3 65 -8 65 -10 0 -11 2 -2 8 33 21 2 353 -40 424 -107 182 -150 249 -156
240 -3 -5 -4 46 -2 115 l3 125 -54 52 c-48 45 -55 57 -61 101 -8 69 -41 154
-88 223 -32 49 -49 63 -96 84 -72 32 -155 59 -303 98 -218 58 -329 112 -393
192 -40 50 -26 67 23 28 21 -17 63 -41 94 -55z m2016 -165 c0 -5 7 -7 15 -4
19 8 19 -3 0 -22 -12 -13 -15 -12 -25 5 -13 25 -13 31 0 31 6 0 10 -4 10 -10z
m-4163 -434 c-4 -76 -8 -140 -9 -142 -2 -2 -14 -1 -26 3 -16 4 -22 13 -22 32
0 25 22 186 36 261 6 35 6 35 16 10 6 -15 8 -81 5 -164z m2604 37 c49 -20 87
-27 162 -31 61 -3 97 -9 97 -16 0 -6 9 -22 20 -36 11 -14 20 -35 20 -47 0 -19
-4 -21 -38 -16 -28 4 -58 -4 -122 -30 -159 -65 -183 -69 -226 -42 -16 10 -23
28 -28 74 -8 74 -39 172 -72 229 l-25 42 74 -50 c41 -28 103 -62 138 -77z
m-2513 19 c18 -26 43 -60 56 -76 24 -29 25 -29 51 -12 25 17 27 16 87 -23 39
-27 72 -41 92 -41 22 0 41 -9 59 -28 32 -33 34 -48 8 -62 -32 -17 -83 -12
-190 20 -56 17 -122 33 -146 37 -40 5 -45 9 -50 37 -5 32 -25 184 -25 192 0 2
6 4 13 4 6 0 27 -22 45 -48z m3209 -122 c46 -120 64 -224 70 -407 3 -94 2
-180 -2 -190 -5 -12 -17 30 -35 122 -30 148 -73 325 -91 372 -14 36 -21 145
-13 207 l6 48 20 -43 c11 -24 31 -73 45 -109z m-2517 -160 c-7 -16 -16 -30
-21 -30 -14 0 -11 16 6 30 8 7 15 19 15 28 0 8 3 12 6 9 4 -4 1 -20 -6 -37z
m1886 4 c18 -15 18 -15 -6 -10 -14 3 -29 6 -33 6 -5 0 -5 5 -2 10 9 14 18 13
41 -6z m1769 -44 c0 -40 -6 -64 -21 -85 -12 -17 -24 -48 -28 -69 -4 -22 -22
-61 -39 -88 l-32 -48 -7 27 c-4 16 -9 64 -10 108 -3 80 -3 81 35 125 21 25 40
55 44 68 4 18 11 22 32 20 25 -3 26 -6 26 -58z m-3660 -110 c-4 -6 27 -10 87
-10 86 -1 91 -2 68 -15 -38 -22 -208 -16 -194 6 3 5 -21 10 -53 11 l-58 1 55
7 c88 11 102 11 95 0z m-1339 -35 c20 -15 13 -18 -23 -9 -13 4 -23 10 -23 15
0 14 24 11 46 -6z m103 -40 c47 -27 62 -32 43 -13 -23 23 -12 28 63 28 l75 0
0 -28 c0 -15 9 -60 20 -100 24 -85 24 -93 4 -67 -25 33 -106 115 -114 115 -8
0 -137 74 -147 84 -14 14 15 4 56 -19z m3510 -301 c16 -50 35 -122 41 -160 9
-54 17 -74 38 -91 27 -23 27 -23 5 -23 -22 0 -23 -4 -23 -70 0 -73 -3 -78 -32
-56 -13 9 -18 27 -18 59 0 53 -31 160 -60 202 -11 17 -20 42 -20 57 l0 27 35
-20 35 -21 -25 51 c-30 60 -49 207 -21 161 9 -14 29 -66 45 -116z m-119 -1
c12 -16 20 -41 20 -64 0 -21 5 -70 12 -108 14 -83 -4 -193 -47 -290 -45 -100
-59 -81 -56 78 3 120 22 265 39 298 12 21 5 100 -9 109 -5 3 -9 -2 -9 -10 0
-9 -7 -16 -16 -16 -9 0 -14 3 -12 8 3 4 10 22 17 40 l13 33 14 -26 c7 -14 22
-38 34 -52z m-3021 -393 c20 -169 21 -184 15 -177 -10 9 -43 218 -43 267 0 68
15 22 28 -90z m2831 89 c0 -11 -4 -17 -10 -14 -5 3 -10 13 -10 21 0 8 5 14 10
14 6 0 10 -9 10 -21z m1090 -46 c0 -5 -10 -19 -21 -33 l-20 -25 7 25 c7 27 34
53 34 33z m-3814 -80 c-8 -8 -12 -3 -21 27 l-7 25 17 -23 c9 -13 14 -26 11
-29z m3814 -80 c-15 -60 -39 -146 -55 -193 -15 -47 -29 -91 -31 -99 -3 -8 -6
-12 -9 -10 -7 7 44 338 55 359 10 19 48 50 61 50 4 0 -6 -48 -21 -107z m-970
-63 c-23 -44 -50 -12 -50 59 l0 55 30 -48 c24 -37 28 -51 20 -66z m367 58 c-2
-7 -20 -22 -38 -32 l-34 -19 35 35 c35 35 47 40 37 16z m-3215 -72 c-9 -18
-11 -16 -11 19 0 33 1 37 10 21 8 -12 8 -25 1 -40z m109 -10 c91 -41 107 -57
92 -96 -9 -25 -6 -36 29 -96 22 -38 62 -112 88 -165 59 -117 84 -147 177 -216
40 -30 73 -55 73 -57 0 -8 -269 28 -286 39 -37 24 -103 134 -128 213 -19 64
-39 162 -32 162 1 0 31 -28 66 -63 36 -34 81 -73 100 -86 24 -17 15 -4 -29 40
-100 101 -138 156 -146 214 -11 87 -13 91 -47 101 -18 5 -34 17 -36 27 -4 22
-7 23 79 -17z m1194 14 c-3 -5 -11 -10 -16 -10 -6 0 -7 5 -4 10 3 6 11 10 16
10 6 0 7 -4 4 -10z m1722 -137 c-28 -54 -58 -108 -67 -120 -10 -13 -32 -65
-50 -118 -29 -82 -38 -98 -72 -121 -21 -15 -38 -32 -38 -38 0 -6 -3 -20 -6
-32 -4 -15 1 -23 23 -33 l28 -13 -39 -34 c-22 -19 -41 -32 -44 -29 -3 2 1 18
8 35 22 52 4 44 -28 -13 -33 -59 -133 -154 -172 -164 -14 -3 -64 -26 -112 -49
-48 -24 -90 -44 -93 -44 -3 0 12 26 33 58 47 68 134 246 158 320 17 55 61 100
131 136 52 26 103 76 128 125 22 44 62 81 205 189 30 23 55 42 56 42 1 0 -22
-44 -49 -97z m549 -16 c-8 -51 -52 -101 -84 -95 -18 3 -15 11 31 74 29 39 54
70 56 68 2 -2 0 -23 -3 -47z m825 25 c58 -44 119 -101 119 -112 0 -5 -9 -29
-21 -53 -16 -33 -34 -50 -76 -72 -45 -25 -101 -78 -135 -129 -4 -6 -11 -6 -20
1 -7 6 -32 16 -55 22 -24 7 -43 15 -43 20 0 4 17 12 38 17 l37 9 0 67 c1 49 6
72 18 86 17 19 17 21 -9 51 -26 31 -26 34 -11 65 10 22 26 36 49 43 52 17 70
14 109 -15z m-2938 -110 c-21 -18 -46 -37 -55 -42 -16 -9 -16 -7 -4 32 7 24
19 55 26 70 l13 27 28 -27 29 -27 -37 -33z m1622 -39 c-69 -133 -109 -189 -66
-93 16 36 37 91 47 124 13 40 25 62 41 69 13 6 23 15 24 21 0 7 3 6 6 -1 2 -7
-21 -61 -52 -120z m1471 0 c-7 -7 -26 7 -26 19 0 6 6 6 15 -2 9 -7 13 -15 11
-17z m-3687 -43 c6 -19 6 -30 0 -30 -11 0 -29 41 -22 53 7 12 11 8 22 -23z
m2379 8 c-2 -6 -10 -14 -16 -16 -7 -2 -10 2 -6 12 7 18 28 22 22 4z m1303 -11
c-13 -13 -26 -3 -16 12 3 6 11 8 17 5 6 -4 6 -10 -1 -17z m94 13 c3 -5 -1 -10
-9 -10 -9 0 -16 5 -16 10 0 6 4 10 9 10 6 0 13 -4 16 -10z m-2875 -107 c0 -35
-4 -63 -10 -63 -11 0 -12 6 -15 70 0 25 -5 56 -9 70 -9 25 -9 25 13 6 17 -16
21 -30 21 -83z m-490 37 c0 -5 6 -10 13 -10 26 0 55 -75 36 -94 -2 -3 -19 22
-36 55 -17 32 -28 59 -22 59 5 0 9 -4 9 -10z m2191 -94 c-7 -8 -31 -23 -55
-35 -24 -11 -59 -38 -77 -60 -19 -21 -52 -47 -73 -58 l-39 -18 47 -5 47 -5
-30 -35 c-36 -42 -38 -54 -9 -44 21 6 21 5 9 -10 -8 -10 -23 -15 -32 -13 -12
3 -20 -2 -24 -14 -9 -27 -21 -23 -35 11 -7 17 -16 30 -20 30 -19 0 -17 42 3
64 12 12 41 46 65 75 50 59 139 116 158 100 9 -7 18 -5 31 9 21 24 53 31 34 8z
m219 10 c0 -6 -183 -123 -223 -142 -42 -20 -62 -11 -31 15 11 9 19 22 16 29
-2 6 10 30 28 51 22 28 40 41 63 44 46 6 147 8 147 3z m-746 -38 c-19 -34 -27
-39 -35 -26 -16 24 -9 38 17 38 17 0 23 -4 18 -12z m1506 -14 c0 -21 3 -24 14
-15 11 9 14 4 18 -27 6 -39 23 -78 91 -206 33 -62 35 -68 16 -63 -20 5 -20 5
-3 -14 15 -17 15 -19 1 -19 -9 0 -23 9 -31 21 -8 12 -19 19 -24 16 -9 -7 -99
79 -91 87 3 3 26 -13 52 -35 26 -22 47 -35 47 -27 0 36 -25 98 -56 137 -23 30
-34 55 -34 78 0 18 -3 32 -7 31 -7 -2 -79 15 -123 29 -28 8 32 32 83 33 44 0
47 -2 47 -26z m-665 -45 l20 -23 -32 23 c-38 26 -56 49 -27 33 11 -6 28 -20
39 -33z m-875 8 c0 -2 -10 -12 -22 -23 l-23 -19 19 23 c18 21 26 27 26 19z
m1041 -43 l24 -27 -25 6 c-14 4 -28 7 -32 7 -11 0 -10 40 0 40 5 0 19 -12 33
-26z m-2075 -19 c-15 -12 -17 -17 -7 -29 10 -12 8 -26 -13 -71 -14 -31 -31
-55 -40 -55 -12 0 -11 12 10 73 21 63 44 98 63 97 3 0 -3 -7 -13 -15z m1792
-22 c-16 -2 -40 -2 -55 0 -16 2 -3 4 27 4 30 0 43 -2 28 -4z m269 1 c-3 -3
-12 -4 -19 -1 -8 3 -5 6 6 6 11 1 17 -2 13 -5z m-436 -35 c-36 -22 -80 -19
-102 7 -10 12 -1 14 62 14 l74 0 -34 -21z m319 1 c29 -15 47 -34 66 -73 15
-28 32 -55 38 -59 7 -5 7 -8 -2 -8 -8 0 -27 14 -43 31 -49 53 -111 129 -105
129 4 0 25 -9 46 -20z m430 -5 c0 -13 -4 -14 -20 -5 -11 6 -20 13 -20 15 0 3
9 5 20 5 11 0 20 -7 20 -15z m143 -31 c6 -11 26 -38 45 -61 50 -63 27 -52 -50
21 -65 62 -66 63 -36 61 18 -1 35 -10 41 -21z m-322 -29 c31 -8 71 -21 88 -28
32 -13 32 -27 0 -27 -9 0 -56 -11 -104 -25 -91 -27 -125 -25 -80 5 l26 17 -42
6 c-46 6 -59 19 -59 58 l0 26 58 -9 c31 -5 82 -15 113 -23z m-2108 -24 c5 -21
-10 -31 -44 -31 -28 0 -25 37 4 43 12 2 25 5 28 6 4 0 9 -8 12 -18z m336 -19
c-6 -18 -17 -32 -25 -32 -19 0 -18 6 8 40 26 36 32 34 17 -8z m826 7 c-9 -17
-19 -28 -22 -25 -6 6 23 56 32 56 3 0 -2 -14 -10 -31z m1283 -19 c17 -11 32
-22 32 -26 0 -4 -60 28 -79 43 -16 12 20 -1 47 -17z m-93 0 c22 -8 24 -12 14
-28 -11 -18 -14 -18 -55 5 -24 14 -44 27 -44 29 0 8 59 4 85 -6z m-3303 -61
c26 -17 69 -54 94 -82 l45 -50 -28 -23 c-15 -13 -33 -23 -38 -24 -13 0 -75
-56 -75 -67 0 -5 -14 -10 -31 -11 l-30 -2 8 47 c10 61 10 179 0 216 -9 34 -5
34 55 -4z m2858 14 c34 -24 47 -41 64 -90 17 -49 6 -56 -31 -21 -25 24 -28 19
-14 -30 13 -43 -1 -40 -39 8 -54 69 -113 86 -187 55 -49 -20 -49 -20 -11 19
18 19 41 44 51 55 23 28 130 30 167 4z m-1655 -23 c-4 -16 -4 -39 0 -50 5 -16
10 -18 25 -10 27 15 32 13 28 -12 -2 -19 -14 -26 -71 -40 -38 -9 -76 -23 -85
-31 -9 -9 -29 -19 -45 -22 -22 -6 -26 -4 -21 9 3 9 9 14 13 12 11 -7 151 62
151 74 0 6 -23 22 -52 35 l-52 24 30 11 c16 7 38 16 49 20 33 14 37 11 30 -20z
m-865 -17 c51 -5 59 -8 41 -15 -14 -5 -50 -4 -87 3 -103 18 -76 25 46 12z
m2964 -20 c3 -10 26 -26 51 -36 37 -16 48 -27 68 -70 36 -76 42 -98 23 -91
-21 8 -69 84 -54 84 7 1 -18 30 -57 65 -43 40 -64 65 -53 65 9 0 19 -8 22 -17z
m526 -58 c45 -9 59 -17 77 -44 28 -41 28 -40 3 -71 l-20 -25 -30 35 c-17 19
-30 45 -30 58 0 20 -4 23 -23 18 -18 -4 -31 2 -53 25 -29 31 -29 31 -4 24 14
-5 50 -13 80 -20z m-2881 -34 c36 -20 24 -24 -46 -16 -80 8 -127 23 -76 24 17
1 34 5 38 10 6 10 48 1 84 -18z m-473 -28 c28 -29 37 -33 83 -33 63 0 134 26
111 40 -12 8 -10 10 8 10 12 0 22 -4 22 -10 0 -5 22 -10 50 -10 55 0 200 -29
200 -40 0 -14 -167 -73 -230 -80 -72 -9 -213 -14 -367 -14 -56 0 -100 -3 -97
-8 3 -4 -2 -11 -10 -14 -22 -8 -20 -24 3 -24 10 0 21 9 24 19 7 29 39 16 77
-30 17 -21 27 -39 22 -39 -4 0 -27 -16 -49 -35 -36 -31 -48 -35 -95 -35 -35 0
-64 7 -85 19 -31 19 -32 19 -48 1 -10 -11 -20 -33 -24 -51 -6 -28 -14 -34 -71
-55 -36 -13 -66 -24 -68 -24 -2 0 -2 20 -1 45 2 24 0 47 -4 51 -20 21 -2 26
64 21 64 -5 69 -4 57 10 -18 22 -87 53 -120 53 -26 0 -27 2 -17 27 12 33 59
96 66 90 2 -3 -7 -24 -22 -47 -15 -23 -24 -44 -21 -47 2 -3 11 8 19 24 20 38
107 119 186 173 72 48 131 60 246 51 51 -4 64 -9 91 -38z m2514 16 c-38 -32
-44 -32 -35 2 5 19 13 24 38 25 l31 1 -34 -28z m584 15 c3 -8 2 -12 -4 -9 -6
3 -10 10 -10 16 0 14 7 11 14 -7z m16 -64 c18 -27 36 -50 41 -50 5 0 9 -4 9
-10 0 -21 -69 24 -75 49 -3 14 -8 34 -11 44 -9 29 3 19 36 -33z m384 -127 c3
-21 6 -55 6 -75 l0 -38 -75 0 c-41 0 -75 2 -75 5 0 2 18 14 40 25 43 22 60 45
60 83 0 51 35 51 44 0z m-4164 -521 c20 -17 30 -33 26 -40 -10 -16 -49 10 -64
43 -15 33 -4 32 38 -3z m78 -89 c11 -10 28 -31 37 -48 17 -30 17 -30 -2 -7
-10 13 -32 34 -48 47 -17 13 -25 24 -19 25 7 0 21 -8 32 -17z"/>
<path d="M5174 4148 c-38 -64 -38 -65 -10 -35 14 15 26 32 26 38 0 13 -7 11
-16 -3z"/>
<path d="M1957 4098 c-9 -30 -17 -77 -17 -105 0 -27 -7 -72 -15 -98 -8 -27
-13 -50 -12 -51 1 -1 26 20 56 48 l55 50 -11 72 c-6 39 -17 86 -24 105 l-15
34 -17 -55z"/>
<path d="M2280 3492 c68 -69 90 -125 90 -236 l0 -69 -25 23 c-24 23 -25 23
-25 3 0 -21 36 -61 46 -51 8 9 59 -45 56 -59 -9 -40 41 15 68 75 51 112 -2
208 -180 323 -41 27 -78 49 -82 49 -3 0 20 -26 52 -58z"/>
<path d="M1595 3471 c-17 -34 -55 -172 -55 -200 0 -9 11 9 24 40 12 31 32 72
44 91 23 38 27 64 13 87 -7 11 -13 7 -26 -18z"/>
<path d="M2900 3399 c-25 -6 -60 -8 -78 -6 -26 2 -30 0 -20 -9 27 -26 113 -94
119 -94 6 0 39 94 39 111 0 10 1 10 -60 -2z"/>
<path d="M1610 3345 c-7 -9 -11 -17 -9 -20 3 -2 10 5 17 15 14 24 10 26 -8 5z"/>
<path d="M2970 3204 c0 -49 -25 -156 -46 -195 -15 -29 -14 -30 4 -20 30 16 91
88 98 117 9 33 -10 96 -36 119 -20 18 -20 18 -20 -21z"/>
<path d="M2860 2749 c-15 -27 -9 -40 29 -62 l31 -18 16 36 c20 49 13 65 -30
65 -25 0 -38 -6 -46 -21z"/>
<path d="M2811 2270 c1 -25 5 -56 9 -70 7 -21 8 -18 9 18 1 26 5 41 11 37 17
-10 11 11 -10 36 l-19 24 0 -45z"/>
<path d="M2846 2082 c-4 -11 -25 -48 -47 -82 -29 -46 -37 -66 -29 -74 8 -8 13
-7 20 4 18 28 71 162 67 167 -3 2 -8 -4 -11 -15z"/>
<path d="M3100 1799 c-121 -14 -122 -18 -5 -15 61 2 121 8 135 14 23 10 22 11
-15 10 -22 0 -74 -4 -115 -9z"/>
<path d="M2580 5393 c-35 -13 -66 -26 -69 -29 -12 -11 69 11 114 31 66 31 38
29 -45 -2z"/>
<path d="M4725 4997 c-11 -18 -15 -36 -11 -53 7 -28 73 -103 119 -136 28 -20
28 -19 -10 33 -21 29 -47 82 -59 118 l-21 65 -18 -27z"/>
<path d="M6103 3773 c-29 -11 -10 -23 38 -23 45 0 50 2 39 15 -12 14 -52 19
-77 8z"/>
<path d="M561 3158 l1 -103 14 57 c7 32 23 76 34 98 11 21 20 42 20 45 0 3
-16 5 -35 5 l-35 0 1 -102z"/>
<path d="M1550 1965 c6 -7 23 -18 38 -23 32 -13 304 -63 310 -57 11 11 -92 49
-177 65 -148 27 -184 31 -171 15z"/>
<path d="M2479 735 l-4 -50 -55 -12 c-30 -6 -77 -12 -105 -13 l-50 -2 45 -14
c65 -21 147 -20 171 2 20 18 25 80 9 119 -6 15 -9 8 -11 -30z"/>
</g>
</svg>
