<svg xmlns="http://www.w3.org/2000/svg" viewBox="0 0 44.28 12.67"><defs><style>.cls-1{fill:#fff9e5;}</style></defs><title>Fichier 8</title><g id="Calque_2" data-name="Calque 2"><g id="Calque_1-2" data-name="Calque 1"><path class="cls-1" d="M1.37,4c-.07-.17-.13-.31-.19-.43A1.09,1.09,0,0,0,1,3.31a1,1,0,0,0-.37-.17A3,3,0,0,0,0,3.09V0H7.24V3.09c-.83,0-1.15.28-1,.84L7.58,8h.07L9,3.93c.19-.56-.13-.84-1-.84V0h4.84V3.09a3,3,0,0,0-.58.05,1,1,0,0,0-.37.17,1.09,1.09,0,0,0-.23.29c0,.12-.12.26-.19.43L8.28,12.28H4.58Z"/><path class="cls-1" d="M17.64,8.2a2.63,2.63,0,0,0,.47,1.71,1.61,1.61,0,0,0,1.25.48,2,2,0,0,0,.54-.08,1.54,1.54,0,0,0,.49-.26,1.58,1.58,0,0,0,.39-.48A2.25,2.25,0,0,0,21,8.83h3a4.84,4.84,0,0,1-.61,1.8,3.67,3.67,0,0,1-1.15,1.17,4.75,4.75,0,0,1-1.63.64,10.1,10.1,0,0,1-2.07.2,7.92,7.92,0,0,1-2.21-.3,5.25,5.25,0,0,1-1.81-.92,4.2,4.2,0,0,1-1.22-1.54,5,5,0,0,1-.44-2.21,5.29,5.29,0,0,1,.41-2.15A4.22,4.22,0,0,1,14.47,4,5.3,5.3,0,0,1,16.25,3a7.72,7.72,0,0,1,2.26-.31,7.54,7.54,0,0,1,2.61.4A4.62,4.62,0,0,1,22.9,4.23a4.25,4.25,0,0,1,1,1.73,6.9,6.9,0,0,1,.31,2.24ZM18.87,5a1,1,0,0,0-.86.41,3,3,0,0,0-.37,1.36h2.44a2.7,2.7,0,0,0-.35-1.29A1,1,0,0,0,18.87,5Z"/><path class="cls-1" d="M30.22,3.09l-.14,2.29h.14a4,4,0,0,1,1-2A2.41,2.41,0,0,1,33,2.72a2.84,2.84,0,0,1,1.1.2,2,2,0,0,1,.75.55,2.07,2.07,0,0,1,.4.78,3.22,3.22,0,0,1,.13.93,2.53,2.53,0,0,1-.12.77,1.78,1.78,0,0,1-.37.69,1.9,1.9,0,0,1-.67.5,2.49,2.49,0,0,1-1,.19,1.93,1.93,0,0,1-1.31-.43,1.31,1.31,0,0,1-.48-1,1.47,1.47,0,0,1,.07-.5,1.88,1.88,0,0,1,.13-.33l.1-.19s0-.06-.06-.06-.24.13-.38.4A3,3,0,0,0,31,6.46V8.37a1,1,0,0,0,.15.63.8.8,0,0,0,.6.19h.5v3.09h-7V9.19h.49A.61.61,0,0,0,26.28,9a.79.79,0,0,0,.18-.53V6.85a.55.55,0,0,0-.23-.53,1,1,0,0,0-.52-.14h-.44V3.09Z"/><path class="cls-1" d="M41.69,0V3.09h2.49V6.18H41.69V8.74a2.1,2.1,0,0,0,.16.9.6.6,0,0,0,.63.35.78.78,0,0,0,.43-.1.7.7,0,0,0,.26-.28.94.94,0,0,0,.12-.39,3.43,3.43,0,0,0,0-.48V7.5h1V8.84a6.07,6.07,0,0,1-.18,1.51,2.9,2.9,0,0,1-.58,1.21,2.8,2.8,0,0,1-1.12.81,4.59,4.59,0,0,1-1.78.3,5.16,5.16,0,0,1-1.9-.29,2.4,2.4,0,0,1-1.08-.8,3,3,0,0,1-.48-1.21,10.38,10.38,0,0,1-.11-1.53V6.18H35.74V3.43a2.54,2.54,0,0,0,1.16-.27,2.8,2.8,0,0,0,.93-.75,3.5,3.5,0,0,0,.6-1.09A4.06,4.06,0,0,0,38.64,0Z"/></g></g></svg>