<svg xmlns="http://www.w3.org/2000/svg" viewBox="0 0 62.12 13.36"><defs><style>.cls-1{fill:#fff9e5;}</style></defs><title>Fichier 7</title><g id="Calque_2" data-name="Calque 2"><g id="Calque_1-2" data-name="Calque 1"><path class="cls-1" d="M1.37,4.73a3.81,3.81,0,0,0-.19-.43A1,1,0,0,0,1,4a1,1,0,0,0-.37-.17A3,3,0,0,0,0,3.78V.69H7.24V3.78c-.83,0-1.15.28-1,.84L7.58,8.67h.07L9,4.62c.19-.56-.13-.84-1-.84V.69h4.84V3.78a3,3,0,0,0-.58.05,1,1,0,0,0-.37.17,1,1,0,0,0-.23.3c0,.11-.12.25-.19.43L8.28,13H4.58Z"/><path class="cls-1" d="M19.37,3.78V9a.8.8,0,0,0,.28.73,1.32,1.32,0,0,0,.7.17h.22V13h-7V9.88h.33a.78.78,0,0,0,.65-.28A1,1,0,0,0,14.75,9V7.82a.84.84,0,0,0-.31-.71,1.09,1.09,0,0,0-.7-.23h-.19V3.78Zm-4.76-2A1.6,1.6,0,0,1,15.16.51,2.18,2.18,0,0,1,16.71,0a2.24,2.24,0,0,1,1.58.51,1.63,1.63,0,0,1,0,2.46,2.24,2.24,0,0,1-1.58.51A2.18,2.18,0,0,1,15.16,3,1.61,1.61,0,0,1,14.61,1.73Z"/><path class="cls-1" d="M21.08,8.36a5.16,5.16,0,0,1,.42-2.15,4.21,4.21,0,0,1,1.22-1.55,5.39,5.39,0,0,1,1.89-.93,8.72,8.72,0,0,1,2.48-.32,8.6,8.6,0,0,1,2.47.32,5.53,5.53,0,0,1,1.9.93,4.29,4.29,0,0,1,1.21,1.55,5,5,0,0,1,.43,2.15,5,5,0,0,1-.43,2.14,4.33,4.33,0,0,1-1.21,1.56,5.39,5.39,0,0,1-1.9.95,9,9,0,0,1-2.47.32A9.09,9.09,0,0,1,24.61,13a5.25,5.25,0,0,1-1.89-.95A4.25,4.25,0,0,1,21.5,10.5,5.14,5.14,0,0,1,21.08,8.36Zm4.74,0a10,10,0,0,0,.06,1.19,2.73,2.73,0,0,0,.21.78.9.9,0,0,0,.38.43,1.16,1.16,0,0,0,.62.14,1.13,1.13,0,0,0,.61-.14.9.9,0,0,0,.38-.43,2.44,2.44,0,0,0,.21-.78,10,10,0,0,0,.06-1.19,5,5,0,0,0-.27-2,1,1,0,0,0-1-.57,1.39,1.39,0,0,0-.62.13.9.9,0,0,0-.38.43,2.73,2.73,0,0,0-.21.78A10,10,0,0,0,25.82,8.36Z"/><path class="cls-1" d="M39.94.69V9a.8.8,0,0,0,.28.73,1.32,1.32,0,0,0,.7.17h.22V13h-7V9.88h.33a.78.78,0,0,0,.65-.28A1,1,0,0,0,35.32,9V4.73A.86.86,0,0,0,35,4a1.15,1.15,0,0,0-.7-.23h-.19V.69Z"/><path class="cls-1" d="M46.41,8.89a2.68,2.68,0,0,0,.47,1.72,1.64,1.64,0,0,0,1.25.47,1.91,1.91,0,0,0,.54-.08,1.54,1.54,0,0,0,.49-.26,1.58,1.58,0,0,0,.39-.48,1.85,1.85,0,0,0,.21-.74h3a4.77,4.77,0,0,1-.61,1.8A3.75,3.75,0,0,1,51,12.49a4.83,4.83,0,0,1-1.63.64,10.13,10.13,0,0,1-2.08.2,7.8,7.8,0,0,1-2.2-.3,5.3,5.3,0,0,1-1.82-.92,4.22,4.22,0,0,1-1.22-1.54,5.19,5.19,0,0,1-.44-2.21,5.16,5.16,0,0,1,.42-2.15,4.19,4.19,0,0,1,1.17-1.55A5.11,5.11,0,0,1,45,3.73a8.44,8.44,0,0,1,4.87.08,4.68,4.68,0,0,1,1.79,1.12,4.24,4.24,0,0,1,1,1.72A6.9,6.9,0,0,1,53,8.89Zm1.23-3.23a1,1,0,0,0-.86.41,3,3,0,0,0-.37,1.36h2.44a2.7,2.7,0,0,0-.35-1.29A1,1,0,0,0,47.64,5.66Z"/><path class="cls-1" d="M59.54.69V3.78H62v3.1H59.54V9.43a2.28,2.28,0,0,0,.15.9.62.62,0,0,0,.64.35.78.78,0,0,0,.43-.1.84.84,0,0,0,.26-.27,1.25,1.25,0,0,0,.12-.4c0-.14,0-.3,0-.48V8.19h1V9.54A6.5,6.5,0,0,1,62,11a3,3,0,0,1-.58,1.21,2.87,2.87,0,0,1-1.12.81,4.65,4.65,0,0,1-1.79.3,5.19,5.19,0,0,1-1.9-.29,2.42,2.42,0,0,1-1.07-.8A2.66,2.66,0,0,1,55,11.06a9.1,9.1,0,0,1-.12-1.52V6.88h-1.3V4.12a2.44,2.44,0,0,0,1.16-.27,2.67,2.67,0,0,0,.92-.75A3.39,3.39,0,0,0,56.27,2,3.81,3.81,0,0,0,56.49.69Z"/></g></g></svg>